<?xml version="1.0" encoding="utf-8"?>
<!-- Generator: Adobe Illustrator 18.0.0, SVG Export Plug-In . SVG Version: 6.00 Build 0)  -->
<!DOCTYPE svg PUBLIC "-//W3C//DTD SVG 1.1//EN" "http://www.w3.org/Graphics/SVG/1.1/DTD/svg11.dtd">
<svg version="1.1" id="Layer_1" xmlns="http://www.w3.org/2000/svg" xmlns:xlink="http://www.w3.org/1999/xlink" x="0px" y="0px"
	 viewBox="0 0 612 792" enable-background="new 0 0 612 792" xml:space="preserve">
<g id="layer1">
	<g id="flowRoot4284" transform="matrix(1.7141959,0,0,1.7141959,-86.109024,49.667252)">
		<path id="path4383" fill="#8E4085" d="M200.2,276.5c-2.7,1.7-4.9,4.3-6.6,8c-2.1,5.3-5.8,12.2-10.9,20.7
			c-11.9,0-24.2-1.9-37.2-5.7c-5.4-3.4-8.6-5.2-9.5-5.2c-0.9,0.5-1.4,1-1.4,1.4v0.5c0,2.1,0.6,3.7,1.8,4.7
			c2.8,6.4,5.2,10.3,7.1,11.8c0,4.1,9.4,7.5,28.3,10.3v0.5l-15,28.8c-7.5,17.9-11.3,28.4-11.3,31.5v2.9c4.7,2.4,7.1,3.9,7.1,4.7
			l1-0.5c1.1-4.4,2.7-8.1,4.7-11.3h-0.5c0-0.5,0.9-1.8,2.8-3.7v-1.4c-0.6,0-1,0.5-1,1.4h-0.5v-0.5c0.3-0.5,0.5-1.4,0.5-2.4
			c1.9-3.1,3.1-4.6,3.8-4.6c0-0.3-0.2-0.8-0.5-1.4l0.5-2.3l1,0.4h0.5v-0.4l-0.5-1l1-0.5c0-0.4-0.2-0.9-0.5-1.5
			c0-0.6,0.6-1.8,1.8-3.7c1.6-0.7,2.4-2,2.4-3.7c1.9-1.4,2.8-2.9,2.8-4.3c5-8.3,7.6-12.8,7.6-13.6H179v-1.9h0.5v1h0.5
			c0.6,0,1-0.3,1-1V334c-0.3,0-0.8-0.2-1.4-0.5l1.4-1.8l1,0.5l1.4-1c1.7-4.4,2.8-6.6,3.3-6.6h3.3c0.7,0,1.3,0.2,1.8,0.5
			c0.5-0.3,1.2-0.5,1.9-0.5h15c4.4-0.4,6.3-0.7,9.9-1c-7.7,1.5-13.3,4.3-16.8,8.4c-9.3,10.1-14.4,19.5-15.2,28.3l0.5,1l-0.5,1
			c0,2.7,1.4,7.6,4.3,14.6c4.8,9.8,10.9,14.7,18.4,14.7h0.5c6.8,0,13.3-3,19.3-9c0-0.7,0.8-1.6,2.4-2.8l-0.6-1c1,0,1.5-0.3,1.5-1
			c4.4-5.4,6.5-8.4,6.5-9h-2.3v-0.5c1.9-3.5,3-5.2,3.3-5.2l-1-1.4v-0.5c1.5,0,2.9-6.1,4.3-18.4v-0.5c-0.6-0.7-0.9-1.6-0.9-2.8
			c-3.3-7.3-6.2-10.9-8.5-10.9c-2.1-2.1-5.2-3.7-9.5-5.1l-2.9,0.5H221l-2.3-0.5c14.8-1.5,24.3-2.7,24.3-3.6l1,0.5l1-0.5v0.5
			c1.8-0.2,2.7-0.6,3-1.1c4.6,1.4,10.5,2.7,18.4,3.9v0.5l-15.1,28.8c-7.5,17.9-11.3,28.4-11.3,31.5v2.9c4.7,2.4,7.1,3.9,7.1,4.7
			l0.9-0.5c1.1-4.4,2.7-8.1,4.7-11.3h-0.5c0-0.5,0.9-1.8,2.8-3.7v-1.4c-0.6,0-0.9,0.5-0.9,1.4h-0.5v-0.5c0.3-0.5,0.5-1.4,0.5-2.4
			c1.9-3.1,3.1-4.6,3.8-4.6c0-0.3-0.2-0.8-0.5-1.4l0.5-2.3l1,0.4h0.4v-0.4l-0.4-1l0.9-0.5c0-0.4-0.2-0.9-0.5-1.5
			c0-0.6,0.7-1.8,1.9-3.7c1.6-0.7,2.3-2,2.3-3.7c1.9-1.4,2.9-2.9,2.9-4.3c5-8.3,7.6-12.8,7.6-13.6h-0.5v-1.9h0.5v1h0.5
			c0.6,0,0.9-0.3,0.9-1V334c-0.3,0-0.7-0.2-1.4-0.5l1.4-1.8l1,0.5l1.4-1c1.7-4.4,2.8-6.6,3.3-6.6h3.3c0.7,0,1.4,0.2,1.9,0.5
			c0.5-0.3,1.1-0.5,1.8-0.5h15c22.9-2,34.4-3.5,34.4-4.7l1,0.5l1-0.5v0.5c2.2-0.2,3.3-0.7,3.3-1.4l1,0.5c0.6,0,1-0.3,1-1
			c0.5,0,2.3,0.2,5.7,0.5c0.3,0,0.5-0.4,0.5-1.4h3.7c1.6-0.8,2.4-1.5,2.4-2v-1c-0.3,0-0.8,0.2-1.4,0.5c-0.2,0-2-0.6-5.2-1.8h-0.5
			l0.5,0.9c-0.8,0-1.6,0.3-2.4,1l0.5,1v1h-1.9c-0.9-0.7-2-1.2-3.3-1.5c0,0.6-0.3,1-1,1h-1.4l-1.4-1l0.5,2.4c-0.4,0-0.8,0.2-1.4,0.5
			c0-0.3-0.2-0.5-0.5-0.5c0-0.4,0.2-0.8,0.5-1.4c0-0.5-0.3-1.1-1-1.9h1v-1.8h-1.9l-2.4,0.5v0.4l0.5,1c0.4,0,0.8-0.2,1.4-0.5h0.5v1.4
			h-0.5l-2.4-0.5v1h-1.8c0-0.5-0.3-1.1-1-1.9h1.9v-0.9h-0.5l-2.8,0.4h-0.5c0-0.8,4.5-1.6,13.6-2.3h0.5v-1h-1.8v-0.9h2.8l1-0.5v0.9
			c4.8,0,9.5-0.4,14.1-1.4h0.5v-1h-1.9v-0.5h3.8v-0.5c0-0.5-0.9-1-2.9-1.4v0.5l-2.3-0.5h-1v1h-1l-2.3-0.4c-0.3,0.6-0.5,1-0.5,1.4
			h-1.4v-1h-1l-0.9,0.5v-0.5c-0.4,0-3.1,0.5-8,1.4c-0.6-0.3-1.2-0.5-1.9-0.5l0.5-1l-1-1.4l7.6-1h1v0.5c-1.6,0-2.5,0.5-2.8,1.5
			l2.8-0.5l1.9,0.5c0.4,0,0.8-0.2,1.4-0.5l1,0.5l1-0.5c0-0.3-0.2-0.5-0.5-0.5c0-0.5,0.3-0.8,1-1l-0.5-1h1.4c0,0.4,0.1,0.8,0.4,1.4
			h-1.4v1h1.4c0.6,0,1-0.3,1-1v-1h-1v-0.5c0-0.8,5.1-1.7,15.1-2.8v-1h-1.4v-0.5h1v-0.9c-28.1,4.1-50.5,6.7-66.9,8h-9v-1
			c4.1-6.7,6.8-12,8-16h-0.5v-1.4c0-0.4-0.2-0.8-0.5-1.4c0.3,0,0.5-0.2,0.5-0.5v-1.4c-0.7-5-2.5-7.6-5.2-7.6c-2.7,1.7-4.9,4.3-6.6,8
			c-2.1,5.3-5.7,12.2-10.8,20.7c-1,0-2.1-0.2-3.1-0.2v-0.2l-4.2-0.5l-1.1,0.3c-2.9-0.2-5.8-0.3-8.7-0.7v-0.5h-1v-0.5
			c0-0.8,5-1.7,15-2.8v-1h-1.4v-0.5h1v-0.9c-9.8,1.4-17.9,2.4-26.3,3.4c-2.5-0.6-4.9-0.9-7.4-1.6c-5.4-3.4-8.6-5.2-9.4-5.2
			c-0.9,0.5-1.4,1-1.4,1.4v0.5c0,2.1,0.7,3.7,1.9,4.7c0.4,0.9,0.7,1.3,1.1,2.1c-9.4,1.1-18.2,2.1-25.4,2.7h-9v-1
			c4.1-6.7,6.8-12,8-16h-0.4v-1.4c0-0.4-0.2-0.8-0.5-1.4c0.3,0,0.5-0.2,0.5-0.5v-1.4C204.7,279.1,202.9,276.6,200.2,276.5
			L200.2,276.5z M213,7.2c-2.9,1-4.4,2.4-4.4,4.3c-8.6,22.6-13.4,33.8-14.4,33.8c-4.6,0-9.1-1.1-13.5-3.2c-1.7,0-2.8,0.8-3.5,2.4
			c1.7,10.8,4.8,16.5,9.2,17.1c0,1.2-0.5,3.3-1.6,6l-5.7,13.1l0.4,0.8h-0.4c-1.6,3.9-2.9,6.4-3.9,7.6c0,2.9-1.1,5.4-3.2,7.6
			c0,0.3,0.1,0.7,0.4,1.2c-3.4,8.5-5.2,13.8-5.2,15.9c1.8,3.6,3,5.4,3.6,5.5h0.3c0.4,0,0.9-0.8,1.6-2.3
			c8.3-20.2,14.8-35.3,19.6-45.4c1.3-5.3,2.9-8,4.8-8c0,0.7,11,1.2,33.1,1.5c5.3-0.3,8.2-0.4,8.7-0.4c0,0.3,0.1,0.4,0.4,0.4
			c-2.1,4.9-4.2,9.8-6.1,14.8c-4.8,10.4-8.2,21.3-10.3,32.7l0.8,1.2v1.6l-0.4,2c0.2,1,0.6,1.5,1.2,1.5v2c0,0.5,0.3,0.8,0.8,0.8h0.8
			l1.2-1.2c7.3-20.7,13.3-36.5,18-47.3c1.9-6.9,3.6-10.3,5.1-10.3l-0.4-2c1.1-3.5,6.9-18.6,17.5-45.4c-1.4-1.7-2.9-2.9-4.4-3.6H262
			c-1.7,0-4.3,4.7-7.6,14c-4,13.1-7.4,21.6-10.3,25.4l-0.8-0.4c0-0.4,0.3-0.7,0.8-0.8v-0.4c0-0.7-6.2-1.2-18.4-1.5
			c0,0.3-0.1,0.4-0.4,0.4v-0.4c-2.9,0-10.2-0.5-21.9-1.6c0-2.1,1.1-5.2,3.2-9.2c7.1-17.8,10.7-27.1,10.7-27.8c0-0.3-0.9-1-2.7-2.4
			L213,7.2L213,7.2z M112.1,131.7c-6.7,0-13,0.6-18.9,1.7c-11.2,2.1-16.8,3.6-16.8,4.5c0,3.6,2.5,6.6,7.4,9.1h0.4
			c1,0,4.1-0.6,9.4-1.7h0.4c-1.8,6.6-7.5,22.9-17.1,48.9c-12.1,30.1-18.2,45.5-18.2,46.2h0.7c1.3-3.5,2.5-5.2,3.6-5.2v0.3l0.7-0.3
			c-1.2,2.9-1.7,4.7-1.7,5.5h0.3c0.9-0.7,1.4-1.4,1.4-2.1h0.4c0,1.3,0.1,2.1,0.4,2.4c0.7-1,1.4-1.9,1.4-2.7H66v1.7
			c0,0.7-0.4,2.1-1.1,4.2v0.3h0.3l1.4-1.4v1.4l-0.7,1.1l0.3,0.7c0.2,0,1.4-1.6,3.5-4.9l0.7,0.3l-1.1,2.5l0.4,0.7
			c1.2-0.7,1.7-1.5,1.7-2.4c0.2,0,0.4,0.1,0.4,0.3c0.5-0.1,0.9-0.7,1.4-1.7c0-0.4-0.2-0.6-0.7-0.7c0.3-1.2,0.7-1.8,1.1-1.8v0.8
			c0.3,0,1.1-1.7,2.4-5l-0.4-1.7c3.3-7.6,4.9-11.7,4.9-12.2l0.7,0.4h0.4c0-0.4-0.2-0.6-0.7-0.7c1.2-2.6,1.7-4.2,1.7-4.9h0.4v1.1h0.7
			c1.2-3.1,1.7-4.8,1.7-5.2v-0.8h-0.3v0.8h-0.4v-0.4c0-1.2,0.5-1.7,1.4-1.7c0-0.2-0.1-0.4-0.4-0.4l0.4-1.7h0.3v0.4l-0.3,0.7v0.4H87
			c0-0.5,0.1-1,0.3-1.4l-0.3-1.7v-0.4h0.3v1c0.4,0,0.7-0.5,1.1-1.4l-0.7-1v-0.4c0.3,0,0.6-0.1,1.1-0.4c0-0.2-0.1-0.4-0.4-0.4
			c0-0.4,0.3-1.3,0.7-2.8l0.7,0.4c0-0.2-0.1-0.6-0.4-1c0-0.2,0.1-0.4,0.4-0.4c1.5-4.9,2.8-8.2,3.8-9.8v-1h-1l1.8-2.5v-0.3h-0.4
			c-1.4,0.6-2.1,1.6-2.1,3.2h-0.4v-0.4c0-0.4,0.5-1.8,1.4-4.2c0.5,0,1,0.1,1.4,0.4h0.3c0-0.2-0.1-0.6-0.3-1.1l1.7-2.4v-0.3
			c-1.4,0-2.1,0.9-2.1,2.7h-0.4V182l1.1-3.2c1.3,0,2.9-3.7,4.9-10.9h-0.7c0,0.1-0.4,1.2-1.1,3.2h-0.7v-0.7c0.6-1.2,1.1-1.7,1.4-1.7
			c0.9-5.4,1.9-8.1,2.9-8.1c0.5,0,1.5-2.3,3.1-7c1.9-2,2.9-4.3,2.9-7v-0.8l-0.8-1.1v-1.7l1.8-0.4h1.3c1.4,0,3.3-0.1,5.7-0.3
			c0.4,0.2,0.8,0.3,1.1,0.3c0-0.2,0.1-0.3,0.3-0.3c3.4,0,7.3,1.4,11.5,4.2c4.2,1.9,6.3,3.9,6.3,6.2v2.8c0,5-4,11.5-11.9,19.6
			c-6.8,5.9-15.7,10.1-26.9,12.6v0.7h0.7c0.4-0.4,2.5-0.9,6.3-1.4v0.4l3.5-0.4h0.3v0.4c-1.8,0.4-2.7,0.8-2.7,1.4v0.4h1l0.7-0.4
			c0,0.3,0.3,0.5,1,0.7l0.8-0.4c0,0.7,0.2,1,0.7,1l1.1-0.7h0.4l1.1,0.7v-1h1.7l0.7-0.4v1.1h1.1v-0.7h-0.7v-0.4
			c0.6,0,1.7-0.3,3.4-0.7c0,0.8,0.6,1.5,1.8,2.1h0.3c1.4-0.8,2.1-1.2,2.1-1.4c3.7-1,5.6-2.1,5.6-3.2c0.2,0,0.3,0.1,0.3,0.4
			c2.1-0.9,5-3.4,8.8-7.7c2.8-3.7,4.8-9.3,5.9-16.8l-0.4-2.1c0-2.1,0.1-4.4,0.4-7c-0.2-3.3-1.6-7-4.2-11.2
			C130.5,134.9,122.1,131.7,112.1,131.7L112.1,131.7z M250.9,131.7c-1.5,2-6.2,19.3-14,51.9h-3.6c-3.6,0-9.9,2.1-18.9,6.2h-1v-0.5
			c4.6-2.3,6.8-3.6,6.8-4c0.3,0,0.4,0.1,0.4,0.4c1.5-0.2,2.3-0.7,2.3-1.4v-0.5c-0.8,0-2,0.2-3.6,0.5c-0.3,0-1.5-0.2-3.6-0.5
			c-8.7,4.3-16.1,9.4-22.1,15.4c-7.5,8.4-11.3,16.1-11.3,23v2.7c0,1.6,1.2,4.9,3.6,9.9c2,7.5,5.4,11.3,10.3,11.3h4.1
			c0.8,0,1.7-0.3,2.7-0.9c4.5,0,10.6-4.5,18.5-13.6v-0.9h-0.5c-0.5,0-0.7,0.3-0.8,0.9l-1-0.5c0-1,3.3-5.1,9.9-12.2v9
			c0,4.4,2.5,9.8,7.7,16.2c0.5,0,1.1-1.1,1.8-3.2l-1.3-5.9v-6.7l4-20.8c2.7-14.4,4.8-23.1,6.4-26.2v-0.5l-0.5-0.9
			c0.9-1.2,1.4-2.4,1.4-3.6c2.4-13,3.9-20,4.5-20.8v-0.5h-1.3v-0.8h1.3l-0.9-1.4c1.8-8.7,2.7-13.5,2.7-14.5
			c-1.2-1.9-1.8-3.8-1.8-5.9h-0.9l-0.9,0.5v-1.8L250.9,131.7L250.9,131.7z M268.6,301.5l-4.3,0.9v1c0.7,0,1.3,0.2,1.8,0.5
			c1.6,0,2.5-0.7,2.9-1.9C268.7,301.9,268.6,301.8,268.6,301.5z M363,301.5l-4.3,0.9v1c0.7,0,1.4,0.2,1.9,0.5c1.6,0,2.5-0.7,2.9-1.9
			C363.2,301.9,363,301.8,363,301.5z M257.2,302.9h1.4c0,0.2,0.2,0.6,0.3,1c-0.5-0.1-1-0.3-1.4-0.4L257.2,302.9z M364.5,304.3
			l-1.9,0.5v0.5l0.5,1c1.3,0,2.8-0.3,4.2-1c0,0.4,0.2,0.5,0.5,0.5h1v-1L364.5,304.3z M364.5,306.7v1h1.8v-1H364.5z M233.7,307.6h0.7
			c0.4,0.6,0.7,1.2,1.1,1.7c-1.2-0.4-2.2-0.8-2.7-0.8C232.8,308.1,233,307.7,233.7,307.6L233.7,307.6z M328.2,307.6h1l0.9,0.5
			c0-0.3,0.2-0.5,0.5-0.5h2.4c0.6,0,0.9,0.3,0.9,1c-1.2,0-2.3,0.3-3.3,1c-1.6-0.6-2.7-1-3.3-1C327.2,308.1,327.5,307.7,328.2,307.6
			L328.2,307.6z M226.6,308.1h1c0.5,0,1,0.6,1.4,1.8l-2.4,0.5V308.1L226.6,308.1z M321.1,308.1h0.9c0.5,0,1,0.6,1.4,1.8l-2.3,0.5
			L321.1,308.1L321.1,308.1z M347.9,308.6h2.4v0.5c-0.8,0-2.1,0.2-3.8,0.5h-1v-0.5L347.9,308.6z M356.4,310v0.5c0,0.6,0.3,1,0.9,1h1
			c0.6,0,1-0.3,1-1V310H356.4L356.4,310z M235.6,310.9c0,0.3,0.3,0.5,1,0.5v0.5h-3.3v-0.5C234.3,311.4,235,311.2,235.6,310.9z
			 M330,310.9c0,0.3,0.3,0.5,1,0.5v0.5h-3.3v-0.5C328.7,311.4,329.5,311.2,330,310.9z M331.9,310.9h2.8v0.5h-2.8V310.9z
			 M347.9,310.9l-1,0.5l0.5,1l1-0.5L347.9,310.9z M228,311.9c0.3,0,0.5,0.2,0.5,0.5c0.4,0,0.8-0.2,1.4-0.5h2.9v0.5
			c-1.5,0-3.1,0.2-4.8,0.5h-0.5L228,311.9L228,311.9z M322.5,311.9c0.3,0,0.5,0.2,0.5,0.5c0.4,0,0.8-0.2,1.4-0.5h2.9v0.5
			c-1.5,0-3.1,0.2-4.8,0.5H322L322.5,311.9z M237.9,312.6c0.1,0.1,0.2,0.2,0.2,0.2c0,0.8,0.7,1.6,1.5,2.4l-0.4-0.1v1h-1.9
			c0-0.5-0.3-1.1-0.9-1.9h1.8v-0.9h-0.5l-2.8,0.4h-0.5C234.6,313.3,235.8,313,237.9,312.6L237.9,312.6z M231.8,313.3h1.5
			c0,0.6-0.3,0.9-1,0.9h-0.5V313.3z M326.2,313.3h1.5c0,0.6-0.3,0.9-1,0.9h-0.5V313.3z M340.9,313.3c-0.5,0-0.9,0.3-1,0.9v1h1.4v-1
			L340.9,313.3z M362.6,313.3v0.9h0.5c0.6,0,1-0.3,1-0.9H362.6z M228.5,314.2c0.9,0,1.4,0.3,1.4,1l-2.3-0.5h-1.4
			c-0.9,0.5-1.4,1-1.4,1.4c-0.8,0-1.8-0.3-2.9-1c-1,0-1.4,0.2-1.4,0.5c-6.9,0.3-10.3,0.9-10.3,2h-2.4l-2.3-0.5v-1L228.5,314.2
			L228.5,314.2z M322.9,314.2c0.9,0,1.4,0.3,1.4,1l-2.4-0.5h-1.4c-0.9,0.5-1.4,1-1.4,1.4c-0.8,0-1.8-0.3-2.8-1c-1,0-1.5,0.2-1.5,0.5
			c-6.9,0.3-10.3,0.9-10.3,2h-2.4l-2.3-0.5v-1L322.9,314.2L322.9,314.2z M350.8,315.1h1.4v0.5c-0.4,0-0.8,0.2-1.4,0.5h-0.5
			L350.8,315.1z M198.8,316.1c0.7,0,1.3,0.2,1.9,0.5c0.5-0.3,1.1-0.5,1.8-0.5l2.4,0.5v1c-0.3,0-0.8-0.2-1.4-0.5
			c-1.7,0.3-2.6,0.5-2.8,0.5l-2.4-0.5L198.8,316.1L198.8,316.1z M233.7,316.1h0.5c0.6,0,1,0.3,1,1v0.5l-2.3-0.5
			C232.8,316.6,233,316.2,233.7,316.1L233.7,316.1z M293.3,316.1c0.7,0,1.3,0.2,1.8,0.5c0.5-0.3,1.2-0.5,1.9-0.5l2.3,0.5v1
			c-0.3,0-0.7-0.2-1.4-0.5c-1.7,0.3-2.6,0.5-2.9,0.5l-2.3-0.5L293.3,316.1z M328.2,316.1h0.5c0.6,0,1,0.3,1,1v0.5l-2.4-0.5
			C327.2,316.6,327.5,316.2,328.2,316.1z M222.4,317.6c1.7,0.3,3.4,0.4,5.2,0.4v0.5l-4.7,0.5l-1-0.5L222.4,317.6z M236.5,317.6
			l3.3,0.4c0,0.6-0.3,1-1,1h-1.4c-0.5,0-0.8-0.3-0.9-1L236.5,317.6L236.5,317.6z M316.9,317.6c1.7,0.3,3.4,0.4,5.1,0.4v0.5l-4.6,0.5
			l-1-0.5L316.9,317.6z M331,317.6l3.3,0.4c0,0.6-0.3,1-0.9,1h-1.4c-0.5,0-0.9-0.3-1-1L331,317.6L331,317.6z M243.7,317.6
			c0.4,0.2,0.6,0.4,1.1,0.6c-0.2,0.1-0.4,0.1-0.7,0.2c0-0.3-0.2-0.5-0.5-0.5C243.5,317.9,243.6,317.7,243.7,317.6z M218.1,318l0.5,1
			l2.4-0.5v1c-2.2,0-5.7,0.3-10.4,1l-0.9-0.5l-1,0.5c-0.5,0-1.1-0.3-1.9-1h-1v1.4l-5.6-1c0,0.6-1.1,1-3.3,1v-1.4
			c0.4,0,0.8-0.2,1.4-0.5v0.5l7.1-1c0,0.3,0.1,0.5,0.4,0.5c1.7-0.3,3.1-0.5,3.9-0.5c1.7,0,3.9,0.2,6.5,0.5L218.1,318L218.1,318z
			 M312.6,318l0.5,1l2.4-0.5v1c-2.2,0-5.7,0.3-10.3,1l-1-0.5l-1,0.5c-0.5,0-1.1-0.3-1.8-1h-1v1.4l-5.7-1c0,0.6-1.1,1-3.3,1v-1.4
			c0.4,0,0.9-0.2,1.5-0.5v0.5l7-1c0,0.3,0.2,0.5,0.5,0.5c1.7-0.3,3-0.5,3.8-0.5c1.7,0,3.9,0.2,6.5,0.5L312.6,318L312.6,318z
			 M230.8,318.5v0.5c0.7,0,1.4-0.2,2-0.5h0.5c0,0.6-1.3,1.1-3.9,1.4H229C229,319.4,229.6,318.9,230.8,318.5z M233.7,318.5h1
			c0.6,0,1,0.3,1,1h-1C234.1,319.4,233.8,319.1,233.7,318.5z M325.3,318.5v0.5c0.7,0,1.3-0.2,1.9-0.5h0.5c0,0.6-1.3,1.1-3.8,1.4
			h-0.5C323.4,319.4,324.1,318.9,325.3,318.5z M328.2,318.5h1c0.6,0,0.9,0.3,0.9,1h-0.9C328.6,319.4,328.3,319.1,328.2,318.5z
			 M221.5,319.9h1.8c0,0.6-0.3,1-1,1C221.8,320.8,221.6,320.5,221.5,319.9z M315.9,319.9h1.9c0,0.6-0.3,1-1,1
			C316.3,320.8,316,320.5,315.9,319.9z M350.9,177.4c-8,0-16.6,5.8-25.8,17.3l-1.8-0.4l0.5-0.9v-1.7h-0.9v-2.3l-4.5-3.9h-1.3
			c-0.5,0-2,1.6-4.4,4.9c-2,0-5,12.4-8.9,37.3v0.8c0,2.3,0.7,3.9,2.2,4.5c3.5,4.8,6.7,8.3,9.8,10.6h0.9l1.3-0.9c1.2-5,2.1-8,2.7-8.9
			c0.7-3.9,2.2-6.7,4.5-8.4c0.5,0,3.6-4.4,9.3-13.3c6.9-9.8,13.5-15.7,19.6-17.8h0.8c0,0.3-0.1,0.4-0.4,0.4c0,0.3,0.1,0.8,0.4,1.4
			c-2.9,8.4-5.9,16.3-8.8,23.6v1.7c1.7,3.3,3.6,5.4,5.8,6.2c0,0.3-0.2,0.7-0.5,1.3c1.4,1.8,2.3,2.7,2.7,2.7l3.2,2.2l2.2-2.2
			c0-0.7-0.2-1.2-0.5-1.8c2.4-6.7,3.8-11.7,4.4-15c0.3,0,0.8,0.1,1.4,0.4c0.4,0,2.4-2.5,6.2-7.5c2.4-1.8,3.6-3,3.6-3.6
			c5.9-6.8,11-10.2,15.1-10.2l0.8,0.5c0,7.9-2.7,16.6-8,26.2c-6.8,11.9-10.2,18.6-10.2,20c0.5,0.9,0.9,1.3,1.3,1.3l0.9-0.4l4.5,4.9
			c1.2-0.4,1.7-0.9,1.7-1.4l-0.4-0.8c1.3,0,2.2-0.3,2.6-0.9c1,0,2-1.4,3.1-4c2.5-7.7,4.2-11.5,5.4-11.5l-0.9-1.7
			c1.6-1.5,3.6-5.8,5.8-13c2.4-1.6,3.9-4.3,4.4-8.4l-0.9-1.4c0-0.5,0.3-0.7,0.9-0.8c-0.3-3.4-1-6.3-2.2-8.4v-2.7
			c-0.3,0-0.8-0.2-1.4-0.5c0-0.3,0.2-0.4,0.5-0.4c0-1.2-0.9-3.4-2.7-6.7c-2.5-2.1-5.7-3.5-9.8-4l-2.3,0.5l-1.3-0.9v0.4
			c-5.6,1.5-11.1,5.2-16.5,11.1c-1,0-1.6-1.6-1.8-4.9c-2.4-1.1-3.6-2.5-3.6-4.4C357.8,178.8,354.8,177.4,350.9,177.4L350.9,177.4z
			 M289.8,178c-10,0-19.2,4.3-27.7,12.9c-2.8,2.1-4.2,3.6-4.2,4.6c-3.4,5.4-5.1,8.5-5.1,9.2h-0.5v-2.3c0-1.2,0.5-2.5,1.4-3.7
			c0-3.5,4-8.4,12-14.7c0-0.5-0.3-0.9-1-1l-3.2,2.3c-8.3,8.2-12.4,15.5-12.4,22.1v5.5c0,2.5,1.1,6.8,3.2,12.9c2.1,4.5,3.2,7,3.2,7.8
			c3.6,5.8,7.5,8.8,11.6,8.8v0.5h-1v0.9c0.8,1.5,2.9,2.3,6.4,2.3c7.6,0,13.6-2.1,18-6.1c-0.4,0-0.8-0.1-1.4-0.4
			c-0.3,0-0.8,0.1-1.4,0.4h-0.5l2.4-1.8v-0.5H287c0-0.5,0.3-0.9,0.8-1l-0.8-1.3v-0.5c0.2,0,2.2-0.9,5.9-2.8v-0.9
			c-0.9,0-2.5,0.5-4.6,1.4h-0.5v-0.5c1.4,0,2.5-0.9,3.3-2.7c0-0.3-0.2-0.8-0.5-1.4l0.5-0.9c0-0.3-0.4-0.4-1.4-0.4
			c0-0.3,0.2-0.5,0.5-0.5l-0.5-1l-3.2,0.5v-1l2.7-0.9v-0.9h-1c-8.6,2.8-14.5,4.1-17.5,4.1c-9.9,0-14.8-3.7-14.8-11.1
			c0.3-5.8,1.3-10.5,3.2-13.8h1.4c0,1.2,0.8,2.8,2.4,5.1c4.1,2.1,6.6,3.6,7.4,4.6c7.9,0,12.6-0.6,14.2-1.8c0.5,0.3,1.2,0.4,1.9,0.4
			l2.3-0.4v0.4h-1v1.4h1.4c5.2-1.9,7.8-3.1,7.8-3.7V208c-1.4,0-3,0.6-5.1,1.8c-0.5,0-0.8-0.3-0.9-1v-0.5c1.6,0,4.4-1.8,8.3-5.5
			c2.8-1.4,5.3-5.2,7.4-11.5c0-0.3-0.2-0.5-0.5-0.5c-1.3-5.2-2.4-7.8-3.2-7.8h-0.5c-0.3,1.8-1.1,3.3-2.4,4.6
			c-10.5,9.2-20.8,13.8-30.8,13.8c-2.6,0-5.2-0.4-7.9-1.4c0-2.4,3.4-6.1,10.1-11.1c5.6-3.3,13.6-5.8,24-7.4c0,0.3,1.8,0.6,5.5,1
			l0.5-1C300.6,179.6,296.7,178.3,289.8,178L289.8,178z M279.8,53.8c-7.8,1.5-13.4,4.4-17,8.5c-9.3,10.1-14.3,19.5-15.1,28.3l0.4,1
			l-0.4,1c0,2.7,1.4,7.6,4.3,14.6c4.8,9.8,10.9,14.7,18.4,14.7h0.5c6.8,0,13.3-3,19.3-9c0-0.7,0.8-1.6,2.4-2.8l-0.5-1
			c1,0,1.5-0.3,1.5-1c4.4-5.4,6.5-8.4,6.5-9h-2.3v-0.5c1.9-3.5,3-5.2,3.3-5.2l-1-1.4v-0.5c1.5,0,2.9-6.1,4.3-18.4v-0.5
			c-0.6-0.7-0.9-1.6-0.9-2.8c-3.3-7.3-6.2-10.9-8.5-10.9c-2.1-2.1-5.2-3.7-9.5-5.1l-2.9,0.5h-0.5L279.8,53.8L279.8,53.8z
			 M155.5,178.3c-7.8,1.5-13.4,4.4-17,8.5c-9.3,10.1-14.3,19.5-15.1,28.3l0.5,1l-0.5,1c0,2.7,1.4,7.6,4.3,14.6
			c4.8,9.8,10.9,14.7,18.4,14.7h0.5c6.8,0,13.3-3,19.3-9c0-0.7,0.8-1.6,2.4-2.8l-0.5-1c1,0,1.5-0.3,1.5-1c4.4-5.4,6.5-8.4,6.5-9
			h-2.4v-0.5c1.9-3.5,3-5.2,3.4-5.2l-1-1.4V216c1.5,0,2.9-6.1,4.3-18.4v-0.5c-0.6-0.7-1-1.6-1-2.8c-3.3-7.3-6.2-10.9-8.5-10.9
			c-2.1-2.1-5.2-3.7-9.4-5.1l-2.9,0.5h-0.5L155.5,178.3L155.5,178.3z M235.5,180.8c-1.5,0-4.3,0.5-8.6,1.4v1c3.2-0.3,6-0.8,8.6-1.4
			V180.8z M234.2,186.2h1.8v0.4c-1.8,8.1-3.2,12.2-4,12.2c-13.7,21.6-26.5,32.5-38.4,32.5l-1-0.4c0-0.2,0.2-1.1,0.5-2.7
			c2-5.1,3.9-8.7,5.9-10.8c0.7-3.3,1.3-5,1.8-5c1-1.8,1.7-2.7,2.2-2.7c0-2.1,0.9-3.5,2.7-4.5l-0.5-0.9c0.3,0,0.5-0.2,0.5-0.5v-1.3
			h-0.5l-2.3,1.8h-0.5v-0.9c4.7-4.9,9.9-8.8,15.8-11.7C224.5,188,229.8,186.2,234.2,186.2L234.2,186.2z M290.3,61.9h1.4
			c1.6,1,2.4,1.6,2.4,1.8c3.3,1.5,5.9,4.5,7.6,9h-0.5c0,0.3,0.2,0.8,0.5,1.4c0,1.2-1.3,1.8-3.8,1.8c-1.7,5-5.4,11-11.3,18
			c-8.3,7.9-15,11.8-19.9,11.8h-2.4c-3.8,0-6-2.4-6.6-7.1c0-2.1,2.3-7.9,7.1-17.4v-0.5h-0.5c-1.9,1.3-2.8,2.8-2.8,4.2H261v-0.5
			c4.1-9.1,9.6-15.5,16.5-19.3l1,0.5c1.8-0.6,3.4-1,4.7-1C284.4,62.8,286.7,61.9,290.3,61.9L290.3,61.9z M165.9,186.3h1.4
			c1.6,1,2.4,1.6,2.4,1.8c3.3,1.5,5.9,4.5,7.6,9h-0.5c0,0.3,0.2,0.8,0.5,1.4c0,1.2-1.3,1.8-3.9,1.8c-1.7,5-5.4,11-11.3,18
			c-8.3,7.9-15,11.8-19.9,11.8H140c-3.8,0-6-2.4-6.7-7.1c0-2.1,2.4-7.9,7.1-17.4v-0.5H140c-1.9,1.3-2.8,2.8-2.8,4.2h-0.5v-0.5
			c4.1-9.1,9.6-15.5,16.5-19.3l0.9,0.5c1.8-0.6,3.4-1,4.7-1C160,187.2,162.3,186.3,165.9,186.3L165.9,186.3z M229.1,331.5h1.4
			c1.6,1,2.4,1.6,2.4,1.8c3.3,1.5,5.9,4.5,7.6,9H240c0,0.3,0.2,0.8,0.5,1.4c0,1.2-1.3,1.8-3.8,1.8c-1.7,5-5.4,11-11.3,18
			c-8.3,7.9-15,11.8-19.9,11.8h-2.4c-3.8,0-6-2.4-6.6-7.1c0-2.1,2.3-7.9,7.1-17.4v-0.5h-0.5c-1.9,1.3-2.8,2.8-2.8,4.2h-0.5v-0.5
			c4.1-9.1,9.6-15.5,16.5-19.3l1,0.5c1.8-0.6,3.4-1,4.7-1C223.2,332.5,225.5,331.5,229.1,331.5L229.1,331.5z M107.9,188.2h0.4v0.7
			h-1.1C107.3,188.6,107.5,188.3,107.9,188.2z M98.2,190v0.7h1.1V190H98.2z M88.7,194.2h0.7v0.4c-0.5,0.6-0.7,1.1-0.7,1.7h-0.4v-0.7
			L88.7,194.2z M87.3,198h0.4v0.4l-0.7,2.1h-0.4v-1.1C87.1,198.8,87.3,198.4,87.3,198L87.3,198z M86.6,200.8v0.3
			c0,0.5-0.2,0.8-0.7,0.8v-0.4C85.9,201.1,86.1,200.9,86.6,200.8L86.6,200.8z M85.9,202.2c-0.1,1.7-0.5,2.5-1,2.5
			C85.1,203,85.5,202.2,85.9,202.2z M84.5,205.3h0.4v0.7c-1.4,3.3-2.1,5.3-2.1,5.9h-0.7L84.5,205.3z M301.1,81.7v0.5
			c0,0.6-0.3,0.9-1,0.9v-0.5C300.1,82,300.5,81.7,301.1,81.7z M176.8,206.1v0.5c0,0.6-0.3,0.9-1,0.9V207
			C175.8,206.5,176.2,206.2,176.8,206.1z M240,351.3v0.5c0,0.6-0.3,0.9-1,0.9v-0.5C238.9,351.7,239.3,351.4,240,351.3z M83.8,212.7
			h0.4v0.4c0,0.7-0.3,1.1-0.7,1.1L83.8,212.7z M224.7,213.3h0.5v0.9h-1.4C223.8,213.7,224.1,213.4,224.7,213.3z M80.7,214.4h0.7
			l-0.3,1.8h-0.7L80.7,214.4z M80.3,216.9c-0.5,2.5-1.1,3.9-1.7,4.5c-1.2,3.7-2.6,7.4-4.5,11.2h-0.4v-0.3
			C77,223.3,79.2,218.1,80.3,216.9L80.3,216.9z M65.3,229.4v1.1l-0.7-0.3C64.6,229.8,64.8,229.5,65.3,229.4z M63.5,231.6
			c-0.4,1.7-0.7,2.6-0.7,2.7l-0.8-0.3C62.7,232.4,63.2,231.6,63.5,231.6L63.5,231.6z M73.7,233.3c-1.2,3.3-2.1,4.9-2.5,4.9
			C72.1,235,72.9,233.3,73.7,233.3z M70.6,238.5h0.7l-0.3,2.5h-0.4c0-0.5-0.1-1-0.4-1.4C70.4,239.6,70.6,239.2,70.6,238.5z
			 M64.2,241.1c-0.2,0-0.3,0.1-0.3,0.3v0.3C64.1,241.5,64,241.3,64.2,241.1z"/>
	</g>
</g>
</svg>
