<?xml version="1.0" encoding="UTF-8" standalone="no"?>
<svg
   xmlns:dc="http://purl.org/dc/elements/1.1/"
   xmlns:cc="http://creativecommons.org/ns#"
   xmlns:rdf="http://www.w3.org/1999/02/22-rdf-syntax-ns#"
   xmlns:svg="http://www.w3.org/2000/svg"
   xmlns="http://www.w3.org/2000/svg"
   version="1.1"
   id="Capa_1"
   x="0px"
   y="0px"
   viewBox="0 0 183.42619 27.486055"
   enable-background="new 0 0 81 100"
   xml:space="preserve"
   width="183.42619"
   height="27.486055"><metadata
     id="metadata10"><rdf:RDF><cc:Work
         rdf:about=""><dc:format>image/svg+xml</dc:format><dc:type
           rdf:resource="http://purl.org/dc/dcmitype/StillImage" /><dc:title></dc:title></cc:Work></rdf:RDF></metadata><defs
     id="defs8" /><g
     style="fill:#ffffff"
     id="layer1"
     transform="translate(41.143514,-35.610846)"><g
       style="fill:#ffffff"
       id="flowRoot4284"
       transform="matrix(1.7141959,0,0,1.7141959,-86.109024,49.667252)"><path
         id="path4383"
         d="m 111.03547,-7.8343725 c -0.4,0.2 -0.6,0.6 -0.9,1.1 -0.3,0.7 -0.8,1.6 -1.4,2.7 -1.6,0 -3.2,-0.3 -4.9,-0.7 -0.7,-0.5 -1.1,-0.7 -1.2,-0.7 -0.1,0.1 -0.2,0.1 -0.2,0.2 l 0,0.1 c 0,0.3 0.1,0.5 0.2,0.6 0.4,0.8 0.7,1.4 0.9,1.5 0,0.5 1.2,1 3.7,1.4 l 0,0.1 -2,3.8 c -1,2.4 -1.5,3.7 -1.5,4.1 l 0,0.4 c 0.6,0.3 0.9,0.5 0.9,0.6 l 0.1,-0.1 c 0.1,-0.6 0.4,-1.1 0.6,-1.5 l -0.1,0 c 0,-0.1 0.1,-0.2 0.4,-0.5 l 0,-0.2 c -0.1,0 -0.1,0.1 -0.1,0.2 l -0.1,0 0,-0.1 c 0,-0.1 0.1,-0.2 0.1,-0.3 0.2,-0.4 0.4,-0.6 0.5,-0.6 0,0 0,-0.1 -0.1,-0.2 l 0.1,-0.3 0.1,0.1 0.1,0 0,-0.1 -0.1,-0.1 0.1,-0.1 c 0,0 0,-0.1 -0.1,-0.2 0,-0.1 0.1,-0.2 0.2,-0.5 0.2,-0.1 0.3,-0.3 0.3,-0.5 0.2,-0.2 0.4,-0.4 0.4,-0.6 0.7,-1.09999999 1,-1.69999999 1,-1.79999999 l -0.1,0 0,-0.3 0.1,0 0,0.1 0.1,0 c 0.1,0 0.1,0 0.1,-0.1 l 0,-0.1 c 0,0 -0.1,0 -0.2,-0.1 l 0.2,-0.2 0.1,0.1 0.2,-0.1 c 0.2,-0.60000001 0.4,-0.90000001 0.4,-0.90000001 l 0.4,0 c 0.1,0 0.2,0 0.2,0.1 0.1,0 0.2,-0.1 0.3,-0.1 l 2,0 c 0.6,0 0.8,-0.1 1.3,-0.1 -1,0.2 -1.7,0.6 -2.2,1.10000001 -1.2,1.3 -1.9,2.59999999 -2,3.69999999 l 0.1,0.1 -0.1,0.1 c 0,0.4 0.2,1 0.6,1.9 0.6,1.3 1.4,1.9 2.4,1.9 l 0.1,0 c 0.9,0 1.7,-0.4 2.5,-1.2 0,-0.1 0.1,-0.2 0.3,-0.4 l -0.1,-0.1 c 0.1,0 0.2,0 0.2,-0.1 0.6,-0.7 0.9,-1.1 0.9,-1.2 l 0,0 0,-0.1 c 0.2,-0.5 0.4,-0.7 0.4,-0.7 l -0.1,-0.2 0,-0.1 c 0.2,0 0.4,-0.8 0.6,-2.39999999 l 0,-0.1 c -0.1,-0.1 -0.1,-0.2 -0.1,-0.4 -0.4,-1 -0.8,-1.40000001 -1.1,-1.40000001 -0.3,-0.3 -0.7,-0.5 -1.2,-0.7 l -0.5,0.5 0,0 -0.3,-0.1 c 1.9,-0.2 3.2,-0.4 3.2,-0.5 l 0.1,0.1 0.1,-0.1 0,0.1 c 0.2,0 0.4,-0.1 0.4,-0.1 0.6,0.2 1.4,0.4 2.4,0.5 l 0,0.1 -2,3.8 c -1,2.4 -1.5,3.7 -1.5,4.1 l 0,0.4 c 0.6,0.3 0.9,0.5 0.9,0.6 l 0.1,-0.1 c 0.1,-0.6 0.4,-1.1 0.6,-1.5 l -0.1,0 c 0,-0.1 0.1,-0.2 0.4,-0.5 l 0,-0.2 c -0.1,0 -0.1,0.1 -0.1,0.2 l -0.1,0 0,-0.1 c 0,-0.1 0.1,-0.2 0.1,-0.3 0.2,-0.4 0.4,-0.6 0.5,-0.6 0,0 0,-0.1 -0.1,-0.2 l 0.1,-0.3 0.1,0.1 0.2,0 0,-0.1 0,-0.1 0.1,-0.1 c 0,0 0,-0.1 -0.1,-0.2 0,-0.1 0.1,-0.2 0.3,-0.5 0.2,-0.1 0.3,-0.3 0.3,-0.5 0.2,-0.2 0.4,-0.4 0.4,-0.6 0.7,-1.09999999 1,-1.69999999 1,-1.79999999 l -0.1,0 0,-0.3 0.1,0 0,0.1 0,0 c 0.1,0 0.1,0 0.1,-0.1 l 0,-0.1 c 0,0 -0.1,0 -0.2,-0.1 l 0.2,-0.2 0.1,0.1 0.2,-0.1 c 0.2,-0.60000001 0.4,-0.90000001 0.4,-0.90000001 l 0.4,0 c 0.1,0 0.2,0 0.3,0.1 0.1,0 0.1,-0.1 0.2,-0.1 l 2,0 c 3,-0.3 4.5,-0.5 4.5,-0.6 l 0.1,0.1 0.1,-0.1 0,0.1 c 0.3,0 0.4,-0.1 0.4,-0.2 l 0.1,0.1 c 0.1,0 0.1,0 0.1,-0.1 0.1,0 0.3,0 0.7,0.1 0,0 0.1,-0.1 0.1,-0.2 l 0.5,0 c 0.2,-0.1 0.3,-0.2 0.3,-0.3 l 0,-0.1 c 0,0 -0.1,0 -0.2,0.1 0,0 -0.3,-0.1 -0.7,-0.2 l -0.1,0 0.4,0.1 c -0.1,0 -0.2,0 -0.3,0.1 l 0.1,0.1 0,0.1 -0.3,0 c -0.1,-0.1 -0.3,-0.2 -0.4,-0.2 0,0.1 0,0.1 -0.1,0.1 l -0.2,0 -0.2,-0.1 0.1,0.3 c 0,0 -0.1,0 -0.2,0.1 0,0 0,-0.1 -0.1,-0.1 0,0 0,-0.1 0.1,-0.2 0,-0.1 0,-0.2 -0.1,-0.3 l 0.1,0 0,-0.2 -0.3,0 -0.3,0.1 0,0.1 0.1,0.1 c 0,0 0.1,0 0.2,-0.1 l 0.1,0 0,0.2 -0.1,0 -0.3,-0.1 0,0.1 -0.2,0 c 0,-0.1 0,-0.2 -0.1,-0.3 l 0.3,0 0,-0.1 -0.1,0 -0.4,0.1 -0.1,0 c 0,-0.1 0.6,-0.2 1.8,-0.3 l -0.1,0 0,-0.1 -0.2,0 0,-0.1 0.4,0 0.1,-0.1 0,0.1 c 0.6,0 1.2,-0.1 1.9,-0.2 l 0.1,0 0,-0.1 -0.3,0 0,-0.1 0.5,0 0,0.1 c 0,-0.1 -0.1,-0.1 -0.4,-0.2 l 0,0.1 -0.3,-0.1 -0.1,0 0,0.1 -0.1,0 -0.3,-0.1 c 0,0.1 -0.1,0.1 -0.1,0.2 l -0.2,0 0,-0.1 -0.1,0 -0.2,0.1 0,-0.1 c -0.1,0 -0.4,0.1 -1,0.2 -0.1,0 -0.2,-0.1 -0.3,-0.1 l 0.1,-0.1 -0.1,-0.2 1,-0.1 0.1,0 0,0.1 c -0.2,0 -0.3,0.1 -0.4,0.2 l 0.4,-0.1 0.3,0.1 c 0,0 0.1,0 0.2,-0.1 l 0.1,0.1 0.1,-0.1 c 0,0 0,-0.1 -0.1,-0.1 0,-0.1 0,-0.1 0.1,-0.1 l -0.1,-0.1 0.2,0 c 0,0 0,0.1 0.1,0.2 l -0.2,0 0,0.1 0.2,0 c 0.1,0 0.1,0 0.1,-0.1 l 0,-0.1 -0.1,0 0,-0.1 c 0,-0.1 0.7,-0.2 2,-0.4 l 0,-0.1 -0.2,0 0,-0.1 0.1,0 0,-0.1 c -3.7,0.5 -6.6,0.9 -8.8,1.1 l -1.2,0 0,-0.1 c 0.5,-0.9 0.9,-1.6 1.1,-2.1 l -0.1,0 0,-0.2 c 0,0 0,-0.1 -0.1,-0.2 0,0 0.1,0 0.1,-0.1 l 0,-0.2 c -0.1,-0.7 -0.3,-1 -0.7,-1 -0.4,0.2 -0.6,0.6 -0.9,1.1 -0.3,0.7 -0.7,1.6 -1.4,2.7 l -0.4,0 0,0 -0.6,-0.1 -0.1,0 c -0.4,0 -0.8,0 -1.2,-0.1 l 0,-0.1 0,0 0,-0.1 c 0,-0.1 0.7,-0.2 2,-0.4 l 0,0 -0.2,0 0,-0.1 0.1,0 0,-0.1 c -1.3,0.2 -2.4,0.3 -3.5,0.5 -0.3,-0.1 -0.6,-0.1 -1,-0.2 -0.7,-0.5 -1.1,-0.7 -1.2,-0.7 -0.1,0.1 -0.2,0.1 -0.2,0.2 l 0,0.1 c 0,0.3 0.1,0.5 0.3,0.6 0.1,0.1 0.1,0.2 0.1,0.3 -1.2,0.1 -2.4,0.3 -3.3,0.4 l -1.2,0 0,-0.1 c 0.5,-0.9 0.9,-1.6 1.1,-2.1 l -0.1,0 0,-0.2 c 0,0 0,-0.1 -0.1,-0.2 0,0 0.1,0 0.1,-0.1 l 0,-0.3 c -0.1,-0.6 -0.3,-1 -0.7,-1 z m -78.804215,0.368745 c -0.4,0.1 -0.6,0.3 -0.6,0.6 -1.1,3 -1.8,4.5 -1.9,4.5 -0.6,0 -1.2,-0.1 -1.8,-0.4 -0.2,0 -0.4,0.1 -0.5,0.3 0.2,1.4 0.6,2.19999999 1.2,2.29999999 0,0.2 -0.1,0.4 -0.2,0.8 l -0.7,1.70000001 0.1,0.1 -0.1,0 c -0.2,0.5 -0.4,0.8 -0.5,1 0,0.4 -0.1,0.7 -0.4,1 0,0 0,0.1 0.1,0.2 -0.5,1.1 -0.7,1.8 -0.7,2.1 0.2,0.5 0.4,0.7 0.5,0.7 l 0,0 c 0,0 0.1,-0.1 0.2,-0.3 1.1,-2.7 1.9,-4.6 2.6,-6 0.2,-0.70000001 0.4,-1.00000001 0.6,-1.00000001 0,0.1 1.5,0.2 4.4,0.2 0.7,0 1.1,-0.1 1.2,-0.1 0,0 0,0.1 0.1,0.1 -0.3,0.6 -0.6,1.30000001 -0.8,1.90000001 -0.6,1.4 -1.1,2.8 -1.4,4.3 l 0.1,0.2 0,0.2 -0.1,0.3 c 0,0.1 0.1,0.2 0.2,0.2 l 0,0.3 c 0,0.1 0,0.1 0.1,0.1 l 0.1,0 0.2,-0.2 c 1,-2.7 1.7,-4.8 2.4,-6.2 0.3,-0.90000001 0.5,-1.40000001 0.7,-1.40000001 l 0,-0.3 c 0.1,-0.5 0.9,-2.39999999 2.3,-5.99999999 -0.2,-0.2 -0.4,-0.4 -0.6,-0.5 l -0.1,0 c -0.2,0 -0.6,0.6 -1,1.8 -0.5,1.7 -1,2.8 -1.4,3.3 l -0.1,-0.1 c 0,-0.1 0,-0.1 0.1,-0.1 l 0,-0.1 c 0,-0.1 -0.8,-0.2 -2.4,-0.2 l 0,0.1 0,-0.1 c -0.4,0 -1.3,-0.1 -2.9,-0.2 0,-0.3 0.1,-0.7 0.4,-1.2 0.9,-2.3 1.4,-3.6 1.4,-3.7 0,0 -0.1,-0.1 -0.4,-0.3 l -0.4,0.1 z M 58.6,-8.2 c -0.9,0 -1.7,0.1 -2.5,0.2 -1.5,0.3 -2.2,0.5 -2.2,0.6 0,0.5 0.3,0.9 1,1.2 l 0,0 c 0.1,0 0.5,-0.1 1.2,-0.2 l 0,0 c -0.2,0.9 -1,3 -2.2,6.4 -1.6,4 -2.4,6 -2.4,6.1 l 0.1,0 c 0.2,-0.5 0.3,-0.7 0.5,-0.7 l 0,0 0.1,0 C 52.1,5.8 52,6.1 52,6.2 l 0,0 C 52.1,6.1 52.2,6 52.2,5.9 l 0,0 0,0.3 c 0.1,-0.1 0.2,-0.3 0.2,-0.4 l 0.1,0 0,0.2 c 0,0.1 0,0.3 -0.1,0.6 l 0,0 0,0 0.2,-0.2 0,0.2 -0.1,0.1 0,0.1 c 0,0 0.2,-0.2 0.5,-0.6 l 0.1,0 -0.1,0.5 0,0.1 c 0.2,-0.1 0.2,-0.2 0.2,-0.3 l 0,0 c 0.1,0 0.1,-0.1 0.2,-0.2 0,-0.1 0,-0.1 -0.1,-0.1 C 53.3,6 53.4,6 53.4,6 l 0,0 c 0,0 0.1,-0.2 0.3,-0.7 l 0,-0.2 c 0.4,-1 0.6,-1.5 0.6,-1.6 l 0.1,0 0.1,0 c 0,-0.1 0,-0.1 -0.1,-0.1 0.2,-0.3 0.2,-0.6 0.2,-0.6 l 0.1,0 0,0.2 0.1,0 C 55,2.6 55,2.4 55,2.3 l 0,-0.1 0,0 0,0.1 0,0 0,-0.1 C 55,2 55.1,2 55.2,2 l -0.1,0 0.1,-0.2 0,0 0,0 0,0.1 0,0 0.1,0 0,-0.2 0,-0.2 0,0 0,0 0,0.1 c 0,0 0.1,-0.1 0.1,-0.2 l -0.1,-0.1 0,0 0.1,0 0,0 c 0,-0.1 0,-0.2 0.1,-0.4 l 0.1,0 0,-0.1 0,0 c 0.2,-0.6 0.4,-1.1 0.5,-1.3 l 0,-0.1 -0.1,0 0.2,-0.3 0,0 -0.1,0 c 0,-0.2 -0.1,0 -0.1,0.2 l 0,0 0,0 c 0,-0.1 0.1,-0.2 0.2,-0.6 l 0.2,0 0,0 0,-0.1 0.2,-0.3 0,0 c -0.2,0 -0.3,0.1 -0.3,0.4 l 0,0 0,-0.1 0.1,-0.4 c 0.2,0 0.4,-0.5 0.6,-1.4 l -0.1,0 c 0,0 0,0.2 -0.1,0.4 l -0.1,0 0,-0.2 c 0.1,-0.2 0.1,-0.2 0.2,-0.2 0.1,-0.8 0.2,-1.1 0.3,-1.1 0.1,0 0.2,-0.3 0.4,-0.9 0.3,-0.3 0.4,-0.6 0.4,-1 l 0,-0.1 -0.1,-0.1 0,-0.2 0.2,0 0.2,0 0.7,0 0.1,0 0,0 c 0.4,0 1,0.2 1.5,0.6 0.6,0.2 0.8,0.5 0.8,0.8 l 0,0.2 c 0,0.7 -0.5,1.5 -1.6,2.6 -0.9,0.8 -2.1,1.3 -3.5,1.7 l 0,0.1 0.1,0 c 0.1,-0.1 0.3,-0.1 0.8,-0.2 l 0,0.1 0.5,-0.1 0,0 0,0.1 c -0.2,0 -0.4,0.1 -0.4,0.2 l 0,0 0.1,0 0.1,0 c 0,0 0,0.1 0.1,0.1 l 0.1,0 c 0,0.1 0,0.1 0.1,0.1 l 0.1,-0.1 0,0 0.1,0.1 0,-0.1 0.2,0 0.1,0 0,0.1 0.1,0 0,-0.1 -0.1,0 0,0 c 0.1,0 0.2,0 0.5,-0.1 0,0.1 0.1,0.2 0.2,0.3 l 0,0 c 0.2,-0.1 0.3,-0.2 0.3,-0.2 0.5,-0.1 0.7,-0.3 0.7,-0.4 l 0,0 c 0.3,-0.1 0.7,-0.5 1.2,-1 C 61.6,-2.3 61.8,-3 62,-4 l 0,-0.3 0,-0.9 c 0,-0.4 -0.2,-0.9 -0.6,-1.5 -0.3,-1 -1.4,-1.5 -2.8,-1.5 z m 18.3,0 c -0.2,0.3 -0.8,2.5 -1.8,6.8 l -0.5,0 c -0.5,0 -1.3,0.3 -2.5,0.8 l -0.1,0 0,-0.1 c 0.6,-0.3 0.9,-0.5 0.9,-0.5 0,0 0.1,0 0.1,0.1 0.2,0 0.3,-0.1 0.3,-0.2 l 0,-0.1 c -0.1,0 -0.3,0 -0.5,0.1 0,0 -0.2,0 -0.5,-0.1 -1.2,0.6 -2.1,1.2 -2.9,2 -1,1.1 -1.5,2.1 -1.5,3 l 0,0.4 c 0,0.2 0.2,0.6 0.5,1.3 0.3,1 0.7,1.5 1.4,1.5 l 0.5,0 c 0.1,0 0.2,0 0.4,-0.1 C 71.2,6.8 72,6.2 73,5 l 0,-0.1 0,0 c -0.1,0 -0.1,0 -0.1,0.1 l -0.2,0 c 0,-0.1 0.4,-0.7 1.3,-1.6 l 0,1.2 c 0,0.6 0.3,1.3 1,2.1 0.1,0 0.1,-0.1 0.2,-0.4 L 75,5.5 75,4.6 75.5,1.9 c 0.4,-1.9 0.6,-3 0.8,-3.4 l 0,-0.1 -0.1,-0.1 c 0.1,-0.2 0.2,-0.3 0.2,-0.5 0.3,-1.7 0.5,-2.6 0.6,-2.7 l 0,-0.1 0,0 0,-0.1 0.2,0 -0.1,-0.2 c 0.2,-1.1 0.4,-1.8 0.4,-1.9 -0.2,-0.2 -0.2,-0.5 -0.2,-0.8 l -0.1,0 -0.2,0.1 -0.1,-0.3 0,0 z m 43.13547,3.6656275 -0.6,0.1 0,0.1 c 0.1,0 0.2,0 0.2,0.1 0.3,0 0.4,-0.1 0.4,-0.3 0,0.1 0,0.1 0,0 z m 12.4,0 -0.6,0.1 0,0.1 c 0.1,0 0.2,0 0.3,0.1 0.2,0 0.4,-0.1 0.3,-0.3 0.1,0.1 0,0.1 0,0 z m -13.9,0.2 0.2,0 0,0.1 c 0,0 -0.1,0 -0.2,-0.1 z m 14.1,0.2 -0.3,0.1 0,0.1 0.1,0.1 c 0.2,0 0.4,0 0.6,-0.1 0,0 0,0.1 0.1,0.1 l 0.1,0 0,-0.1 z m 0,0.3 0,0.1 0.2,0 0,-0.1 z m -17.2,0.1 0,0 0.2,0.2 c -0.2,-0.1 -0.3,-0.1 -0.4,-0.1 0.1,0 0.1,-0.1 0.2,-0.1 z m 12.5,0 0.1,0 0.1,0.1 c 0,0 0,-0.1 0.1,-0.1 l 0.3,0 c 0.1,0 0.1,0 0.1,0.1 -0.2,0 -0.3,0 -0.4,0.1 -0.2,-0.1 -0.4,-0.1 -0.4,-0.1 -0.1,0 0,-0.1 0.1,-0.1 z m -13.4,0.1 0.1,0 c 0.1,0 0.1,0.1 0.2,0.2 l -0.3,0.1 0,-0.3 z m 12.4,0 0.1,0 c 0.1,0 0.1,0.1 0.2,0.2 l -0.3,0.1 0,-0.3 z m 3.6,0 0.3,0 0,0.1 c -0.1,0 -0.3,0 -0.5,0.1 l -0.1,0 0,-0.1 z m 1.1,0.2 0,0 c 0,0.1 0,0.2 0.1,0.2 l 0.1,0 c 0.1,0 0.1,0 0.1,-0.1 l 0,-0.1 -0.3,0 z m -15.9,0.2 c 0,0 0,0.1 0.1,0.1 l 0,0.1 -0.4,0 0,-0.1 c 0.1,-0.1 0.2,-0.1 0.3,-0.1 z m 12.4,0 c 0,0 0,0.1 0.1,0.1 l 0,0.1 -0.4,0 0,-0.1 c 0.1,-0.1 0.2,-0.1 0.3,-0.1 z m 0.3,0 0.4,0 0,0.1 -0.4,-0.1 z m 2.1,0 -0.1,0.1 0.1,0.1 0.1,-0.1 z m -15.8,0.1 0,0 c 0.1,0.1 0.2,0 0.2,0 l 0.4,0 0,0.1 c -0.2,0 -0.4,0 -0.6,0.1 l -0.1,0 0.1,-0.2 z m 12.4,0 c 0,0 0.1,0 0,0 0.1,0.1 0.2,0 0.3,0 l 0.4,0 0,0.1 c -0.2,0 -0.4,0 -0.6,0.1 l -0.1,0 z m -11.1,0.1 0,0 c 0,0.1 0.1,0.2 0.2,0.3 l 0,0 0,0.1 -0.3,0 c 0,-0.1 0,-0.2 -0.1,-0.3 l 0.2,0 0,-0.1 0,0 -0.4,0.1 -0.1,0 c 0.1,0 0.2,-0.1 0.5,-0.1 z m -0.8,0.1 0.2,0 c 0,0.1 0,0.1 -0.1,0.1 l -0.1,0 z m 12.4,0 0.2,0 c 0,0.1 0,0.1 -0.1,0.1 l -0.1,0 z m 1.9,0 c -0.1,0 -0.1,0 -0.1,0.1 l 0,0.1 0.2,0 0,-0.1 z m 2.9,0 0,0.1 0.1,0 c 0.1,0 0.1,0 0.1,-0.1 z m -17.7,0.1 c 0.1,0 0.2,0 0.2,0.1 l -0.3,-0.1 -0.2,0 c -0.1,0.1 -0.2,0.1 -0.2,0.2 -0.1,0 -0.2,0 -0.4,-0.1 -0.1,0 -0.2,0 -0.2,0.1 -0.9,0 -1.4,0.1 -1.4,0.3 l -0.3,0 -0.3,-0.1 0,-0.1 3.1,-0.3 z m 12.5,0 c 0.1,0 0.2,0 0.2,0.1 l -0.4,-0.1 -0.2,0 c -0.1,0.1 -0.2,0.1 -0.2,0.2 -0.1,0 -0.2,0 -0.4,-0.1 -0.1,0 -0.2,0 -0.2,0.1 -0.9,0 -1.4,0.1 -1.4,0.3 l -0.3,0 -0.3,-0.1 0,-0.1 3.2,-0.3 z m 3.6,0.1 0.2,0 0,0.1 c 0,0 -0.1,0 -0.2,0.1 l 0,0 z m -20,0.1 c 0.1,0 0.2,0 0.3,0.1 0.1,0 0.1,-0.1 0.2,-0.1 l 0.3,0.1 0,0.1 c 0,0 -0.1,0 -0.2,-0.1 -0.2,0 -0.3,0.1 -0.4,0.1 l -0.2,0 0,-0.2 z m 4.6,0 0,0 c 0.1,0 0.2,0 0.2,0.1 l 0,0.1 -0.3,-0.1 0.1,-0.1 z m 7.9,0 c 0.1,0 0.2,0 0.2,0.1 0.1,0 0.2,-0.1 0.3,-0.1 l 0.3,0.1 0,0.1 c 0,0 -0.1,0 -0.2,-0.1 -0.2,0 -0.3,0.1 -0.4,0.1 l -0.3,-0.1 z m 4.6,0 0,0 c 0.1,0 0.2,0 0.2,0.1 l 0,0.1 -0.3,-0.1 c -0.1,0 0,0 0.1,-0.1 z m -14,0.2 c 0.2,0 0.5,0.1 0.7,0.1 l 0,0.1 -0.6,0.1 -0.1,-0.1 z m 1.9,0 0.4,0.1 c 0,0.1 0,0.1 -0.1,0.1 l -0.2,0 c -0.1,0 -0.1,0 -0.1,-0.2 l 0,0 z m 10.6,0 c 0.2,0 0.4,0.1 0.7,0.1 l 0,0.1 -0.6,0.1 -0.1,-0.1 z m 1.8,0 0.4,0.1 c 0,0.1 0,0.1 -0.1,0.1 l -0.2,0 c 0,0 -0.1,0 -0.1,-0.2 l 0,0 z m -11.5,0 c 0.1,0 0.1,0.1 0.1,0.1 l -0.1,0 c 0.1,0 0.1,0 0,-0.1 0,0.1 0,0 0,0 z m -3.3,0.1 0.1,0.1 0.3,-0.1 0,0.1 c -0.3,0 -0.8,0 -1.4,0.1 l -0.1,-0.1 -0.1,0.1 c -0.1,0 -0.2,0 -0.3,-0.1 l -0.1,0 0,0.2 -0.7,-0.1 c 0,0.1 -0.1,0.1 -0.4,0.1 l 0,-0.2 c 0,0 0.1,0 0.2,-0.1 l 0,0.1 0.9,-0.1 c 0,0 0,0.1 0.1,0.1 0.2,0 0.4,-0.1 0.5,-0.1 0.2,0 0.5,0 0.9,0.1 l 0.1,-0.1 z m 12.4,0 0.1,0.1 0.3,-0.1 0,0.1 c -0.3,0 -0.7,0 -1.4,0.1 l -0.1,-0.1 -0.1,0.1 c -0.1,0 -0.1,0 -0.2,-0.1 l -0.1,0 0,0.2 -0.7,-0.1 c 0,0.1 -0.1,0.1 -0.4,0.1 l 0,-0.2 c 0,0 0.1,0 0.2,-0.1 l 0,0.1 0.9,-0.1 c 0,0 0,0.1 0.1,0.1 0.2,0 0.4,-0.1 0.5,-0.1 0.2,0 0.5,0 0.9,0.1 l 0,-0.1 z m -10.7,0 0,0 c 0.1,0.1 0.2,0 0.3,0 l 0.1,0 c 0,0.1 -0.2,0.1 -0.5,0.2 l -0.2,0 c 0,0 0.1,-0.1 0.3,-0.2 z m 0.3,0 0.1,0 c 0.1,0 0.1,0 0.1,0.1 l -0.1,0 c 0,0.1 -0.1,0 -0.1,-0.1 z m 12.1,0 0,0 c 0.1,0.1 0.2,0 0.3,0 l 0,0 c 0,0.1 -0.2,0.1 -0.5,0.2 l -0.1,0 c 0,0 0.1,-0.1 0.3,-0.2 z m 0.4,0 0.1,0 c 0.1,0 0.1,0 0.1,0.1 l -0.1,0 c -0.1,0.1 -0.1,0 -0.1,-0.1 z m -14.1,0.2 0.2,0 c 0,0.1 0,0.1 -0.1,0.1 0,0.1 -0.1,0 -0.1,-0.1 z m 12.4,0 0.3,0 c 0,0.1 0,0.1 -0.1,0.1 -0.1,0.1 -0.1,0 -0.2,-0.1 z M 90.1,-2.1 c -1.1,0 -2.2,0.8 -3.4,2.3 l -0.2,-0.1 0,-0.1 0,-0.2 -0.1,0 0,-0.3 -0.6,-0.5 -0.2,0 c -0.1,0 -0.3,0.2 -0.6,0.6 -0.3,0 -0.7,1.6 -1.2,4.9 l 0,0.1 c 0,0.3 0.1,0.5 0.3,0.6 0.5,0.6 0.9,1.1 1.3,1.4 l 0.1,0 0.2,-0.1 c 0.2,-0.7 0.3,-1.1 0.4,-1.2 0.1,-0.5 0.3,-0.9 0.6,-1.1 0.1,0 0.5,-0.6 1.2,-1.8 0.9,-1.3 1.8,-2.1 2.6,-2.3 l 0.1,0 0,0.1 0,0.2 c -0.4,1.1 -0.8,2.1 -1.2,3.1 l 0,0.2 c 0.2,0.4 0.5,0.7 0.8,0.8 0,0 0,0.1 -0.1,0.2 0.2,0.2 0.3,0.3 0.4,0.3 L 90.9,5.3 91.2,5 c 0,-0.1 0,-0.2 -0.1,-0.2 0.3,-0.9 0.5,-1.5 0.6,-2 0,0 0.1,0 0.2,0.1 0.1,0 0.3,-0.3 0.8,-1 0.3,-0.2 0.5,-0.4 0.5,-0.5 0.8,-0.9 1.4,-1.3 2,-1.3 l 0.1,0.1 c 0,1 -0.4,2.2 -1,3.5 -0.9,1.6 -1.3,2.4 -1.3,2.6 -0.1,0 0,0 0,0 l 0.1,-0.1 0.6,0.6 c 0.2,-0.1 0.2,-0.1 0.2,-0.2 l 0,-0.1 c 0.2,0 0.3,0 0.3,-0.1 0.1,0 0.3,-0.2 0.4,-0.5 0.3,-1 0.6,-1.5 0.7,-1.5 L 95.2,4.2 C 95.4,4 95.7,3.4 96,2.5 96.3,2.3 96.5,1.9 96.6,1.4 L 96.5,1.2 c 0,-0.1 0,-0.1 0.1,-0.1 0,-0.5 -0.1,-0.8 -0.3,-1.1 l 0,-0.4 c 0,0 -0.1,0 -0.2,-0.1 0,0 0,-0.1 0.1,-0.1 0,-0.2 -0.1,-0.4 -0.4,-0.9 C 95.5,-1.8 95.1,-2 94.5,-2 L 94.2,-1.9 94,-2 l 0,0.1 c -0.7,0.2 -1.5,0.7 -2.2,1.5 -0.1,0 -0.2,-0.2 -0.2,-0.6 -0.3,-0.1 -0.5,-0.3 -0.5,-0.6 -0.2,-0.4 -0.5,-0.5 -1,-0.5 z m -8.1,0 c -1.3,0 -2.5,0.6 -3.6,1.7 -0.4,0.3 -0.5,0.5 -0.5,0.6 -0.4,0.7 -0.7,1.1 -0.7,1.2 l -0.1,0 0,-0.2 c 0,-0.2 0.1,-0.3 0.2,-0.5 0,-0.5 0.5,-1.1 1.6,-1.9 0,-0.1 0,-0.1 -0.1,-0.1 L 78.4,-1 c -1.1,1.1 -1.6,2 -1.6,2.9 l 0,0.7 c 0,0.3 0.1,0.9 0.4,1.7 0.3,0.6 0.4,0.9 0.4,1 C 78,6 78.5,6.4 79,6.4 l 0,0.1 -0.1,0 0,0.1 c 0.1,0.2 0.4,0.3 0.8,0.3 1,0 1.8,-0.3 2.4,-0.8 l -0.2,0 -0.2,0 -0.1,0 0.4,-0.2 0,-0.1 -0.4,0 c 0,-0.1 0,-0.1 0.1,-0.1 l -0.1,-0.2 0,0 c 0,0 0.3,-0.1 0.8,-0.4 l 0,-0.1 c -0.1,0 -0.3,0.1 -0.6,0.2 l -0.1,0 0,-0.1 c 0.2,0 0.3,-0.1 0.4,-0.4 0,0 0,-0.1 -0.1,-0.2 l 0.1,-0.1 c 0,0 -0.1,-0.1 -0.2,-0.1 0,0 0,-0.1 0.1,-0.1 l 0,0 -0.4,0.1 0,-0.2 0.3,-0.1 0,-0.1 -0.1,0 c -1.1,0.4 -1.9,0.5 -2.3,0.5 -1.3,0 -1.9,-0.5 -1.9,-1.5 0,-0.8 0.2,-1.4 0.4,-1.8 l 0.2,0 c 0,0.2 0.1,0.4 0.3,0.7 0.5,0.3 0.9,0.5 1,0.6 1,0 1.7,-0.1 1.9,-0.2 0.1,0 0.2,0.1 0.3,0.1 l 0.3,-0.1 0,0.1 -0.1,0 0,0.2 0.2,0 c 0.7,-0.2 1,-0.4 1,-0.5 l 0,-0.1 c -0.2,0 -0.4,0.1 -0.7,0.2 -0.1,0 -0.1,0 -0.1,-0.1 l 0,-0.1 c 0.2,0 0.6,-0.2 1.1,-0.7 0.4,-0.2 0.7,-0.7 1,-1.5 0,0 0,-0.1 -0.1,-0.1 -0.2,-0.7 -0.3,-1 -0.4,-1 l -0.1,0 c 0,0.2 -0.1,0.4 -0.3,0.6 C 82,0.4 80.7,1 79.3,1 79,1 78.6,0.9 78.3,0.8 c 0,-0.3 0.4,-0.8 1.3,-1.5 0.7,-0.4 1.8,-0.8 3.2,-1 0,0 0.2,0.1 0.7,0.1 l 0.1,-0.1 C 83.4,-1.8 82.9,-2 82,-2.1 Z m -40.968745,0.7343725 c -1,0.2 -1.8,0.59999999 -2.2,1.09999999 -1.2,1.30000001 -1.9,2.60000001 -2,3.70000001 l 0.1,0.1 -0.1,0.1 c 0,0.4 0.2,1 0.6,1.9 0.6,1.3 1.4,1.9 2.4,1.9 l 0.1,0 c 0.9,0 1.7,-0.4 2.5,-1.2 0,-0.1 0.1,-0.2 0.3,-0.4 l -0.1,-0.1 c 0.1,0 0.2,0 0.2,-0.1 0.6,-0.7 0.9,-1.1 0.9,-1.2 l -0.3,0 0,-0.1 c 0.2,-0.5 0.4,-0.7 0.4,-0.7 l -0.1,-0.2 0,-0.1 c 0.2,0 0.4,-0.8 0.6,-2.40000001 l 0,-0.1 c -0.1,-0.1 -0.1,-0.2 -0.1,-0.4 -0.4,-1 -0.8,-1.4 -1.1,-1.4 -0.3,-0.29999999 -0.7,-0.49999999 -1.2,-0.69999999 l -0.4,0.1 -0.2,0 -0.3,0.2 z M 64.3,-2 c -1,0.2 -1.8,0.6 -2.2,1.1 -1.2,1.3 -1.9,2.6 -2,3.7 L 60.2,2.9 60.1,3 c 0,0.4 0.2,1 0.6,1.9 0.6,1.3 1.4,1.9 2.4,1.9 l 0.1,0 c 0.9,0 1.7,-0.4 2.5,-1.2 0,-0.1 0.1,-0.2 0.3,-0.4 l 0,0 c 0.1,0 0.2,0 0.2,-0.1 C 66.7,4.4 67,4 67,3.9 l -0.3,0 0,0 C 66.9,3.4 67.1,3.2 67.1,3.2 L 67,3 67,2.9 c 0.2,0 0.4,-0.8 0.6,-2.4 l 0,0 C 67.5,0.4 67.5,0.3 67.5,0.1 67.1,-0.9 66.7,-1.3 66.4,-1.3 66.1,-1.6 65.7,-1.8 65.2,-2 l -0.5,0 -0.1,0 -0.3,0 z m 10.6,0.3 c -0.2,0 -0.6,0.1 -1.1,0.2 l 0,0.1 c 0.4,0 0.8,-0.1 1.1,-0.2 z m -0.2,0.7 0.2,0 0,0.1 C 74.7,0.2 74.5,0.7 74.4,0.7 72.6,3.5 70.9,5 69.4,5 L 69.3,4.9 c 0,0 0,-0.1 0.1,-0.4 C 69.7,3.8 69.9,3.4 70.2,3.1 70.3,2.7 70.4,2.4 70.4,2.4 70.5,2.2 70.6,2 70.7,2 70.7,1.7 70.8,1.5 71.1,1.4 L 71,1.3 c 0,0 0.1,0 0.1,-0.1 l 0,0 -0.1,0 -0.3,0.2 -0.1,0 0,-0.1 c 0.6,-0.6 1.3,-1.2 2.1,-1.5 0.7,-0.5 1.4,-0.8 2,-0.8 z m -32.268745,0.63437249 0.2,0 c 0.2,0.1 0.3,0.2 0.3,0.2 0.4,0.2 0.8,0.6 1,1.20000001 l -0.1,0 c 0,0 0,0.1 0.1,0.2 0,0.2 -0.2,0.2 -0.5,0.2 -0.2,0.7 -0.7,1.4 -1.5,2.4 -1.1,1 -2,1.5 -2.6,1.5 l -0.3,0 c -0.5,0 -0.8,-0.3 -0.9,-0.9 0,-0.3 0.3,-1 0.9,-2.3 l 0,-0.1 -0.1,0 c -0.2,0.2 -0.4,0.4 -0.4,0.6 l -0.1,0 0,-0.1 c 0.5,-1.2 1.3,-2.00000001 2.2,-2.50000001 l 0.1,0.1 c 0.2,-0.1 0.4,-0.1 0.6,-0.1 0.3,-0.2 0.6,-0.3 1.1,-0.4 z M 65.7,-1 l 0.2,0 c 0.2,0.1 0.3,0.2 0.3,0.2 0.4,0.2 0.8,0.6 1,1.2 l -0.1,0 c 0,0 0,0.1 0.1,0.2 0,0.2 -0.2,0.2 -0.5,0.2 -0.2,0.7 -0.7,1.4 -1.5,2.4 -1.1,1 -2,1.5 -2.6,1.5 l -0.3,0 c -0.5,0 -0.8,-0.3 -0.9,-0.9 0,-0.3 0.3,-1 0.9,-2.3 l 0,0 -0.1,0 C 62,1.7 61.8,1.9 61.8,2.1 l -0.1,0 0,-0.1 C 62.2,0.8 63,0 63.9,-0.5 l 0.1,0.1 c 0.2,-0.1 0.4,-0.1 0.6,-0.1 0.3,-0.3 0.6,-0.5 1.1,-0.5 z m 49.13547,0.46562751 0.2,0 c 0.2,0.1 0.3,0.2 0.3,0.2 0.4,0.2 0.8,0.6 1,1.2 l -0.1,0 c 0,0 0,0.1 0.1,0.19999999 0,0.2 -0.2,0.2 -0.5,0.2 -0.2,0.7 -0.7,1.4 -1.5,2.4 -1.1,1 -2,1.5 -2.6,1.5 l -0.3,0 c -0.5,0 -0.8,-0.3 -0.9,-0.9 0,-0.3 0.3,-1 0.9,-2.3 l 0,-0.1 -0.1,0 c -0.2,0.2 -0.4,0.4 -0.4,0.6 l -0.1,0 0,-0.1 c 0.5,-1.2 1.3,-1.99999999 2.2,-2.49999999 l 0.1,0.1 c 0.2,-0.1 0.4,-0.1 0.6,-0.1 0.3,-0.3 0.7,-0.4 1.1,-0.4 z M 58.1,-0.7 l 0,0 0,0 0,0 c -0.1,0 -0.1,0 0,0 z m -1.3,0.2 0,0 0.1,0.1 0,-0.1 z m -1.2,0.6 0,0 0,0 0,0.3 0,0 0,-0.1 z m -0.2,0.5 0,0 0,0 0,0.3 0,0 0,-0.1 c -0.1,-0.1 0,-0.2 0,-0.2 z m -0.1,0.3 0,0 c 0,0.1 0,0.1 -0.1,0.1 l 0.1,-0.1 c -0.1,0.1 -0.1,0.1 0,0 z m -0.1,0.2 c 0,0.2 -0.1,0.3 -0.1,0.3 0,-0.2 0,-0.3 0.1,-0.3 z m -0.2,0.4 0,0 0,0 C 54.9,2 54.8,2.3 54.8,2.4 l -0.1,0 z m -11.168745,0.8343725 0,0 c 0,0.1 0,0.2 -0.1,0.2 l 0,-0.1 c 0,-0.1 0,-0.1 0.1,-0.1 z M 67.2,1.6 l 0,0 c 0,0.1 0,0.2 -0.1,0.2 l 0,0 C 67,1.7 67.1,1.7 67.2,1.6 Z m 49.13547,0.4656275 0,0 c 0,0.1 0,0.2 -0.1,0.2 l 0,-0.1 c -0.1,-0.1 0,-0.1 0.1,-0.1 z M 54.9,2.5 l 0,0 0,0 0,0.2 z m 18.6,0.1 0,0 0.1,0.1 -0.2,0 c -0.1,-0.1 0,-0.1 0.1,-0.1 z m -19,0.1 0,0 0,0.2 -0.1,0 z m 0,0.4 c -0.1,0.3 -0.1,0.5 -0.2,0.6 -0.2,0.5 -0.3,1 -0.6,1.5 l 0,0 0,0 c 0.3,-1.3 0.6,-2 0.8,-2.1 z m -2,1.6 0,0.1 -0.1,0 c 0,0 0,-0.1 0.1,-0.1 z M 52.2,5 C 52.1,5.2 52.1,5.3 52.1,5.4 L 52,5.4 C 52.1,5.1 52.2,5 52.2,5 Z m 1.4,0.2 -0.3,0.6 c 0.1,-0.4 0.2,-0.6 0.3,-0.6 z m -0.4,0.7 0,0 0,0.3 0,0 c 0,-0.1 0,-0.1 -0.1,-0.2 0.1,0 0.1,0 0.1,-0.1 z m -0.9,0.3 c 0,0 0,0.1 0,0 l 0,0 c 0,0.1 0,0.1 0,0 z"
         style="fill:#ffffff" /></g></g></svg>