<?xml version="1.0" encoding="utf-8"?>
<!-- Generator: Adobe Illustrator 18.0.0, SVG Export Plug-In . SVG Version: 6.00 Build 0)  -->
<!DOCTYPE svg PUBLIC "-//W3C//DTD SVG 1.1//EN" "http://www.w3.org/Graphics/SVG/1.1/DTD/svg11.dtd">
<svg version="1.1" id="Capa_1" xmlns="http://www.w3.org/2000/svg" xmlns:xlink="http://www.w3.org/1999/xlink" x="0px" y="0px"
	 viewBox="0 0 81 100" enable-background="new 0 0 81 100" xml:space="preserve">
<g id="layer1">
	<g id="flowRoot4284" transform="matrix(1.7141959,0,0,1.7141959,-86.109024,49.667252)">
		<path id="path4383" d="M69.9,10.3c-0.4,0.2-0.7,0.6-0.9,1.1c-0.3,0.7-0.8,1.7-1.5,2.8c-1.6,0-3.3-0.3-5.1-0.8
			c-0.7-0.5-1.2-0.7-1.3-0.7C61.1,12.8,61,12.9,61,13V13c0,0.3,0.1,0.5,0.3,0.6c0.4,0.9,0.7,1.4,1,1.6c0,0.6,1.3,1,3.8,1.4v0.1
			L64,20.7c-1,2.4-1.5,3.9-1.5,4.3v0.4c0.6,0.3,1,0.5,1,0.6l0.1-0.1c0.2-0.6,0.4-1.1,0.6-1.5h-0.1c0-0.1,0.1-0.2,0.4-0.5v-0.2
			c-0.1,0-0.1,0.1-0.1,0.2h-0.1v-0.1c0-0.1,0.1-0.2,0.1-0.3c0.3-0.4,0.4-0.6,0.5-0.6c0,0,0-0.1-0.1-0.2l0.1-0.3l0.1,0.1h0.1v-0.1
			l-0.1-0.1l0.1-0.1c0,0,0-0.1-0.1-0.2c0-0.1,0.1-0.2,0.3-0.5c0.2-0.1,0.3-0.3,0.3-0.5c0.3-0.2,0.4-0.4,0.4-0.6c0.7-1.1,1-1.7,1-1.9
			h-0.1v-0.3h0.1v0.1h0.1c0.1,0,0.1,0,0.1-0.1v-0.1c0,0-0.1,0-0.2-0.1l0.2-0.3l0.1,0.1l0.2-0.1c0.2-0.6,0.4-0.9,0.5-0.9h0.5
			c0.1,0,0.2,0,0.3,0.1c0.1,0,0.2-0.1,0.3-0.1h2.1c0.6-0.1,0.9-0.1,1.3-0.1c-1,0.2-1.8,0.6-2.3,1.2c-1.3,1.4-2,2.7-2.1,3.8l0.1,0.1
			L68.1,22c0,0.4,0.2,1,0.6,2c0.7,1.3,1.5,2,2.5,2h0.1c0.9,0,1.8-0.4,2.6-1.2c0-0.1,0.1-0.2,0.3-0.4l-0.1-0.1c0.1,0,0.2,0,0.2-0.1
			c0.6-0.7,0.9-1.1,0.9-1.2h-0.3v-0.1c0.3-0.5,0.4-0.7,0.5-0.7l-0.1-0.2v-0.1c0.2,0,0.4-0.8,0.6-2.5v-0.1c-0.1-0.1-0.1-0.2-0.1-0.4
			c-0.5-1-0.8-1.5-1.2-1.5c-0.3-0.3-0.7-0.5-1.3-0.7l-0.4,0.1h-0.1l-0.3-0.1c2-0.2,3.3-0.4,3.3-0.5l0.1,0.1l0.1-0.1v0.1
			c0.2,0,0.4-0.1,0.4-0.2c0.6,0.2,1.4,0.4,2.5,0.5v0.1l-2.1,3.9c-1,2.4-1.5,3.9-1.5,4.3v0.4c0.6,0.3,1,0.5,1,0.6l0.1-0.1
			c0.2-0.6,0.4-1.1,0.6-1.5H77c0-0.1,0.1-0.2,0.4-0.5v-0.2c-0.1,0-0.1,0.1-0.1,0.2h-0.1v-0.1c0-0.1,0.1-0.2,0.1-0.3
			c0.3-0.4,0.4-0.6,0.5-0.6c0,0,0-0.1-0.1-0.2l0.1-0.3l0.1,0.1H78v-0.1l-0.1-0.1l0.1-0.1c0,0,0-0.1-0.1-0.2c0-0.1,0.1-0.2,0.3-0.5
			c0.2-0.1,0.3-0.3,0.3-0.5c0.3-0.2,0.4-0.4,0.4-0.6c0.7-1.1,1-1.7,1-1.9h-0.1v-0.3H80v0.1h0.1c0.1,0,0.1,0,0.1-0.1v-0.1
			c0,0-0.1,0-0.2-0.1l0.2-0.3l0.1,0.1l0.2-0.1c0.2-0.6,0.4-0.9,0.5-0.9h0.4c0.1,0,0.2,0,0.3,0.1c0.1,0,0.2-0.1,0.3-0.1H84
			c3.1-0.3,4.7-0.5,4.7-0.6l0.1,0.1l0.1-0.1v0.1c0.3,0,0.4-0.1,0.4-0.2l0.1,0.1c0.1,0,0.1,0,0.1-0.1c0.1,0,0.3,0,0.8,0.1
			c0,0,0.1-0.1,0.1-0.2H91c0.2-0.1,0.3-0.2,0.3-0.3v-0.1c0,0-0.1,0-0.2,0.1c0,0-0.3-0.1-0.7-0.3h-0.1l0.1,0.1c-0.1,0-0.2,0-0.3,0.1
			l0.1,0.1v0.1h-0.3c-0.1-0.1-0.3-0.2-0.4-0.2c0,0.1,0,0.1-0.1,0.1h-0.2l-0.2-0.1L89,16c0,0-0.1,0-0.2,0.1c0,0,0-0.1-0.1-0.1
			c0,0,0-0.1,0.1-0.2c0-0.1,0-0.2-0.1-0.3h0.1v-0.3h-0.3l-0.3,0.1v0.1l0.1,0.1c0,0,0.1,0,0.2-0.1h0.1v0.2h-0.1l-0.3-0.1v0.1h-0.3
			c0-0.1,0-0.2-0.1-0.3H88v-0.1H88l-0.4,0.1h-0.1c0-0.1,0.6-0.2,1.9-0.3h0.1v-0.1h-0.3v-0.1h0.4l0.1-0.1v0.1c0.7,0,1.3-0.1,1.9-0.2
			h0.1v-0.1h-0.3v-0.1h0.5v-0.1c0-0.1-0.1-0.1-0.4-0.2v0.1l-0.3-0.1h-0.1v0.1H91l-0.3-0.1c0,0.1-0.1,0.1-0.1,0.2h-0.2v-0.1h-0.1
			l-0.1,0.1v-0.1c-0.1,0-0.4,0.1-1.1,0.2c-0.1,0-0.2-0.1-0.3-0.1l0.1-0.1l-0.1-0.2l1-0.1h0.1v0.1c-0.2,0-0.3,0.1-0.4,0.2l0.4-0.1
			l0.3,0.1c0,0,0.1,0,0.2-0.1l0.1,0.1l0.1-0.1c0,0,0-0.1-0.1-0.1c0-0.1,0-0.1,0.1-0.1l-0.1-0.1h0.2c0,0,0,0.1,0.1,0.2h-0.2v0.1h0.2
			c0.1,0,0.1,0,0.1-0.1V14h-0.1v-0.1c0-0.1,0.7-0.2,2.1-0.4v-0.1h-0.2v-0.1h0.1v-0.1c-3.8,0.6-6.9,0.9-9.1,1.1h-1.2v-0.1
			c0.6-0.9,0.9-1.6,1.1-2.2h-0.1v-0.2c0,0,0-0.1-0.1-0.2c0,0,0.1,0,0.1-0.1v-0.2c-0.1-0.7-0.3-1-0.7-1c-0.4,0.2-0.7,0.6-0.9,1.1
			c-0.3,0.7-0.8,1.7-1.5,2.8c-0.1,0-0.3,0-0.4,0v0l-0.6-0.1l-0.2,0c-0.4,0-0.8,0-1.2-0.1V14H78v-0.1c0-0.1,0.7-0.2,2.1-0.4v-0.1
			h-0.2v-0.1H80v-0.1c-1.3,0.2-2.4,0.3-3.6,0.5c-0.3-0.1-0.7-0.1-1-0.2c-0.7-0.5-1.2-0.7-1.3-0.7c-0.1,0.1-0.2,0.1-0.2,0.2V13
			c0,0.3,0.1,0.5,0.3,0.6c0.1,0.1,0.1,0.2,0.1,0.3c-1.3,0.1-2.5,0.3-3.5,0.4h-1.2v-0.1c0.6-0.9,0.9-1.6,1.1-2.2h-0.1v-0.2
			c0,0,0-0.1-0.1-0.2c0,0,0.1,0,0.1-0.1v-0.2C70.6,10.7,70.3,10.3,69.9,10.3L69.9,10.3z M71.7-26.4c-0.4,0.1-0.6,0.3-0.6,0.6
			c-1.2,3.1-1.8,4.6-2,4.6c-0.6,0-1.2-0.1-1.8-0.4c-0.2,0-0.4,0.1-0.5,0.3c0.2,1.5,0.7,2.2,1.2,2.3c0,0.2-0.1,0.4-0.2,0.8l-0.8,1.8
			l0.1,0.1h-0.1c-0.2,0.5-0.4,0.9-0.5,1c0,0.4-0.1,0.7-0.4,1c0,0,0,0.1,0.1,0.2c-0.5,1.2-0.7,1.9-0.7,2.2c0.2,0.5,0.4,0.7,0.5,0.8h0
			c0,0,0.1-0.1,0.2-0.3c1.1-2.8,2-4.8,2.7-6.2c0.2-0.7,0.4-1.1,0.6-1.1c0,0.1,1.5,0.2,4.5,0.2c0.7,0,1.1-0.1,1.2-0.1
			c0,0,0,0.1,0.1,0.1c-0.3,0.7-0.6,1.3-0.8,2C73.8-15,73.3-13.6,73-12l0.1,0.2v0.2l-0.1,0.3c0,0.1,0.1,0.2,0.2,0.2v0.3
			c0,0.1,0,0.1,0.1,0.1h0.1l0.2-0.2c1-2.8,1.8-5,2.4-6.5c0.3-0.9,0.5-1.4,0.7-1.4l0-0.3c0.1-0.5,0.9-2.5,2.4-6.2
			c-0.2-0.2-0.4-0.4-0.6-0.5h-0.2c-0.2,0-0.6,0.6-1,1.9c-0.5,1.8-1,2.9-1.4,3.5l-0.1-0.1c0-0.1,0-0.1,0.1-0.1v-0.1
			c0-0.1-0.8-0.2-2.5-0.2c0,0,0,0.1,0,0.1v-0.1c-0.4,0-1.4-0.1-3-0.2c0-0.3,0.1-0.7,0.4-1.2c1-2.4,1.5-3.7,1.5-3.8
			c0,0-0.1-0.1-0.4-0.3L71.7-26.4L71.7-26.4z M57.9-9.4c-0.9,0-1.8,0.1-2.6,0.2c-1.5,0.3-2.3,0.5-2.3,0.6c0,0.5,0.3,0.9,1,1.2h0
			c0.1,0,0.6-0.1,1.3-0.2h0c-0.2,0.9-1,3.1-2.3,6.7c-1.7,4.1-2.5,6.2-2.5,6.3h0.1c0.2-0.5,0.3-0.7,0.5-0.7v0l0.1,0
			c-0.2,0.4-0.2,0.6-0.2,0.8h0c0.1-0.1,0.2-0.2,0.2-0.3h0c0,0.2,0,0.3,0,0.3c0.1-0.1,0.2-0.3,0.2-0.4h0.1v0.2c0,0.1,0,0.3-0.1,0.6v0
			h0l0.2-0.2V6l-0.1,0.1l0,0.1c0,0,0.2-0.2,0.5-0.7l0.1,0l-0.1,0.3l0,0.1c0.2-0.1,0.2-0.2,0.2-0.3c0,0,0,0,0,0
			c0.1,0,0.1-0.1,0.2-0.2c0-0.1,0-0.1-0.1-0.1c0-0.2,0.1-0.2,0.1-0.2v0.1c0,0,0.1-0.2,0.3-0.7l0-0.2c0.4-1,0.7-1.6,0.7-1.7l0.1,0
			h0.1c0-0.1,0-0.1-0.1-0.1c0.2-0.4,0.2-0.6,0.2-0.7H54v0.1h0.1c0.2-0.4,0.2-0.7,0.2-0.7V1.3h0v0.1h0V1.3c0-0.2,0.1-0.2,0.2-0.2
			c0,0,0,0-0.1,0l0.1-0.2h0v0l0,0.1v0h0.1c0-0.1,0-0.1,0-0.2l0-0.2v0h0v0.1c0,0,0.1-0.1,0.1-0.2l-0.1-0.1v0c0,0,0.1,0,0.1,0
			c0,0,0,0,0,0c0-0.1,0-0.2,0.1-0.4l0.1,0c0,0,0-0.1,0-0.1c0,0,0,0,0,0c0.2-0.7,0.4-1.1,0.5-1.3v-0.1h-0.1l0.2-0.3v0h-0.1
			c-0.2,0.1-0.3,0.2-0.3,0.4h0v0c0-0.1,0.1-0.2,0.2-0.6c0.1,0,0.1,0,0.2,0h0c0,0,0-0.1,0-0.1l0.2-0.3v0c-0.2,0-0.3,0.1-0.3,0.4h0
			v-0.1L55.6-3c0.2,0,0.4-0.5,0.7-1.5h-0.1c0,0,0,0.2-0.1,0.4h-0.1v-0.1C56-4.3,56-4.4,56.1-4.4c0.1-0.7,0.3-1.1,0.4-1.1
			c0.1,0,0.2-0.3,0.4-0.9c0.3-0.3,0.4-0.6,0.4-0.9v-0.1l-0.1-0.1v-0.2l0.3,0h0.2c0.2,0,0.4,0,0.8,0c0.1,0,0.1,0,0.1,0c0,0,0,0,0,0
			c0.5,0,1,0.2,1.6,0.6C60.7-7.1,61-6.8,61-6.5v0.4c0,0.7-0.5,1.6-1.6,2.7c-0.9,0.8-2.1,1.4-3.7,1.7v0.1h0.1
			c0.1-0.1,0.3-0.1,0.9-0.2v0.1l0.5-0.1h0v0.1c-0.2,0-0.4,0.1-0.4,0.2v0h0.1l0.1,0c0,0,0,0.1,0.1,0.1l0.1,0c0,0.1,0,0.1,0.1,0.1
			l0.1-0.1h0l0.1,0.1v-0.1h0.2l0.1,0v0.1h0.1v-0.1h-0.1v0c0.1,0,0.2,0,0.5-0.1c0,0.1,0.1,0.2,0.2,0.3h0c0.2-0.1,0.3-0.2,0.3-0.2
			c0.5-0.1,0.8-0.3,0.8-0.4c0,0,0,0,0,0c0.3-0.1,0.7-0.5,1.2-1c0.4-0.5,0.7-1.3,0.8-2.3l0-0.3c0-0.3,0-0.6,0-1c0-0.4-0.2-1-0.6-1.5
			C60.4-9,59.3-9.4,57.9-9.4L57.9-9.4z M76.9-9.4c-0.2,0.3-0.8,2.6-1.9,7.1h-0.5c-0.5,0-1.3,0.3-2.6,0.9h-0.1v-0.1
			c0.6-0.3,0.9-0.5,0.9-0.5c0,0,0.1,0,0.1,0.1c0.2,0,0.3-0.1,0.3-0.2v-0.1c-0.1,0-0.3,0-0.5,0.1c0,0-0.2,0-0.5-0.1
			c-1.2,0.6-2.2,1.3-3,2.1C68,1,67.5,2,67.5,2.9v0.4c0,0.2,0.2,0.7,0.5,1.4c0.3,1,0.7,1.5,1.4,1.5H70c0.1,0,0.2,0,0.4-0.1
			c0.6,0,1.5-0.6,2.5-1.8V4.1h-0.1c-0.1,0-0.1,0-0.1,0.1l-0.1-0.1c0-0.1,0.5-0.7,1.4-1.7v1.2c0,0.6,0.3,1.3,1,2.2
			c0.1,0,0.1-0.1,0.2-0.4L75,4.7V3.8L75.6,1c0.4-2,0.7-3.2,0.9-3.6v-0.1l-0.1-0.1c0.1-0.2,0.2-0.3,0.2-0.5C76.9-5,77.1-6,77.2-6.1
			v-0.1H77v-0.1h0.2L77-6.5c0.2-1.2,0.4-1.8,0.4-2c-0.2-0.3-0.3-0.5-0.3-0.8H77l-0.1,0.1L76.9-9.4L76.9-9.4L76.9-9.4z M79.3,13.7
			l-0.6,0.1V14c0.1,0,0.2,0,0.3,0.1C79.1,14,79.3,14,79.3,13.7C79.3,13.8,79.3,13.8,79.3,13.7z M92.1,13.7l-0.6,0.1V14
			c0.1,0,0.2,0,0.3,0.1C92,14,92.1,14,92.1,13.7C92.1,13.8,92.1,13.8,92.1,13.7z M77.7,13.9h0.2c0,0,0,0.1,0,0.1
			C77.9,14,77.8,14,77.7,13.9L77.7,13.9z M92.3,14.1l-0.3,0.1v0.1l0.1,0.1c0.2,0,0.4,0,0.6-0.1c0,0,0,0.1,0.1,0.1h0.1v-0.1
			L92.3,14.1z M92.3,14.4v0.1h0.3v-0.1H92.3z M74.5,14.6L74.5,14.6c0.1,0.1,0.2,0.2,0.2,0.2c-0.2-0.1-0.3-0.1-0.4-0.1
			C74.4,14.6,74.4,14.6,74.5,14.6L74.5,14.6z M87.4,14.6h0.1l0.1,0.1c0,0,0-0.1,0.1-0.1H88c0.1,0,0.1,0,0.1,0.1
			c-0.2,0-0.3,0-0.4,0.1c-0.2-0.1-0.4-0.1-0.4-0.1C87.2,14.6,87.3,14.6,87.4,14.6L87.4,14.6z M73.5,14.6h0.1c0.1,0,0.1,0.1,0.2,0.3
			l-0.3,0.1V14.6L73.5,14.6z M86.4,14.6h0.1c0.1,0,0.1,0.1,0.2,0.3l-0.3,0.1L86.4,14.6L86.4,14.6z M90.1,14.7h0.3v0.1
			c-0.1,0-0.3,0-0.5,0.1h-0.1v-0.1L90.1,14.7z M91.2,14.9L91.2,14.9c0,0.1,0,0.2,0.1,0.2h0.1c0.1,0,0.1,0,0.1-0.1v-0.1H91.2
			L91.2,14.9z M74.8,15c0,0,0,0.1,0.1,0.1v0.1h-0.4v-0.1C74.6,15.1,74.7,15.1,74.8,15z M87.6,15c0,0,0,0.1,0.1,0.1v0.1h-0.4v-0.1
			C87.5,15.1,87.6,15.1,87.6,15z M87.9,15h0.4v0.1L87.9,15L87.9,15z M90.1,15l-0.1,0.1l0.1,0.1l0.1-0.1L90.1,15z M73.7,15.1
			C73.8,15.1,73.8,15.2,73.7,15.1c0.1,0.1,0.2,0,0.3,0h0.4v0.1c-0.2,0-0.4,0-0.6,0.1h-0.1L73.7,15.1L73.7,15.1z M86.6,15.1
			C86.6,15.1,86.7,15.2,86.6,15.1c0.1,0.1,0.2,0,0.3,0h0.4v0.1c-0.2,0-0.4,0-0.6,0.1h-0.1L86.6,15.1z M75.1,15.2
			C75.1,15.2,75.1,15.3,75.1,15.2c0,0.1,0.1,0.2,0.2,0.4l0,0v0.1H75c0-0.1,0-0.2-0.1-0.3h0.3L75.1,15.2L75.1,15.2l-0.4,0.2h-0.1
			C74.6,15.3,74.8,15.3,75.1,15.2L75.1,15.2z M74.2,15.3h0.2c0,0.1,0,0.1-0.1,0.1h-0.1V15.3z M87.1,15.3h0.2c0,0.1,0,0.1-0.1,0.1
			h-0.1V15.3z M89.1,15.3c-0.1,0-0.1,0-0.1,0.1v0.1h0.2v-0.1L89.1,15.3z M92.1,15.3v0.1h0.1c0.1,0,0.1,0,0.1-0.1H92.1z M73.8,15.5
			c0.1,0,0.2,0,0.2,0.1l-0.3-0.1h-0.2c-0.1,0.1-0.2,0.1-0.2,0.2c-0.1,0-0.2,0-0.4-0.1c-0.1,0-0.2,0-0.2,0.1c-0.9,0-1.4,0.1-1.4,0.3
			H71l-0.3-0.1v-0.1L73.8,15.5L73.8,15.5z M86.7,15.5c0.1,0,0.2,0,0.2,0.1l-0.3-0.1h-0.2c-0.1,0.1-0.2,0.1-0.2,0.2
			c-0.1,0-0.2,0-0.4-0.1c-0.1,0-0.2,0-0.2,0.1c-0.9,0-1.4,0.1-1.4,0.3h-0.3l-0.3-0.1v-0.1L86.7,15.5L86.7,15.5z M90.5,15.6h0.2v0.1
			c0,0-0.1,0-0.2,0.1h-0.1L90.5,15.6z M69.8,15.7c0.1,0,0.2,0,0.3,0.1c0.1,0,0.2-0.1,0.3-0.1l0.3,0.1v0.1c0,0-0.1,0-0.2-0.1
			c-0.2,0-0.4,0.1-0.4,0.1l-0.3-0.1L69.8,15.7L69.8,15.7z M74.5,15.7L74.5,15.7c0.1,0,0.2,0,0.2,0.1v0.1l-0.3-0.1
			C74.4,15.8,74.4,15.7,74.5,15.7L74.5,15.7z M82.6,15.7c0.1,0,0.2,0,0.3,0.1c0.1,0,0.2-0.1,0.3-0.1l0.3,0.1v0.1c0,0-0.1,0-0.2-0.1
			c-0.2,0-0.4,0.1-0.4,0.1l-0.3-0.1L82.6,15.7z M87.4,15.7L87.4,15.7c0.1,0,0.2,0,0.2,0.1v0.1l-0.3-0.1
			C87.2,15.8,87.3,15.7,87.4,15.7z M73,15.9c0.2,0,0.5,0.1,0.7,0.1V16L73,16.1L72.9,16L73,15.9z M74.9,15.9l0.4,0.1
			c0,0.1,0,0.1-0.1,0.1H75C74.9,16.1,74.9,16.1,74.9,15.9L74.9,15.9L74.9,15.9z M85.8,15.9c0.2,0,0.5,0.1,0.7,0.1V16l-0.6,0.1
			L85.8,16L85.8,15.9z M87.8,15.9l0.4,0.1c0,0.1,0,0.1-0.1,0.1h-0.2C87.8,16.1,87.8,16.1,87.8,15.9L87.8,15.9L87.8,15.9z M75.9,15.9
			c0.1,0,0.1,0.1,0.2,0.1c0,0-0.1,0-0.1,0C75.9,16,75.9,16,75.9,15.9C75.8,16,75.9,15.9,75.9,15.9z M72.4,16l0.1,0.1l0.3-0.1v0.1
			c-0.3,0-0.8,0-1.4,0.1l-0.1-0.1l-0.1,0.1c-0.1,0-0.2,0-0.3-0.1h-0.1v0.2l-0.8-0.1c0,0.1-0.1,0.1-0.5,0.1v-0.2c0,0,0.1,0,0.2-0.1
			v0.1l1-0.1c0,0,0,0.1,0.1,0.1c0.2,0,0.4-0.1,0.5-0.1c0.2,0,0.5,0,0.9,0.1L72.4,16L72.4,16z M85.3,16l0.1,0.1l0.3-0.1v0.1
			c-0.3,0-0.8,0-1.4,0.1l-0.1-0.1L84,16.3c-0.1,0-0.1,0-0.3-0.1h-0.1v0.2l-0.8-0.1c0,0.1-0.1,0.1-0.5,0.1v-0.2c0,0,0.1,0,0.2-0.1
			v0.1l1-0.1c0,0,0,0.1,0.1,0.1c0.2,0,0.4-0.1,0.5-0.1c0.2,0,0.5,0,0.9,0.1L85.3,16L85.3,16z M74.1,16L74.1,16c0.1,0.1,0.2,0,0.3,0
			h0.1c0,0.1-0.2,0.2-0.5,0.2h-0.1C73.9,16.2,73.9,16.1,74.1,16z M74.5,16h0.1c0.1,0,0.1,0,0.1,0.1h-0.1
			C74.6,16.2,74.5,16.1,74.5,16z M87,16L87,16c0.1,0.1,0.2,0,0.3,0h0.1c0,0.1-0.2,0.2-0.5,0.2h-0.1C86.7,16.2,86.8,16.1,87,16z
			 M87.4,16h0.1c0.1,0,0.1,0,0.1,0.1h-0.1C87.4,16.2,87.4,16.1,87.4,16z M72.8,16.2h0.3c0,0.1,0,0.1-0.1,0.1
			C72.9,16.4,72.9,16.3,72.8,16.2z M85.7,16.2H86c0,0.1,0,0.1-0.1,0.1C85.8,16.4,85.7,16.3,85.7,16.2z M90.5-3.2
			c-1.1,0-2.3,0.8-3.5,2.4l-0.3-0.1L86.8-1v-0.2h-0.1v-0.3l-0.6-0.5h-0.2c-0.1,0-0.3,0.2-0.6,0.7c-0.3,0-0.7,1.7-1.2,5.1v0.1
			c0,0.3,0.1,0.5,0.3,0.6c0.5,0.7,0.9,1.1,1.3,1.5h0.1L86,5.7c0.2-0.7,0.3-1.1,0.4-1.2C86.4,4,86.7,3.6,87,3.4
			c0.1,0,0.5-0.6,1.3-1.8c0.9-1.3,1.8-2.1,2.7-2.4H91c0,0,0,0.1,0,0.1c0,0,0,0.1,0,0.2c-0.4,1.1-0.8,2.2-1.2,3.2v0.2
			c0.2,0.5,0.5,0.7,0.8,0.9c0,0,0,0.1-0.1,0.2c0.2,0.2,0.3,0.4,0.4,0.4l0.4,0.3l0.3-0.3c0-0.1,0-0.2-0.1-0.2
			c0.3-0.9,0.5-1.6,0.6-2.1c0,0,0.1,0,0.2,0.1c0.1,0,0.3-0.3,0.8-1c0.3-0.2,0.5-0.4,0.5-0.5c0.8-0.9,1.5-1.4,2.1-1.4l0.1,0.1
			c0,1.1-0.4,2.3-1.1,3.6c-0.9,1.6-1.4,2.5-1.4,2.7c0.1,0.1,0.1,0.2,0.2,0.2l0.1-0.1l0.6,0.7c0.2-0.1,0.2-0.1,0.2-0.2l0-0.1
			c0.2,0,0.3,0,0.4-0.1c0.1,0,0.3-0.2,0.4-0.6c0.3-1.1,0.6-1.6,0.7-1.6l-0.1-0.2c0.2-0.2,0.5-0.8,0.8-1.8c0.3-0.2,0.5-0.6,0.6-1.1
			l-0.1-0.2c0-0.1,0-0.1,0.1-0.1c0-0.5-0.1-0.9-0.3-1.2v-0.4c0,0-0.1,0-0.2-0.1c0,0,0-0.1,0.1-0.1c0-0.2-0.1-0.5-0.4-0.9
			c-0.3-0.3-0.8-0.5-1.3-0.6l-0.3,0.1l-0.2-0.1v0.1c-0.8,0.2-1.5,0.7-2.2,1.5c-0.1,0-0.2-0.2-0.2-0.7c-0.3-0.1-0.5-0.3-0.5-0.6
			C91.4-3,91-3.2,90.5-3.2L90.5-3.2z M82.1-3.1c-1.4,0-2.6,0.6-3.8,1.8c-0.4,0.3-0.6,0.5-0.6,0.6c-0.5,0.7-0.7,1.2-0.7,1.2h-0.1V0.2
			c0-0.2,0.1-0.3,0.2-0.5c0-0.5,0.5-1.1,1.6-2c0-0.1,0-0.1-0.1-0.1l-0.4,0.3c-1.1,1.1-1.7,2.1-1.7,3v0.8c0,0.3,0.1,0.9,0.4,1.8
			c0.3,0.6,0.4,1,0.4,1.1c0.5,0.8,1,1.2,1.6,1.2v0.1h-0.1v0.1c0.1,0.2,0.4,0.3,0.9,0.3c1,0,1.9-0.3,2.4-0.8c0,0-0.1,0-0.2,0
			c0,0-0.1,0-0.2,0h-0.1l0.3-0.2V5.1h-0.4c0-0.1,0-0.1,0.1-0.1l-0.1-0.2V4.7c0,0,0.3-0.1,0.8-0.4V4.2c-0.1,0-0.3,0.1-0.6,0.2h-0.1
			V4.3c0.2,0,0.3-0.1,0.4-0.4c0,0,0-0.1-0.1-0.2l0.1-0.1c0,0-0.1-0.1-0.2-0.1c0,0,0-0.1,0.1-0.1l-0.1-0.1l-0.4,0.1V3.3l0.4-0.1V3.1
			H82c-1.2,0.4-2,0.6-2.4,0.6c-1.3,0-2-0.5-2-1.5c0-0.8,0.2-1.4,0.4-1.9h0.2c0,0.2,0.1,0.4,0.3,0.7c0.6,0.3,0.9,0.5,1,0.6
			c1.1,0,1.7-0.1,1.9-0.2c0.1,0,0.2,0.1,0.3,0.1L82,1.3v0.1h-0.1v0.2h0.2c0.7-0.3,1.1-0.4,1.1-0.5V1c-0.2,0-0.4,0.1-0.7,0.3
			c-0.1,0-0.1,0-0.1-0.1V1c0.2,0,0.6-0.2,1.1-0.7c0.4-0.2,0.7-0.7,1-1.6c0,0,0-0.1-0.1-0.1C84.2-2,84.1-2.4,84-2.4h-0.1
			c0,0.2-0.2,0.5-0.3,0.6c-1.4,1.3-2.8,1.9-4.2,1.9c-0.4,0-0.7-0.1-1.1-0.2c0-0.3,0.5-0.8,1.4-1.5c0.8-0.5,1.9-0.8,3.3-1
			c0,0,0.2,0.1,0.8,0.1l0.1-0.1C83.6-2.9,83.1-3.1,82.1-3.1L82.1-3.1z M80.8-20c-1.1,0.2-1.8,0.6-2.3,1.2c-1.3,1.4-2,2.7-2.1,3.8
			l0.1,0.1l-0.1,0.1c0,0.4,0.2,1,0.6,2c0.7,1.3,1.5,2,2.5,2h0.1c0.9,0,1.8-0.4,2.6-1.2c0-0.1,0.1-0.2,0.3-0.4l-0.1-0.1
			c0.1,0,0.2,0,0.2-0.1c0.6-0.7,0.9-1.1,0.9-1.2h-0.3v-0.1c0.3-0.5,0.4-0.7,0.5-0.7l-0.1-0.2v-0.1c0.2,0,0.4-0.8,0.6-2.5v-0.1
			c-0.1-0.1-0.1-0.2-0.1-0.4c-0.5-1-0.8-1.5-1.2-1.5c-0.3-0.3-0.7-0.5-1.3-0.7L81.2-20h-0.1L80.8-20L80.8-20z M63.9-3.1
			c-1.1,0.2-1.8,0.6-2.3,1.2c-1.3,1.4-2,2.7-2.1,3.8l0.1,0.1l-0.1,0.1c0,0.4,0.2,1,0.6,2c0.7,1.3,1.5,2,2.5,2h0.1
			c0.9,0,1.8-0.4,2.6-1.2c0-0.1,0.1-0.2,0.3-0.4l-0.1-0.1c0.1,0,0.2,0,0.2-0.1c0.6-0.7,0.9-1.1,0.9-1.2h-0.3V3
			c0.3-0.5,0.4-0.7,0.5-0.7l-0.1-0.2V2.1c0.2,0,0.4-0.8,0.6-2.5v-0.1c-0.1-0.1-0.1-0.2-0.1-0.4c-0.5-1-0.8-1.5-1.2-1.5
			c-0.3-0.3-0.7-0.5-1.3-0.7L64.2-3h-0.1L63.9-3.1L63.9-3.1z M74.8-2.7c-0.2,0-0.6,0.1-1.2,0.2v0.1c0.4,0,0.8-0.1,1.2-0.2V-2.7z
			 M74.6-2h0.2v0.1c-0.2,1.1-0.4,1.7-0.6,1.7c-1.9,2.9-3.6,4.4-5.2,4.4l-0.1-0.1c0,0,0-0.2,0.1-0.4c0.3-0.7,0.5-1.2,0.8-1.5
			C69.9,1.8,70,1.6,70,1.6c0.1-0.2,0.2-0.4,0.3-0.4c0-0.3,0.1-0.5,0.4-0.6l-0.1-0.1c0,0,0.1,0,0.1-0.1V0.2h-0.1l-0.3,0.2h-0.1V0.4
			c0.6-0.7,1.4-1.2,2.2-1.6C73.2-1.7,74-2,74.6-2L74.6-2z M82.2-18.9h0.2c0.2,0.1,0.3,0.2,0.3,0.3c0.5,0.2,0.8,0.6,1,1.2h-0.1
			c0,0,0,0.1,0.1,0.2c0,0.2-0.2,0.3-0.5,0.3c-0.2,0.7-0.7,1.5-1.5,2.5c-1.1,1.1-2,1.6-2.7,1.6h-0.3c-0.5,0-0.8-0.3-0.9-1
			c0-0.3,0.3-1.1,1-2.4v-0.1h-0.1c-0.3,0.2-0.4,0.4-0.4,0.6h-0.1v-0.1c0.6-1.2,1.3-2.1,2.3-2.6l0.1,0.1c0.2-0.1,0.5-0.1,0.6-0.1
			C81.4-18.8,81.7-18.9,82.2-18.9L82.2-18.9z M65.3-2h0.2c0.2,0.1,0.3,0.2,0.3,0.3c0.5,0.2,0.8,0.6,1,1.2h-0.1c0,0,0,0.1,0.1,0.2
			c0,0.2-0.2,0.3-0.5,0.3c-0.2,0.7-0.7,1.5-1.5,2.5c-1.1,1.1-2,1.6-2.7,1.6h-0.3c-0.5,0-0.8-0.3-0.9-1c0-0.3,0.3-1.1,1-2.4V0.6h-0.1
			c-0.3,0.2-0.4,0.4-0.4,0.6h-0.1V1.1c0.6-1.2,1.3-2.1,2.3-2.6l0.1,0.1c0.2-0.1,0.5-0.1,0.6-0.1C64.5-1.8,64.8-2,65.3-2L65.3-2z
			 M73.9,17.8h0.2c0.2,0.1,0.3,0.2,0.3,0.3c0.5,0.2,0.8,0.6,1,1.2h-0.1c0,0,0,0.1,0.1,0.2c0,0.2-0.2,0.3-0.5,0.3
			c-0.2,0.7-0.7,1.5-1.5,2.5c-1.1,1.1-2,1.6-2.7,1.6h-0.3c-0.5,0-0.8-0.3-0.9-1c0-0.3,0.3-1.1,1-2.4v-0.1h-0.1
			C70.1,20.6,70,20.8,70,21h-0.1v-0.1c0.6-1.2,1.3-2.1,2.3-2.6l0.1,0.1c0.2-0.1,0.5-0.1,0.6-0.1C73.1,17.9,73.4,17.8,73.9,17.8
			L73.9,17.8z M57.4-1.7L57.4-1.7L57.4-1.7L57.4-1.7C57.3-1.7,57.3-1.7,57.4-1.7z M56-1.5L56-1.5l0.1,0.1v-0.1H56z M54.8-0.9
			L54.8-0.9L54.8-0.9c0,0.1,0,0.2,0,0.3h0v-0.1L54.8-0.9z M54.6-0.4L54.6-0.4L54.6-0.4l0,0.3h0v-0.1C54.5-0.3,54.6-0.3,54.6-0.4
			L54.6-0.4z M54.5,0L54.5,0c0,0.1,0,0.1-0.1,0.1L54.5,0C54.4,0,54.4,0,54.5,0L54.5,0z M54.4,0.2c0,0.2-0.1,0.3-0.1,0.3
			C54.3,0.3,54.3,0.2,54.4,0.2z M54.2,0.6L54.2,0.6L54.2,0.6c-0.1,0.6-0.2,0.8-0.2,0.9h-0.1L54.2,0.6z M83.7-16.2L83.7-16.2
			c0,0.1,0,0.2-0.1,0.2v-0.1C83.6-16.2,83.6-16.2,83.7-16.2z M66.8,0.7L66.8,0.7c0,0.1,0,0.2-0.1,0.2V0.9
			C66.6,0.8,66.7,0.7,66.8,0.7z M75.4,20.5L75.4,20.5c0,0.1,0,0.2-0.1,0.2v-0.1C75.2,20.6,75.3,20.5,75.4,20.5z M54.1,1.6L54.1,1.6
			L54.1,1.6c0,0.1,0,0.2,0,0.2L54.1,1.6z M73.3,1.7L73.3,1.7l0.1,0.1h-0.2C73.2,1.8,73.2,1.7,73.3,1.7z M53.7,1.9L53.7,1.9l0,0.2
			h-0.1L53.7,1.9z M53.6,2.2c-0.1,0.3-0.1,0.5-0.2,0.6c-0.2,0.5-0.4,1-0.6,1.5h0v0C53.2,3.1,53.5,2.4,53.6,2.2L53.6,2.2z M51.6,3.9
			v0.1l-0.1,0C51.5,4,51.5,3.9,51.6,3.9z M51.3,4.2c-0.1,0.2-0.1,0.3-0.1,0.4l-0.1,0C51.2,4.3,51.3,4.2,51.3,4.2L51.3,4.2z
			 M52.7,4.4c-0.2,0.4-0.3,0.7-0.3,0.7C52.5,4.7,52.6,4.4,52.7,4.4z M52.3,5.1L52.3,5.1l0,0.3h0c0-0.1,0-0.1-0.1-0.2
			C52.3,5.3,52.3,5.2,52.3,5.1z M51.4,5.5C51.4,5.5,51.4,5.5,51.4,5.5L51.4,5.5C51.4,5.5,51.4,5.5,51.4,5.5z"/>
	</g>
</g>
</svg>
