<?xml version="1.0" encoding="UTF-8" standalone="no"?>
<!-- Generator: Adobe Illustrator 16.0.0, SVG Export Plug-In . SVG Version: 6.00 Build 0)  -->

<svg
   xmlns:dc="http://purl.org/dc/elements/1.1/"
   xmlns:cc="http://creativecommons.org/ns#"
   xmlns:rdf="http://www.w3.org/1999/02/22-rdf-syntax-ns#"
   xmlns:svg="http://www.w3.org/2000/svg"
   xmlns="http://www.w3.org/2000/svg"
   xmlns:sodipodi="http://sodipodi.sourceforge.net/DTD/sodipodi-0.dtd"
   xmlns:inkscape="http://www.inkscape.org/namespaces/inkscape"
   version="1.1"
   id="Layer_1"
   x="0px"
   y="0px"
   width="136.602px"
   height="135.696px"
   viewBox="0 0 136.602 135.696"
   enable-background="new 0 0 136.602 135.696"
   xml:space="preserve"
   inkscape:version="0.48.5 r"
   sodipodi:docname="bombeta.svg"><metadata
     id="metadata63"><rdf:RDF><cc:Work
         rdf:about=""><dc:format>image/svg+xml</dc:format><dc:type
           rdf:resource="http://purl.org/dc/dcmitype/StillImage" /></cc:Work></rdf:RDF></metadata><defs
     id="defs61" /><sodipodi:namedview
     pagecolor="#ffffff"
     bordercolor="#666666"
     borderopacity="1"
     objecttolerance="10"
     gridtolerance="10"
     guidetolerance="10"
     inkscape:pageopacity="0"
     inkscape:pageshadow="2"
     inkscape:window-width="640"
     inkscape:window-height="480"
     id="namedview59"
     showgrid="false"
     inkscape:zoom="1.7391817"
     inkscape:cx="68.301003"
     inkscape:cy="67.848"
     inkscape:window-x="0"
     inkscape:window-y="24"
     inkscape:window-maximized="0"
     inkscape:current-layer="g3" /><g
     id="g3"><g
       id="g15"
       transform="matrix(1.325575,0,0,1.325575,-23.035742,-22.881807)"><g
         id="g17"><path
           d="m 63.176,110.226 -0.922,2.035 c 0,2.482 2.781,5.512 7.625,5.512 4.847,0 8.104,-3.029 8.104,-5.512 l -0.922,-2.035 H 63.176 z"
           id="path19"
           inkscape:connector-curvature="0"
           style="fill:#828282" /></g><g
         id="g21"><path
           d="m 60.227,106.112 -1.312,2.628 c 0,3.204 3.959,7.114 10.861,7.114 6.905,0 11.546,-3.91 11.546,-7.114 L 80.01,106.112 H 60.227 z"
           id="path23"
           inkscape:connector-curvature="0"
           style="fill:#c0c0c0" /></g><g
         id="g25"><path
           d="m 59.147,102.566 -1.456,2.913 c 0,3.554 4.392,7.892 12.049,7.892 7.658,0 12.806,-4.338 12.806,-7.892 L 81.09,102.566 H 59.147 z"
           id="path27"
           inkscape:connector-curvature="0"
           style="fill:#939292" /></g><g
         id="g29"><path
           d="m 58.765,99.362 -1.508,3.016 c 0,3.678 4.547,8.166 12.47,8.166 7.925,0 13.253,-4.488 13.253,-8.166 L 81.473,99.362 H 58.765 z"
           id="path31"
           inkscape:connector-curvature="0"
           style="fill:#c0c0c0" /></g><g
         id="g33"><path
           d="m 58.765,96.348 -1.508,3.015 c 0,3.678 4.547,8.167 12.47,8.167 7.925,0 13.253,-4.489 13.253,-8.167 L 81.473,96.348 H 58.765 z"
           id="path35"
           inkscape:connector-curvature="0"
           style="fill:#a19f9f" /></g><g
         id="g37"><path
           d="M 76.095,88.182 H 64.143 c -3.803,0 -6.886,2.981 -6.886,6.658 v 1.508 c 0,3.678 4.547,8.167 12.47,8.167 7.925,0 13.253,-4.489 13.253,-8.167 V 94.84 c -0.001,-3.677 -3.083,-6.658 -6.885,-6.658 z"
           id="path39"
           inkscape:connector-curvature="0"
           style="fill:#c0c0c0" /></g><g
         id="g41"><g
           id="g43"><path
             d="m 82.033,92.802 c 0,-14.26 20.51,-16.881 20.51,-39.973 0,-18.052 -14.621,-32.674 -32.672,-32.678 -18.053,0.009 -32.672,14.626 -32.672,32.681 0,22.366 20.945,25.442 20.945,39.997 0.001,9.369 23.889,9.611 23.889,-0.027 z"
             id="path45"
             inkscape:connector-curvature="0"
             style="fill:#f4e028" /></g><g
           id="g47"><path
             d="m 42.862,55.255 c -4.85,-4.848 0.475,-18.273 5.322,-23.122 4.85,-4.849 16.588,-9.45 21.436,-4.601 4.849,4.848 -21.909,32.572 -26.758,27.723 z"
             id="path49"
             inkscape:connector-curvature="0"
             style="fill:#f6e568" /></g><g
           id="g51"><path
             d="m 78.718,74.795 c -0.42,-0.97 -1.343,-0.625 -1.343,-0.625 -2.621,0.819 -5.284,7.843 -6.887,12.896 -1.603,-5.054 -4.265,-12.077 -6.887,-12.896 0,0 -0.922,-0.345 -1.343,0.625 -0.396,0.913 0.352,1.464 0.634,1.64 1.6,0.994 3.902,6.367 5.93,13.285 0.204,0.689 0.421,9.479 0.616,10.197 0,0 0.576,0.039 1.039,0.039 0.577,0 1.103,-0.053 1.103,-0.053 0.199,-0.73 0.378,-9.521 0.585,-10.225 2.025,-6.898 4.322,-12.252 5.919,-13.244 0.282,-0.175 1.031,-0.726 0.634,-1.639 z"
             id="path53"
             inkscape:connector-curvature="0"
             style="fill:#f3e375" /></g></g><g
         id="g55"><path
           d="M 69.74,104.515"
           id="path57"
           inkscape:connector-curvature="0"
           style="fill:#a8a7a7" /></g></g></g></svg>