<?xml version="1.0" encoding="UTF-8" standalone="no"?>
<!-- Created with Inkscape (http://www.inkscape.org/) -->

<svg
   xmlns:dc="http://purl.org/dc/elements/1.1/"
   xmlns:cc="http://creativecommons.org/ns#"
   xmlns:rdf="http://www.w3.org/1999/02/22-rdf-syntax-ns#"
   xmlns:svg="http://www.w3.org/2000/svg"
   xmlns="http://www.w3.org/2000/svg"
   xmlns:sodipodi="http://sodipodi.sourceforge.net/DTD/sodipodi-0.dtd"
   xmlns:inkscape="http://www.inkscape.org/namespaces/inkscape"
   width="100"
   height="100"
   id="svg38565"
   version="1.1"
   inkscape:version="0.48.5 r"
   sodipodi:docname="comunicacio.svg">
  <defs
     id="defs38567">
    <clipPath
       clipPathUnits="userSpaceOnUse"
       id="clipPath252">
      <path
         inkscape:connector-curvature="0"
         d="m 0,1132 950,0 L 950,0 0,0 0,1132 z"
         id="path254" />
    </clipPath>
  </defs>
  <sodipodi:namedview
     id="base"
     pagecolor="#ffffff"
     bordercolor="#666666"
     borderopacity="1.0"
     inkscape:pageopacity="0.0"
     inkscape:pageshadow="2"
     inkscape:zoom="5.6"
     inkscape:cx="0.7345443"
     inkscape:cy="24.865172"
     inkscape:document-units="px"
     inkscape:current-layer="g264"
     showgrid="false"
     inkscape:window-width="1109"
     inkscape:window-height="703"
     inkscape:window-x="2502"
     inkscape:window-y="108"
     inkscape:window-maximized="0" />
  <metadata
     id="metadata38570">
    <rdf:RDF>
      <cc:Work
         rdf:about="">
        <dc:format>image/svg+xml</dc:format>
        <dc:type
           rdf:resource="http://purl.org/dc/dcmitype/StillImage" />
        <dc:title />
      </cc:Work>
    </rdf:RDF>
  </metadata>
  <g
     inkscape:label="Capa 1"
     inkscape:groupmode="layer"
     id="layer1"
     transform="translate(0,-952.36218)">
    <g
       transform="translate(-370.00714,-1639.745)"
       id="g26767">
      <g
         id="g26773"
         transform="matrix(1.0966067,0,0,1.0966067,-291.56507,344.26331)">
        <g
           id="g26881">
          <g
             transform="matrix(0.94256422,0,0,0.94256422,-1242.9868,118.85764)"
             id="g29043">
            <g
               transform="matrix(0.59838373,0,0,0.59838373,490.17884,376.10907)"
               id="g28877">
              <g
                 id="g28883"
                 transform="matrix(1.6880611,0,0,1.6880611,-1742.308,-1960.6717)">
                <g
                   transform="matrix(1.1972373,0,0,-1.1972373,1983.8005,3160.6222)"
                   id="g248">
                  <g
                     id="g250"
                     clip-path="url(#clipPath252)">
                    <g
                       id="g260"
                       transform="translate(423.3276,208.042)" />
                    <g
                       id="g264"
                       transform="matrix(1.0036585,0,0,1.0036585,498.38023,256.31683)">
                      <path
                         inkscape:connector-curvature="0"
                         d="m 0,0 -20.75,16.894 c -0.611,0.505 -1.592,0.269 -1.592,-0.526 l 0,-8.756 c 0,-0.796 0.315,-1.351 -0.482,-1.351 l -26.551,0 c -0.792,0 -2.133,-0.74 -2.133,-1.539 l 0,-9.513 c 0,-0.794 1.341,-0.893 2.133,-0.893 l 26.803,0 c 0.795,0 1.556,-1.2 1.556,-2 l 0,-10.524 c 0,-0.793 0.381,-1.028 0.993,-0.518 L 0.125,-1.846 C 0.734,-1.335 0.611,-0.505 0,0"
                         style="fill:#97c2b8;fill-opacity:1;fill-rule:nonzero;stroke:none"
                         id="path266" />
                    </g>
                    <g
                       id="g268"
                       transform="matrix(1.0036585,0,0,1.0036585,470.7737,247.94842)">
                      <path
                         inkscape:connector-curvature="0"
                         d="m 0,0 -26.547,0 c -0.795,0 -1.432,-0.163 -1.432,0.634 l 0,8.752 c 0,0.794 -0.507,1.029 -1.119,0.525 L -49.604,-6.983 c -0.611,-0.508 -0.615,-1.337 -0.005,-1.842 l 20.392,-16.886 c 0.608,-0.51 1.238,-0.274 1.238,0.521 l 0,10.525 c 0,0.795 0.385,1.391 1.177,1.391 l 26.802,0 c 0.793,0 1.188,0.701 1.188,1.502 l 0,9.515 C 1.188,-1.465 0.793,0 0,0"
                         style="fill:#8d4084;fill-opacity:1;fill-rule:nonzero;stroke:none"
                         id="path270" />
                    </g>
                  </g>
                </g>
              </g>
            </g>
          </g>
        </g>
      </g>
    </g>
  </g>
</svg>
