<?xml version="1.0" encoding="UTF-8" standalone="no"?>
<!-- Created with Inkscape (http://www.inkscape.org/) -->

<svg
   xmlns:dc="http://purl.org/dc/elements/1.1/"
   xmlns:cc="http://creativecommons.org/ns#"
   xmlns:rdf="http://www.w3.org/1999/02/22-rdf-syntax-ns#"
   xmlns:svg="http://www.w3.org/2000/svg"
   xmlns="http://www.w3.org/2000/svg"
   xmlns:sodipodi="http://sodipodi.sourceforge.net/DTD/sodipodi-0.dtd"
   xmlns:inkscape="http://www.inkscape.org/namespaces/inkscape"
   width="100"
   height="100"
   id="svg38565"
   version="1.1"
   inkscape:version="0.48.5 r"
   sodipodi:docname="confluencia.svg">
  <defs
     id="defs38567" />
  <sodipodi:namedview
     id="base"
     pagecolor="#ffffff"
     bordercolor="#666666"
     borderopacity="1.0"
     inkscape:pageopacity="0.0"
     inkscape:pageshadow="2"
     inkscape:zoom="7.9195959"
     inkscape:cx="-0.69650419"
     inkscape:cy="62.381037"
     inkscape:document-units="px"
     inkscape:current-layer="g29043"
     showgrid="false"
     inkscape:window-width="1920"
     inkscape:window-height="1056"
     inkscape:window-x="0"
     inkscape:window-y="24"
     inkscape:window-maximized="1" />
  <metadata
     id="metadata38570">
    <rdf:RDF>
      <cc:Work
         rdf:about="">
        <dc:format>image/svg+xml</dc:format>
        <dc:type
           rdf:resource="http://purl.org/dc/dcmitype/StillImage" />
        <dc:title></dc:title>
      </cc:Work>
    </rdf:RDF>
  </metadata>
  <g
     inkscape:label="Capa 1"
     inkscape:groupmode="layer"
     id="layer1"
     transform="translate(0,-952.36218)">
    <g
       transform="translate(-370.00714,-1639.745)"
       id="g26767">
      <g
         id="g26773"
         transform="matrix(1.0966067,0,0,1.0966067,-290.1365,350.33474)">
        <g
           id="g26881">
          <g
             transform="matrix(0.94256422,0,0,0.94256422,-1242.9868,118.85764)"
             id="g29043">
            <g
               id="g29045">
              <path
                 style="fill:#f7c192;fill-opacity:1"
                 inkscape:connector-curvature="0"
                 d="m 2004.3,2083.8 c -2.6,-1.1 -4.9,-1.8 -4.9,-1.8 l 0,0 -1.4,-1.7 -15.6,15.6 1.4,1.7 c 0,0 0.6,2.7 2.3,5.3 l 14.2,20.2 c 0,0 1.9,-3.2 1.9,-3.2 0,0 0,0 0,0 0,0 0,-0.1 0,-0.1 0,-0.3 0,-0.5 0,-0.5 l 0.1,-2.1 0,0 1.2,1.2 3.1,0.8 c 0,0 0.3,0 0.5,0 0,0 0.1,0 0.1,0 0,0 0,0 0,0 0,0 0,0 0.1,0 0,0 0,0 0,0 0,0 0,0 0.1,-0.1 0,0 0,0 0,0 0,0 0,0 0,0 0,0 0,0 0,0 0,0 0,0 0,0 0,0 0,0 0,0 0,0 0,0 0,0 l 0.5,-0.5 2.9,-4.6 c 0,0 0,0 0,0 l 0,0 c 0,0 0,0 0,0 0,0 0,0 0,0 0,0 0,0 0,-0.1 0,0 0,0 0,0 0,0 0,-0.1 0.1,-0.1 0,0 0,0 0,0 0,0 0,-0.1 0.1,-0.1 0,0 0,0 0,0 0,0 0,-0.1 0,-0.1 0.1,-0.2 0,-0.6 0,-0.6 l -0.8,-2.9 0.9,0.9 3,0.8 c 0,0 0.3,0 0.5,0 0,0 0.1,0 0.1,0 0,0 0,0 0,0 0,0 0,0 0.1,0 0,0 0,0 0,0 0,0 0,0 0.1,-0.1 0,0 0,0 0,0 0,0 0,0 0,0 0,0 0,0 0,0 0,0 0,0 0,0 0,0 0,0 0,0 l 1.7,-1.7 c 0,0 0,0 0,0 0,0 0,0 0,0 0,0 0,0 0,0 0,0 0,0 0,0 0,0 0,0 0,0 0,0 0,-0.1 0.1,-0.1 0,0 0,0 0,0 0,0 0,-0.1 0.1,-0.1 0,0 0,0 0,0 0,0 0,-0.1 0,-0.1 0.1,-0.2 0,-0.6 0,-0.6 l -0.8,-2.9 0.9,0.8 0.1,0.1 3,0.8 c 0,0 0.3,0 0.5,0 0,0 0.1,0 0.1,0 0,0 0,0 0,0 0,0 0,0 0.1,0 0,0 0,0 0,0 0,0 0,0 0.1,-0.1 0,0 0,0 0,0 0,0 0,0 0,0 0,0 0,0 0,0 0,0 0,0 0,0 0,0 0,0 0,0 0,0 0,0 0,0 l 1.7,-1.7 c 0,0 0,0 0,0 0,0 0,0 0,0 0,0 0,0 0,-0.1 0,0 0,0 0,0 0,0 0,0 0.1,-0.1 0,0 0,0 0,0 0,0 0,-0.1 0.1,-0.1 0,0 0,0 0,0 0,0 0,-0.1 0,-0.1 0.1,-0.2 0,-0.6 0,-0.6 l 0.2,-4.3 -4.4,-4.4 -14.2,-12.6 z"
                 id="path29047" />
              <polygon
                 style="fill:#f4ecda"
                 points="2013.1,2081.5 2013.2,2081.5 2013.3,2081.4 "
                 id="polygon29049" />
              <polygon
                 style="fill:#ffffff"
                 points="1999.9,2079.5 1995.5,2075 1994.6,2075.9 1979.1,2091.4 1976,2094.6 1980.4,2099 1982.9,2096.5 1998.5,2080.9 "
                 id="polygon29051" />
              <path
                 style="fill:#eeb488;fill-opacity:1"
                 inkscape:connector-curvature="0"
                 d="m 2026.8,2103.9 -0.3,-0.3 -0.7,-0.7 -0.9,-0.9 -0.5,-0.5 -4.3,-4.3 -0.6,-0.6 -0.4,-0.4 0.2,0.2 c 1.4,1.4 1.4,3.7 0,5.1 -1.4,1.4 -3.7,1.4 -5.1,0 l -0.1,-0.1 0,0 -0.1,-0.1 c 0,0 0.1,0.1 0.1,0.1 0,0 0,0 0,0 1.3,1.4 1.2,3.6 -0.1,5 -1.4,1.4 -3.7,1.4 -5.1,0 l -0.2,-0.3 0,0 c 0,0 0,0 0,0 1.4,1.4 1.4,3.7 0,5.1 -1.4,1.4 -3.7,1.4 -5.1,0 l -1,-0.8 c 1.2,1.2 1.4,2.9 0.6,4.3 -0.7,1.2 -2.1,1.8 -3.9,1.1 -0.1,0.2 1.4,2.9 1.3,3.1 0.3,0.1 2.9,-0.8 3.3,-0.6 0.7,1.3 2.3,1.2 1.1,2.4 l -1.1,1.1 c 0.6,0.5 1.3,0.7 2,0.8 l -0.6,0.6 c 1.4,1.1 3.5,1.1 4.8,-0.2 1.4,-1.4 1.4,-3.7 0,-5.1 l 1,0.8 c 1.4,1.4 3.7,1.4 5.1,0 1.4,-1.4 1.4,-3.7 0,-5.1 0,0 0,0 0,0 l 0,0 0.3,0.3 c 1.4,1.4 3.7,1.4 5.1,0 1.4,-1.4 1.4,-3.5 0.1,-5 0,0 0,0 0,0 0,0 -0.1,-0.1 -0.1,-0.1 l 0.1,0.1 0,0 0.1,0.1 c 1.4,1.4 3.7,1.4 5.1,0 1.3,-1.4 1.3,-3.7 -0.1,-5.1 z"
                 id="path29053" />
              <g
                 id="g29055">
                <path
                   style="fill:#e28552"
                   inkscape:connector-curvature="0"
                   d="m 2016.1,2113.6 c 0,0 0,0 0,0 l 0,0 c 0,0 0,0 0,0 z"
                   id="path29057" />
                <path
                   style="fill:#e28552"
                   inkscape:connector-curvature="0"
                   d="m 2021.5,2108.7 c 0,0 0.1,0.1 0.1,0.1 0,0 0,0 0,0 0,0 0,0 0,0 l 0,0 -0.1,-0.1 z"
                   id="path29059" />
              </g>
              <path
                 style="fill:#4c5d6c"
                 inkscape:connector-curvature="0"
                 d="m 1979.6,2056.6 -21.8,21.8 17.2,17.2 1,-1 3.2,-3.2 15.5,-15.5 0.9,-0.9 1.2,-1.2 -17.2,-17.2 z"
                 id="path29061" />
              <g
                 id="g29063">
                <path
                   style="fill:#13212d"
                   inkscape:connector-curvature="0"
                   d="m 1975.7,2088.9 1.9,-1.8 -1.6,1.6 0.7,0.9 -0.2,0.2 c -0.2,-0.5 -0.4,-0.8 -0.8,-0.9 z"
                   id="path29065" />
                <path
                   style="fill:#45525b"
                   inkscape:connector-curvature="0"
                   d="m 1977.6,2087 2.4,-2.3 c 0.2,-0.2 0.6,-0.2 0.8,0 0.2,0.2 0.2,0.6 0,0.8 l -4.1,4 -0.7,-0.9 1.6,-1.6 z"
                   id="path29067" />
                <path
                   style="fill:#ffffff"
                   inkscape:connector-curvature="0"
                   d="m 1976.5,2089.7 c -0.2,-0.3 -0.5,-0.6 -0.8,-0.8 -0.2,-0.1 -0.3,-0.2 -0.5,-0.2 -0.1,0 -0.3,-0.1 -0.4,-0.1 -1.1,0 -1.9,0.9 -1.9,2 0,1.1 0.9,2 1.9,2 1,0 1.9,-0.8 1.9,-1.9 0,0 0,-0.1 0,-0.1 0,-0.4 0,-0.6 -0.2,-0.9 z"
                   id="path29069" />
              </g>
            </g>
            <path
               style="fill:#ea9a76;fill-opacity:1"
               inkscape:connector-curvature="0"
               d="m 2004.2,2116 c -0.8,-0.1 -1.6,0.1 -2.3,0.6 0.9,-1.3 0.7,-3.2 -0.4,-4.4 l 0,0 c 0,0 0,0 0,0 -1.4,-1.4 -3.6,-1.4 -5,0 1.4,-1.4 1.4,-3.6 0,-5 -0.5,-0.5 -1.2,-0.8 -1.8,-1 -1,-0.2 -2,0 -2.8,0.6 0.2,-0.2 0.3,-0.5 0.4,-0.8 0.2,-0.6 0.3,-1.2 0.2,-1.9 -0.1,-0.7 -0.4,-1.4 -1,-1.9 -0.9,-0.8 -2,-1.2 -3.1,-1 -0.7,0.1 -1.3,0.4 -1.9,1 l -0.6,0.6 -2.5,2.5 c -1.4,1.4 -1.4,3.6 0,5 1.3,1.3 3.2,1.4 4.6,0.3 -1,1.4 -0.9,3.4 0.3,4.6 1.4,1.4 3.6,1.4 5,0 -1.4,1.4 -1.4,3.6 0,5 1.2,1.2 3,1.4 4.4,0.5 -0.9,1.4 -0.7,3.2 0.5,4.4 1.4,1.4 3.6,1.4 5,0 l 1.9,-1.9 1.2,-1.1 c 1.4,-1.4 1.4,-3.6 0,-5 -0.5,-0.7 -1.3,-1 -2.1,-1.1 z"
               id="path29071" />
            <path
               style="fill:#ea9a76;fill-opacity:1"
               inkscape:connector-curvature="0"
               d="m 2029.5,2096.3 -15.8,-15.3 -0.6,0.5 -3.5,2.3 -4.9,0 0,0 c -0.2,0 -0.3,0 -0.5,0 -0.8,0.1 -1.6,0.5 -2.3,1.1 l -5,4.8 -2.3,2.2 c -1,1 -1.3,2.4 -1,3.6 0,0 0,0 0,0.1 0.2,0.6 0.5,1.2 0.9,1.6 l 0,0 c 1.5,1.5 3.9,1.5 5.4,0 l 5.5,-5.3 0,0 c 0,0 2.1,-1.5 3.3,-0.9 0.4,0.2 1.6,0.8 3,1.5 2.5,1.2 5.3545,3.3183 6.3545,3.8183 l 1.6591,1.3568 0.5751,0.5319 0.4113,0.2385 0.6,0.2545 4.3,4.3 0.7,0.7 c 0.3,-0.4 0.7,-0.8 1,-1.3 1,-1.5 2.3,-3.6 2.7,-4.8 z"
               id="path29073"
               sodipodi:nodetypes="cccccccccccccccccsccccccccccc" />
            <polygon
               style="fill:#4c5d6c"
               points="2035.2,2094.7 2033,2092.5 2017.4,2076.9 2017.4,2076.9 2017.1,2076.6 2015.7,2075.2 2014.5,2074 2031.6,2056.8 2053.4,2078.6 2036.3,2095.8 "
               id="polygon29075" />
            <path
               style="fill:#45525b"
               inkscape:connector-curvature="0"
               d="m 2032.9,2087 -2.4,-2.3 c -0.2,-0.2 -0.6,-0.2 -0.8,0 -0.2,0.2 -0.2,0.6 0,0.8 l 4.6,4.5 0.7,-0.9 -2.1,-2.1 z"
               id="path29077" />
            <path
               style="fill:#ffffff"
               inkscape:connector-curvature="0"
               d="m 2035.8,2088.6 c -0.2,0 -0.3,0 -0.4,0.1 -0.2,0 -0.4,0.1 -0.5,0.2 -0.3,0.2 -0.6,0.5 -0.8,0.8 -0.1,0.3 -0.2,0.6 -0.2,0.9 0,0 0,0.1 0,0.1 0.1,1 0.9,1.9 1.9,1.9 1.1,0 1.9,-0.9 1.9,-2 0,-1.1 -0.9,-2 -1.9,-2 z"
               id="path29079" />
            <polygon
               style="fill:#ffffff"
               points="2013.3,2081.4 2013.2,2081.5 2028.7,2097.1 2029.7,2098 2030.8,2099.2 2035.2,2094.7 2033,2092.5 2032.5,2092 2017.4,2076.9 2017.1,2076.6 2015.7,2075.2 2011.3,2079.6 2013.1,2081.5 "
               id="polygon29081" />
          </g>
        </g>
      </g>
    </g>
  </g>
</svg>
