<?xml version="1.0" encoding="utf-8"?>
<!-- Generator: Adobe Illustrator 18.0.0, SVG Export Plug-In . SVG Version: 6.00 Build 0)  -->
<!DOCTYPE svg PUBLIC "-//W3C//DTD SVG 1.1//EN" "http://www.w3.org/Graphics/SVG/1.1/DTD/svg11.dtd">
<svg version="1.1" id="Capa_1" xmlns="http://www.w3.org/2000/svg" xmlns:xlink="http://www.w3.org/1999/xlink" x="0px" y="0px"
	 viewBox="0 0 100 72" enable-background="new 0 0 100 72" xml:space="preserve">
<path fill="#8D4084" d="M92.6,17.7H48.8l5.2-2.4c3.8-1.7,5.4-6.2,3.7-9.9c-1.7-3.8-6.2-5.4-9.9-3.7l-19.8,9c-2,0.9-2.8,2.4-4.1,4.6
	c0,0-3.2,5.9-4.4,9H4.2c-1.9,0-3.5,1.5-3.5,3.2v34.9c0,1.8,1.6,3.2,3.5,3.2h20.7c1.6,2.4,4.4,5.3,9.3,5.3c3.8,0,11.7-0.1,18.9-0.2
	c0.2,0,0.4,0.1,0.7,0.1h11.9c3.1-0.1,5.6-2.6,5.5-5.7c-0.1-3-2.5-5.5-5.5-5.5h-0.5v-0.8h6.3c3.6,0,6.4-2.9,6.4-6.4c0,0,0,0,0,0
	c0-3.6-2.9-6.4-6.4-6.4c0,0,0,0,0,0h-6.3v-0.7h6.4c4-0.1,7.2-3.4,7.1-7.4c-0.1-3.9-3.2-7.1-7.1-7.1h-6.4v-0.8h27.4
	c3.4,0,6.1-2.7,6.1-6.1S96,17.7,92.6,17.7L92.6,17.7z"/>
</svg>
