<?xml version="1.0" encoding="UTF-8" standalone="no"?>
<!-- Created with Inkscape (http://www.inkscape.org/) -->

<svg
   xmlns:dc="http://purl.org/dc/elements/1.1/"
   xmlns:cc="http://creativecommons.org/ns#"
   xmlns:rdf="http://www.w3.org/1999/02/22-rdf-syntax-ns#"
   xmlns:svg="http://www.w3.org/2000/svg"
   xmlns="http://www.w3.org/2000/svg"
   xmlns:sodipodi="http://sodipodi.sourceforge.net/DTD/sodipodi-0.dtd"
   xmlns:inkscape="http://www.inkscape.org/namespaces/inkscape"
   width="100"
   height="100"
   id="svg8742"
   version="1.1"
   inkscape:version="0.48.5 r"
   sodipodi:docname="feminisme.svg">
  <defs
     id="defs8744" />
  <sodipodi:namedview
     id="base"
     pagecolor="#ffffff"
     bordercolor="#666666"
     borderopacity="1.0"
     inkscape:pageopacity="0.0"
     inkscape:pageshadow="2"
     inkscape:zoom="3.959798"
     inkscape:cx="80.653618"
     inkscape:cy="66.717472"
     inkscape:document-units="px"
     inkscape:current-layer="layer1"
     showgrid="false"
     fit-margin-top="0"
     fit-margin-left="0"
     fit-margin-right="0"
     fit-margin-bottom="0"
     inkscape:window-width="1920"
     inkscape:window-height="1056"
     inkscape:window-x="1920"
     inkscape:window-y="24"
     inkscape:window-maximized="1" />
  <metadata
     id="metadata8747">
    <rdf:RDF>
      <cc:Work
         rdf:about="">
        <dc:format>image/svg+xml</dc:format>
        <dc:type
           rdf:resource="http://purl.org/dc/dcmitype/StillImage" />
        <dc:title />
      </cc:Work>
    </rdf:RDF>
  </metadata>
  <g
     inkscape:label="Capa 1"
     inkscape:groupmode="layer"
     id="layer1"
     transform="translate(-338.125,-447.56218)">
    <path
       style="fill:#7ab4c5"
       inkscape:connector-curvature="0"
       d="m 388.22515,497.79124 c 0,0 0.31586,-8.8439 0,-9.15976 V 472.8388 c 0,-1.26341 -1.26341,-2.52683 -2.52682,-2.52683 -1.26342,0 -2.52683,1.26342 -2.52683,2.52683 v 10.73903 c -0.31586,0 -0.63171,-0.31586 -0.94756,-0.31586 v -10.42317 -5.05366 c 0,-1.57926 -1.26342,-2.52683 -2.52683,-2.52683 -1.57927,0 -2.52683,1.26342 -2.52683,2.52683 v 14.84512 h -1.26342 v -14.84512 -2.21097 c 0,-1.26342 -1.26341,-2.52683 -2.52683,-2.52683 -1.26341,0 -2.52683,1.26341 -2.52683,2.52683 v 2.21097 15.47683 c -0.31585,0 -0.6317,0.31586 -0.94756,0.31586 v -15.79269 c 0,-1.57926 -1.26341,-2.52683 -2.52683,-2.52683 -1.26341,0 -2.52683,1.26342 -2.52683,2.52683 v 20.84634 c 0,0 0,4.42196 0,4.42196 l -1.26341,-0.94757 -5.68537,-5.05365 c -0.6317,-0.63171 -1.26341,-0.63171 -1.89512,-0.63171 -0.6317,0 -1.26341,0.31585 -1.89512,0.63171 -0.94756,0.94756 -0.94756,2.52683 0,3.79024 l 10.10732,10.10732 c 0,0.31585 1.57927,2.21097 1.57927,2.21097 0.94756,1.57927 2.21097,2.84268 3.79024,3.79025 v 35.69146 c 4.7378,2.21097 9.79146,3.79024 15.16097,4.42195 v -40.74512 c 2.21098,-2.21098 3.47439,-5.05366 3.47439,-8.52805 z"
       id="path1827" />
    <path
       style="fill:#bcdae2"
       inkscape:connector-curvature="0"
       d="m 416.02028,491.15831 c 0,0 1.26341,-1.89512 1.57926,-2.21097 l 10.10732,-10.10732 c 0.94756,-0.94756 0.94756,-2.52683 0,-3.79024 -0.63171,-0.63171 -1.26341,-0.63171 -1.89512,-0.63171 -0.63171,0 -1.26342,0.31585 -1.89512,0.63171 l -5.68537,5.05366 -1.26341,0.94756 c 0,0 0,-4.42195 0,-4.42195 V 455.7827 c 0,-1.57926 -1.26342,-2.52682 -2.52683,-2.52682 -1.26342,0 -2.52683,1.26341 -2.52683,2.52682 v 15.79269 c -0.31586,0 -0.63171,-0.31586 -0.94756,-0.31586 v -15.47683 -2.21097 c 0,-1.57927 -1.26342,-2.52683 -2.52683,-2.52683 -1.26342,0 -2.52683,1.26341 -2.52683,2.52683 v 2.21097 14.84513 h -1.57927 V 455.7827 c 0,-1.57926 -1.26341,-2.52682 -2.52683,-2.52682 -1.57927,0 -2.52683,1.26341 -2.52683,2.52682 v 5.05366 10.42317 c -0.31585,0 -0.6317,0.31586 -0.94756,0.31586 v -10.73903 c 0,-1.26341 -1.26341,-2.52683 -2.52683,-2.52683 -1.26341,0 -2.52683,1.26342 -2.52683,2.52683 v 15.79269 c -0.31585,0.31585 0,9.15975 0,9.15975 0,3.15854 1.26342,6.00122 3.47439,7.89634 v 53.06342 c 5.36952,-0.31586 10.42317,-1.57927 15.16098,-3.15854 V 494.6327 c 1.89512,-0.6317 3.15853,-1.89512 4.1061,-3.47439 z"
       id="path1829" />
    <path
       style="fill:#8d4084;fill-opacity:1"
       inkscape:connector-curvature="0"
       d="m 380.35407,485.6727 v 60.15418 c 3.09617,0.4423 6.19235,0.4423 9.28852,0.4423 3.98078,0 7.96157,-0.4423 11.94237,-0.88462 V 485.6727 h -21.23089 z"
       id="path1831" />
    <path
       style="fill:#652e5e;fill-opacity:1"
       inkscape:connector-curvature="0"
       d="m 407.33499,467.53799 0,0 0,-15.48086 h -33.61557 v 23.44244 h 3.53847 c 0,0 0,0 0,0 h -3.53847 c 0,0.88462 0,0.88462 0,0.88462 0,7.51928 5.75004,12.38468 13.2693,12.38468 h 7.07696 c 8.84622,0 13.26931,-7.07696 13.26931,-8.40389 v -5.30772 -7.51927 z m -25.65399,7.96158 c 0,0 0,0 0,0 h 7.96159 0 -7.96159 z"
       id="path1833" />
    <g
       transform="matrix(4.4231008,0,0,4.4231008,-1955.9277,-413.986)"
       id="g1835"
       style="fill:#ca5cbd;fill-opacity:1">
      <path
         style="fill:#ca5cbd;fill-opacity:1"
         inkscape:connector-curvature="0"
         d="m 532.3,195.8 0,0 c 0,-0.5 -0.4,-0.8 -0.8,-0.8 -0.5,0 -0.8,0.4 -0.8,0.8 l 0,2.1 c 0,0.5 0.4,0.8 0.8,0.8 0.5,0 0.8,-0.4 0.8,-0.8 l 0,-2.1 z"
         id="path1837" />
      <path
         style="fill:#ca5cbd;fill-opacity:1"
         inkscape:connector-curvature="0"
         d="m 530.3,195.8 c 0,-0.5 -0.4,-0.8 -0.8,-0.8 -0.5,0 -0.8,0.4 -0.8,0.8 l 0,2.1 0,0 c 0,0.5 0.4,0.8 0.8,0.8 0.5,0 0.8,-0.4 0.8,-0.8 l 0,-2.1 z"
         id="path1839" />
      <path
         style="fill:#ca5cbd;fill-opacity:1"
         inkscape:connector-curvature="0"
         d="m 534.3,196.5 0,-0.7 c 0,-0.5 -0.4,-0.8 -0.8,-0.8 -0.5,0 -0.8,0.4 -0.8,0.8 l 0,1.5 h 0 v 0.7 c 0,0.5 0.4,0.8 0.8,0.8 0.5,0 0.8,-0.4 0.8,-0.8 l 0,-1.5 0,0 z"
         id="path1841" />
      <path
         style="fill:#ca5cbd;fill-opacity:1"
         inkscape:connector-curvature="0"
         d="m 528.4,195.8 c 0,-0.5 -0.4,-0.8 -0.8,-0.8 -0.5,0 -0.8,0.4 -0.8,0.8 v 2.1 c 0,0.5 0.4,0.8 0.8,0.8 0.5,0 0.8,-0.4 0.8,-0.8 l 0,-2.1 z"
         id="path1843" />
    </g>
    <path
       style="fill:#8d4084;fill-opacity:1"
       inkscape:connector-curvature="0"
       d="m 408.66192,474.61495 c 0,-2.65387 -0.88462,-5.75002 -1.32693,-7.51927 l -2.65387,-7.51926 c -0.44229,-1.76925 -1.76922,-3.53849 -3.53847,-3.53849 -0.88462,0 -2.65386,0.88462 -3.09617,1.32693 -0.44232,0.88463 -0.88462,1.76924 -0.88462,2.65386 l 2.65386,10.61544 -9.28851,4.86541 c -6.63465,3.53848 -3.98079,13.71162 -0.88462,13.71162 h 5.30771 c 8.40389,0 12.827,-6.19234 13.26931,-7.96158 0,-1.32693 0.44231,-3.98078 0.44231,-6.63466 z"
       id="path1845" />
  </g>
</svg>
