<?xml version="1.0" encoding="UTF-8" standalone="no"?>
<!-- Generator: Adobe Illustrator 16.0.0, SVG Export Plug-In . SVG Version: 6.00 Build 0)  -->

<svg
   xmlns:dc="http://purl.org/dc/elements/1.1/"
   xmlns:cc="http://creativecommons.org/ns#"
   xmlns:rdf="http://www.w3.org/1999/02/22-rdf-syntax-ns#"
   xmlns:svg="http://www.w3.org/2000/svg"
   xmlns="http://www.w3.org/2000/svg"
   xmlns:sodipodi="http://sodipodi.sourceforge.net/DTD/sodipodi-0.dtd"
   xmlns:inkscape="http://www.inkscape.org/namespaces/inkscape"
   version="1.1"
   id="Layer_1"
   x="0px"
   y="0px"
   width="136.833px"
   height="136.834px"
   viewBox="0 0 136.833 136.834"
   style="enable-background:new 0 0 136.833 136.834;"
   xml:space="preserve"
   inkscape:version="0.48.5 r"
   sodipodi:docname="lupa.svg"><metadata
     id="metadata41"><rdf:RDF><cc:Work
         rdf:about=""><dc:format>image/svg+xml</dc:format><dc:type
           rdf:resource="http://purl.org/dc/dcmitype/StillImage" /></cc:Work></rdf:RDF></metadata><defs
     id="defs39" /><sodipodi:namedview
     pagecolor="#ffffff"
     bordercolor="#666666"
     borderopacity="1"
     objecttolerance="10"
     gridtolerance="10"
     guidetolerance="10"
     inkscape:pageopacity="0"
     inkscape:pageshadow="2"
     inkscape:window-width="640"
     inkscape:window-height="480"
     id="namedview37"
     showgrid="false"
     inkscape:zoom="1.7247175"
     inkscape:cx="68.416496"
     inkscape:cy="68.417"
     inkscape:window-x="0"
     inkscape:window-y="24"
     inkscape:window-maximized="0"
     inkscape:current-layer="g5" /><style
     type="text/css"
     id="style3">
	.st0{fill-rule:evenodd;clip-rule:evenodd;fill:#08090B;}
	.st1{fill:#7BCCC7;}
	.st2{fill:#48584B;}
	.st3{fill:#AC782B;}
	.st4{fill:#49A0AE;}
	.st5{fill:#121212;}
	.st6{fill:#E1E1E1;}
	.st7{fill:#E3E2E2;}
	.st8{fill:none;stroke:#202121;stroke-width:0.5;stroke-miterlimit:10;}
	.st9{fill:#E4E4E4;}
	.st10{fill:#4ABC96;}
	.st11{fill:#E5E5E5;}
	.st12{fill:#4B4A4B;}
	.st13{fill:#E84849;stroke:#FFFFFF;stroke-width:3;}
	.st14{fill:none;stroke:#121212;stroke-miterlimit:10;}
	.st15{fill:#E79E2D;}
	.st16{fill:#E7E7E7;}
	.st17{fill:#4D4D4D;}
	.st18{fill:#4D8A97;}
	.st19{fill:#E84849;}
	.st20{fill:#807F7F;}
	.st21{fill:#B03738;}
	.st22{fill:#818282;}
	.st23{fill:#81C681;}
	.st24{opacity:0.5;fill:#202121;}
	.st25{fill:#B2B2B2;}
	.st26{fill:#B2D0CC;}
	.st27{fill:#83CECA;}
	.st28{fill:#1A1919;}
	.st29{fill:#B5DBAF;}
	.st30{fill:#EB9682;}
	.st31{fill:#EBEDEF;}
	.st32{fill:#B8B9BA;}
	.st33{fill:#ECA448;}
	.st34{fill:#1E261F;}
	.st35{fill:#ECECEC;}
	.st36{fill:#EDBF00;}
	.st37{fill:#EDC92C;}
	.st38{fill:#EDEEEF;}
	.st39{fill:#505251;}
	.st40{fill:#EFC849;}
	.st41{opacity:0.15;fill:#626463;}
	.st42{opacity:0.3;fill:url(#SVGID_16_);}
	.st43{opacity:0.3;fill:url(#SVGID_17_);}
	.st44{opacity:0.3;fill:url(#SVGID_27_);}
	.st45{opacity:0.3;fill:url(#SVGID_28_);}
	.st46{opacity:0.3;fill:url(#SVGID_33_);}
	.st47{opacity:0.3;fill:url(#SVGID_34_);}
	.st48{opacity:0.3;fill:url(#SVGID_37_);}
	.st49{opacity:0.3;fill:url(#SVGID_38_);}
	.st50{fill:none;stroke:#B8B9BA;stroke-width:0.5;stroke-miterlimit:10;}
	.st51{fill:#202121;}
	.st52{fill:#232C25;}
	.st53{fill:#F28400;}
	.st54{fill:#256533;}
	.st55{fill:#F3F4F5;}
	.st56{fill:#263A45;}
	.st57{fill:#265E67;}
	.st58{fill:#F5E554;}
	.st59{fill:#F6A2A3;}
	.st60{fill:#28302A;}
	.st61{fill:#5CA39B;}
	.st62{fill:#5E7564;}
	.st63{fill-rule:evenodd;clip-rule:evenodd;fill:#EDC92C;}
	.st64{opacity:0.2;fill:#FFFFFF;}
	.st65{fill:url(#SVGID_1_);}
	.st66{fill:url(#SVGID_2_);}
	.st67{fill:url(#SVGID_3_);}
	.st68{fill:url(#SVGID_4_);}
	.st69{fill:url(#SVGID_5_);}
	.st70{fill:url(#SVGID_6_);}
	.st71{fill:url(#SVGID_7_);}
	.st72{fill:#C2DFDD;}
	.st73{fill:#C5E2E5;}
	.st74{fill:#98979B;}
	.st75{fill:#989897;}
	.st76{fill:#989A9A;}
	.st77{fill:#C9C9C8;}
	.st78{fill:#2F3A32;}
	.st79{fill:#2F8442;}
	.st80{opacity:0.7;}
	.st81{fill:#60C3B6;}
	.st82{fill:#FFFFFF;}
	.st83{fill:#626463;}
	.st84{fill:#636463;}
	.st85{fill-rule:evenodd;clip-rule:evenodd;fill:#F37C2A;}
	.st86{fill:none;}
	.st87{fill:#676767;}
	.st88{fill:#676969;}
	.st89{fill:#67B4AD;}
	.st90{fill:#67B8CB;}
	.st91{fill:#CBCBC9;}
	.st92{fill:#CCCBCF;}
	.st93{fill:#CCE9E9;}
	.st94{fill:#CDCCCB;}
	.st95{fill:#CDE9E6;}
	.st96{fill:#30302F;}
	.st97{fill-rule:evenodd;clip-rule:evenodd;fill:#F9C645;}
	.st98{opacity:0.7;fill:#FFFFFF;}
	.st99{fill:#343433;}
	.st100{fill:#343434;}
	.st101{fill:#344E5D;}
	.st102{fill:#357180;}
	.st103{opacity:0.25;fill:#DFF1F5;}
	.st104{fill:#6CC077;}
	.st105{fill:#6EBCB5;}
	.st106{fill:none;stroke:#67B8CB;stroke-width:0.5;stroke-miterlimit:10;}
	.st107{fill:#D2D2D2;}
	.st108{fill:#D3D4E3;}
	.st109{fill:#D4A160;}
	.st110{fill:#08090B;}
	.st111{fill:#3CB881;}
	.st112{fill:#D7DABA;}
	.st113{fill:#3D4040;}
	.st114{fill:url(#SVGID_10_);}
	.st115{fill:url(#SVGID_11_);}
	.st116{fill:url(#SVGID_12_);}
	.st117{fill:url(#SVGID_13_);}
	.st118{fill:url(#SVGID_22_);}
	.st119{fill:url(#SVGID_23_);}
	.st120{fill:url(#SVGID_24_);}
	.st121{fill:url(#SVGID_29_);}
	.st122{fill:url(#SVGID_30_);}
	.st123{fill:url(#SVGID_41_);}
	.st124{opacity:0.1;fill:#FFFFFF;}
	.st125{fill:#A07238;}
	.st126{fill:#717171;}
	.st127{clip-path:url(#SVGID_15_);}
	.st128{clip-path:url(#SVGID_19_);}
	.st129{clip-path:url(#SVGID_21_);}
	.st130{clip-path:url(#SVGID_26_);}
	.st131{clip-path:url(#SVGID_32_);}
	.st132{clip-path:url(#SVGID_36_);}
	.st133{clip-path:url(#SVGID_40_);}
	.st134{fill:#A4A5A4;}
	.st135{fill:#767676;}
	.st136{fill:#767879;}
	.st137{fill:#DBF0F5;}
	.st138{fill:#DC494A;}
	.st139{fill:#DCDBDC;}
	.st140{fill:#0EA24A;}
	.st141{fill:#404040;}
	.st142{fill:#DFDFDF;}
	.st143{fill:#447A74;}
</style><g
     id="g5"><g
       id="g7" /><g
       id="g15"
       transform="matrix(1.6532871,0,0,1.6532871,-44.985495,-44.40563)"><g
         id="g17"><path
           class="st125"
           d="m 35.529,106.439 c -1.418,1.417 -3.719,1.417 -5.135,0 l 0,0 c -1.42,-1.42 -1.42,-3.718 0,-5.137 l 26.58,-26.581 c 1.416,-1.414 3.715,-1.414 5.135,0.003 l 0,0 c 1.418,1.415 1.418,3.713 -0.002,5.134 l -26.578,26.581 z"
           id="path19"
           inkscape:connector-curvature="0"
           style="fill:#a07238" /><path
           class="st109"
           d="m 39.08,107.413 c -1.242,1.239 -4.41,0.085 -7.076,-2.583 l 0,0 C 29.334,102.162 28.18,98.993 29.42,97.754 L 57.649,69.522 c 1.242,-1.239 4.41,-0.083 7.078,2.585 l 0,0 c 2.668,2.663 3.826,5.832 2.582,7.078 L 39.08,107.413 z"
           id="path21"
           inkscape:connector-curvature="0"
           style="fill:#d4a160" /><path
           class="st81"
           d="m 79.287,83.651 c -14.416,0 -26.107,-11.688 -26.107,-26.107 0,-14.42 11.691,-26.106 26.107,-26.106 14.422,0 26.107,11.687 26.107,26.106 10e-4,14.419 -11.685,26.107 -26.107,26.107 z"
           id="path23"
           inkscape:connector-curvature="0"
           style="fill:#60c3b6" /><circle
           class="st27"
           cx="80.829002"
           cy="60.061001"
           r="20.509001"
           id="circle25"
           d="m 101.338,60.061001 c 0,11.326808 -9.182189,20.509001 -20.508998,20.509001 -11.326808,0 -20.509,-9.182193 -20.509,-20.509001 0,-11.326809 9.182192,-20.509001 20.509,-20.509001 11.326809,0 20.508998,9.182192 20.508998,20.509001 z"
           sodipodi:cx="80.829002"
           sodipodi:cy="60.061001"
           sodipodi:rx="20.509001"
           sodipodi:ry="20.509001"
           style="fill:#83ceca" /><path
           class="st125"
           d="m 56.342,70.702 -3.713,3.711 c 0,0 3.391,7.49 10.684,8.64 l 2.693,-2.692 v -3.482 l -9.664,-6.177 z"
           id="path27"
           inkscape:connector-curvature="0"
           style="fill:#a07238" /><g
           id="g29"><g
             id="g31"><path
               class="st31"
               d="m 59.051,37.306 c -11.18,11.177 -11.18,29.301 0,40.476 11.18,11.18 29.299,11.18 40.477,0.003 11.178,-11.178 11.178,-29.302 0,-40.479 -11.178,-11.179 -29.298,-11.179 -40.477,0 z m 35.375,35.376 c -8.357,8.359 -21.912,8.361 -30.273,0 -8.361,-8.358 -8.361,-21.916 0,-30.273 8.361,-8.361 21.916,-8.361 30.273,-0.002 8.363,8.361 8.359,21.916 0,30.275 z"
               id="path33"
               inkscape:connector-curvature="0"
               style="fill:#ebedef" /></g></g><path
           class="st98"
           d="m 65.123,54.744 c -0.535,1.168 -0.027,2.559 1.141,3.096 1.172,0.546 2.563,0.026 3.1,-1.137 0,0 0.023,-0.054 0.137,-0.259 0.809,-1.482 4.711,-7.774 12.963,-8.542 1,-0.098 1.789,-0.809 2.033,-1.728 0.066,-0.259 0.094,-0.534 0.066,-0.821 C 84.434,44.071 83.297,43.126 82.014,43.255 69.85,44.507 65.242,54.508 65.123,54.744 z"
           id="path35"
           inkscape:connector-curvature="0"
           style="opacity:0.7;fill:#ffffff" /></g></g></g></svg>