<?xml version="1.0" encoding="utf-8"?>
<!-- Generator: Adobe Illustrator 18.0.0, SVG Export Plug-In . SVG Version: 6.00 Build 0)  -->
<!DOCTYPE svg PUBLIC "-//W3C//DTD SVG 1.1//EN" "http://www.w3.org/Graphics/SVG/1.1/DTD/svg11.dtd">
<svg version="1.1" id="Capa_1" xmlns="http://www.w3.org/2000/svg" xmlns:xlink="http://www.w3.org/1999/xlink" x="0px" y="0px"
	 viewBox="0 0 108.1 95" enable-background="new 0 0 108.1 95" xml:space="preserve">
<g>
	<path fill="none" stroke="#F45F43" stroke-width="3" stroke-miterlimit="10" d="M105.5,33.2c-1.8-1.3-3.6-2.4-5.4-3.3l0.1,47.9
		c0,0-18.6-6.2-34.1-2.1c-0.8,4.6-5.5,8.1-11.2,8.1c-5.5,0-10.1-3.3-11.2-7.7C28,71.2,8.1,77.9,8.1,77.9L8.1,29.9
		c-1.7,1-3.5,2.1-5.4,3.3l0.1,48.5c0,2.6,2,4,4.4,3.2c0,0,17.9-5.7,33.9-1.3c1.5,3.9,6.6,6.8,12.9,7v0.1c0,0,0.1,0,0.1-0.1
		c0.1,0,0.2,0,0.3,0c0,0,0,0,0.1,0.1v-0.1c0.2,0,0.3,0,0.5,0c6.9,0,12.6-3.2,14-7.5c15.5-3.6,32.3,1.6,32.3,1.6
		c2.4,0.8,4.4-0.7,4.4-3.3L105.5,33.2z"/>
	<path fill="none" stroke="#F45F43" stroke-width="3" stroke-miterlimit="10" d="M54.1,74v0.2C54.2,74.2,54.2,74.1,54.1,74
		c0.1,0.1,0.1,0.1,0.2,0.2V74c14.4-14,41.6-5.7,41.6-5.7l0-47.1C70.4,8.9,55,23,54.2,23.8C53.4,23,38,8.9,12.5,21.3l0,47.1
		C12.5,68.4,39.7,60.1,54.1,74z M64.2,50.1c3.8-2,7.9-3,12.1-3c3,0,5.9,0.5,8.8,1.5c0.9,0.3,1.4,1.3,1.1,2.2
		c-0.3,0.9-1.3,1.4-2.2,1.1c-2.5-0.9-5.1-1.3-7.7-1.3c-3.6,0-7.2,0.9-10.5,2.6c-0.8,0.4-1.9,0.1-2.3-0.7
		C63,51.6,63.3,50.6,64.2,50.1z M45,52.5c-0.4,0.8-1.5,1.2-2.3,0.7c-3.3-1.7-6.9-2.6-10.5-2.6c-2.6,0-5.2,0.4-7.7,1.3
		c-0.9,0.3-1.9-0.2-2.2-1.1c-0.3-0.9,0.2-1.9,1.1-2.2c2.8-1,5.8-1.5,8.8-1.5c4.1,0,8.3,1,12.1,3C45.1,50.6,45.4,51.6,45,52.5z
		 M45,43.5c-0.4,0.8-1.5,1.2-2.3,0.7c-3.3-1.7-6.9-2.6-10.5-2.6c-2.6,0-5.2,0.4-7.7,1.3c-0.9,0.3-1.9-0.2-2.2-1.1
		c-0.3-0.9,0.2-1.9,1.1-2.2c2.8-1,5.8-1.5,8.8-1.5c4.1,0,8.3,1,12.1,3C45.1,41.6,45.4,42.6,45,43.5z M23.4,30.6
		c2.8-1,5.8-1.5,8.8-1.5c4.2,0,8.3,1,12.1,3c0.8,0.4,1.2,1.5,0.7,2.3c-0.4,0.8-1.5,1.2-2.3,0.7c-3.3-1.7-6.9-2.6-10.5-2.6
		c-2.6,0-5.2,0.4-7.6,1.3c-0.9,0.3-1.9-0.2-2.2-1.1C22,31.9,22.5,30.9,23.4,30.6z"/>
</g>
<g>
	<path fill="#FFFFFF" stroke="#8E4085" stroke-width="4" stroke-miterlimit="10" d="M105.7,14.7c1.3-3.2,0.4-7.4-2.6-10.4
		c-3-3-7.1-3.9-10.4-2.6c-0.8,0.2-1.5,0.6-2.2,1.2l-3,3l13.9,13.9l3-3C105.1,16.2,105.5,15.4,105.7,14.7z"/>
	<path fill="#FFFFFF" stroke="#8E4085" stroke-width="4" stroke-miterlimit="10" d="M67.8,25.7c-0.7,0.7-1.1,1.6-1.3,2.5
		c0,0,0,0.1,0,0.1l-0.4,2l11,11l2-0.4c0,0,0.1,0,0.1,0c0.9-0.1,1.8-0.6,2.5-1.3l5.6-5.6L73.4,20.1L67.8,25.7z"/>
	<polygon fill="#FFFFFF" stroke="#8E4085" stroke-width="4" stroke-miterlimit="10" points="87,28.6 84.4,26.1 94.6,15.8 86.1,7.4 
		74.9,18.7 88.8,32.6 100,21.3 97.2,18.4 	"/>
	<path fill="#FFFFFF" stroke="#8E4085" stroke-width="4" stroke-miterlimit="10" d="M63.8,41.6c-0.1,0.3,0,0.5,0,0.7l4.2-4.2
		c0.4-0.4,1-0.4,1.4-0.1c0.4,0.4,0.3,1-0.1,1.4l-4.2,4.2c0.2,0,0.5,0.1,0.7,0l8.9-1.8l-9.2-9.2L63.8,41.6z"/>
</g>
</svg>
