<?xml version="1.0" encoding="UTF-8" standalone="no"?>
<!-- Created with Inkscape (http://www.inkscape.org/) -->

<svg
   xmlns:dc="http://purl.org/dc/elements/1.1/"
   xmlns:cc="http://creativecommons.org/ns#"
   xmlns:rdf="http://www.w3.org/1999/02/22-rdf-syntax-ns#"
   xmlns:svg="http://www.w3.org/2000/svg"
   xmlns="http://www.w3.org/2000/svg"
   xmlns:sodipodi="http://sodipodi.sourceforge.net/DTD/sodipodi-0.dtd"
   xmlns:inkscape="http://www.inkscape.org/namespaces/inkscape"
   width="100"
   height="100"
   id="svg38565"
   version="1.1"
   inkscape:version="0.48.5 r"
   sodipodi:docname="comunicacio.svg">
  <defs
     id="defs38567">
    <clipPath
       clipPathUnits="userSpaceOnUse"
       id="clipPath252">
      <path
         inkscape:connector-curvature="0"
         d="m 0,1132 950,0 L 950,0 0,0 0,1132 z"
         id="path254" />
    </clipPath>
  </defs>
  <sodipodi:namedview
     id="base"
     pagecolor="#ffffff"
     bordercolor="#666666"
     borderopacity="1.0"
     inkscape:pageopacity="0.0"
     inkscape:pageshadow="2"
     inkscape:zoom="2.8"
     inkscape:cx="54.250034"
     inkscape:cy="1.3579586"
     inkscape:document-units="px"
     inkscape:current-layer="g250"
     showgrid="false"
     inkscape:window-width="1920"
     inkscape:window-height="1056"
     inkscape:window-x="1920"
     inkscape:window-y="24"
     inkscape:window-maximized="1" />
  <metadata
     id="metadata38570">
    <rdf:RDF>
      <cc:Work
         rdf:about="">
        <dc:format>image/svg+xml</dc:format>
        <dc:type
           rdf:resource="http://purl.org/dc/dcmitype/StillImage" />
        <dc:title></dc:title>
      </cc:Work>
    </rdf:RDF>
  </metadata>
  <g
     inkscape:label="Capa 1"
     inkscape:groupmode="layer"
     id="layer1"
     transform="translate(0,-952.36218)">
    <g
       transform="translate(-370.00714,-1639.745)"
       id="g26767">
      <g
         id="g26773"
         transform="matrix(1.0966067,0,0,1.0966067,-291.56507,344.26331)">
        <g
           id="g26881">
          <g
             transform="matrix(0.94256422,0,0,0.94256422,-1242.9868,118.85764)"
             id="g29043">
            <g
               transform="matrix(0.59838373,0,0,0.59838373,490.17884,376.10907)"
               id="g28877">
              <g
                 id="g28883"
                 transform="matrix(1.6880611,0,0,1.6880611,-1742.308,-1960.6717)">
                <g
                   transform="matrix(1.1972373,0,0,-1.1972373,1983.8005,3160.6222)"
                   id="g248">
                  <g
                     id="g250"
                     clip-path="url(#clipPath252)">
                    <g
                       id="g260"
                       transform="translate(423.3276,208.042)" />
                    <g
                       id="g268"
                       transform="matrix(1.0036585,0,0,1.0036585,404.05942,246.09128)" />
                    <g
                       transform="matrix(0.18708018,0,0,-0.18708018,161.46524,649.94755)"
                       id="g157">
                      <path
                         style="fill:#8d4084;fill-opacity:1"
                         inkscape:connector-curvature="0"
                         d="m 1653.9,1987.8 c 0,-6.2 -5.1,-11.4 -11.3,-11.4 -6.2,0 -11.3,5.1 -11.3,11.4 v 49.2 c 0,1.9 -1.1,3.5 -3.1,3.5 -2,0 -3.1,-1.5 -3.1,-3.5 v -61.3 c 0,-6.2 -5.5,-11.4 -11.8,-11.4 -6.3,0 -11.8,5.1 -11.8,11.4 v 61.3 c 0,1.9 -1.6,3.5 -3.5,3.5 -1.9,0 -3.5,-1.5 -3.5,-3.5 v -75.5 c 0,-5.9 -3.9,-11.1 -9.8,-11.7 -6.8,-0.7 -12.1,4.7 -12.1,11.3 v 75.9 c 0,1.9 -2,3.5 -3.9,3.5 -1.9,0 -3.9,-1.5 -3.9,-3.5 v -60.7 c 0,-5.9 -4.3,-11.1 -10.2,-11.7 -6.8,-0.7 -12.5,4.7 -12.5,11.3 v 97 c 0,4.3 -5.1,6.3 -8,3.1 l -3.3,-3.8 -12.8,-21.7 c -2.9,-5.6 -9.5,-8.6 -15.4,-6.3 -6.8,2.7 -9.6,10.5 -6.4,16.8 l 12.6,28.5 c 2.8,5.5 6.5,10.4 11.1,14.6 l 29.8,37.3 0.2,222.6 h 55.1 l 0.3,-58.1 c 0,-0.1 -15,-33.5 -15,-33.5 v -54.6 c 0,-3.6 2.5,-6.5 6.1,-6.5 3.6,0 6.1,2.9 6.1,6.5 v 28.2 c 0,1.1 1.5,2 2.6,2 1.1,0 2.6,-0.9 2.6,-2 v -35.2 c 0,-3.6 2.5,-6.5 6.1,-6.5 3.6,0 6.1,2.9 6.1,6.5 v 35.2 c 0,1.1 1.1,2 2.2,2 1.1,0 2.2,-0.9 2.2,-2 v -43.3 c 0,-3.4 2.5,-6.4 5.9,-6.7 3.9,-0.4 7.2,2.7 7.2,6.5 v 43.5 c 0,1.1 0.6,2 1.7,2 1.1,0 1.7,-0.9 1.7,-2 v -104.4 c 0,-0.2 13.1,-58.7 13.1,-58.7 v -95.1 z"
                         id="path159" />
                      <path
                         style="fill:#8d4084;fill-opacity:1"
                         inkscape:connector-curvature="0"
                         d="m 1777.2,2201.6 c -4.8,-1.9 -10.3,0.5 -12.6,5.1 l -10.5,17.7 -2.8,3.1 c -2.3,2.6 -6.7,1 -6.7,-2.5 v -79.4 c 0,-5.4 -4.6,-9.8 -10.1,-9.2 -4.8,0.5 -8.2,4.7 -8.2,9.5 v 49.6 c 0,1.6 -1.1,2.8 -2.6,2.8 -1.5,0 -2.6,-1.3 -2.6,-2.8 v -62.1 c 0,-5.4 -5,-9.8 -10.5,-9.2 -4.8,0.5 -8.7,4.7 -8.7,9.5 v 61.8 c 0,1.6 -1.5,2.8 -3.1,2.8 -1.6,0 -3.1,-1.3 -3.1,-2.8 v -50.1 c 0,-5.1 -4,-9.3 -9.2,-9.3 -5.1,0 -9.1,4.2 -9.1,9.3 v 50.2 c 0,1.6 -1.5,2.8 -3.1,2.8 -1.6,0 -3.1,-1.3 -3.1,-2.8 v -40.2 c 0,-5.1 -4,-9.3 -9.2,-9.3 -5.1,0 -9.2,4.2 -9.2,9.3 v 111.2 c 0,2.5 3.2,3.6 4.8,1.8 l 2,-2.2 7.4,-12.4 c 1.6,-3.2 5.5,-4.9 8.9,-3.6 3.9,1.5 5.5,6 3.7,9.6 l -7.2,16.4 c -1.6,3.1 -3.7,6 -6.3,8.4 l -2.6,3.1 -0.3,76.4 h 75.3 l 0.1,-82.9 24.3,-30.5 c 3.7,-3.4 6.8,-7.4 9,-11.9 l 10.3,-23.3 c 2.9,-5.3 0.5,-11.7 -5,-13.9 z"
                         id="path161" />
                      <path
                         style="fill:#8d4084;fill-opacity:1"
                         inkscape:connector-curvature="0"
                         d="m 1528.7,2145.7 c -5.1,0 -9.2,4.2 -9.2,9.3 v 40.2 c 0,1.6 -1.5,2.8 -3.1,2.8 -1.6,0 -3.1,-1.3 -3.1,-2.8 V 2145 c 0,-5.1 -4,-9.3 -9.1,-9.3 -5.1,0 -9.2,4.2 -9.2,9.3 v 50.1 c 0,1.6 -1.5,2.8 -3.1,2.8 -1.6,0 -3.1,-1.3 -3.1,-2.8 v -61.8 c 0,-4.8 -3.4,-9.1 -8.2,-9.5 -5.5,-0.6 -10.1,3.8 -10.1,9.2 v 62.1 c 0,1.6 -1.5,2.8 -3.1,2.8 -1.6,0 -3.1,-1.3 -3.1,-2.8 v -49.6 c 0,-4.8 -3.4,-9.1 -8.2,-9.5 -5.5,-0.6 -10.1,3.8 -10.1,9.2 v 79.4 c 0,3.5 -4.3,5.1 -6.6,2.5 l -2.7,-3.1 -10.5,-17.7 c -2.3,-4.6 -7.8,-7 -12.6,-5.1 -5.5,2.2 -7.9,8.6 -5.2,13.7 l 10.3,23.3 c 2.3,4.5 5.3,8.5 9.1,11.9 l 24.3,30.7 0.1,83.1 h 42.7 l -0.1,-52.6 -15.5,-19.6 c -2.4,-2.2 -4.3,-4.8 -5.8,-7.6 l -6.6,-14.9 c -1.7,-3.3 -0.2,-7.4 3.3,-8.8 3.1,-1.2 6.6,0.3 8.1,3.3 l 6.7,11.3 1.5,2 c 1.5,1.7 4,0.6 4,-1.6 v -50.6 c 0,-3.5 3.2,-6.2 6.7,-5.9 3.1,0.3 5.5,3 5.5,6.1 v 31.6 c 0,1 0.7,1.8 1.7,1.8 1,0 1.7,-0.8 1.7,-1.8 V 2217 c 0,-3.5 3.2,-6.2 6.7,-5.9 3.1,0.3 5.5,3 5.5,6.1 v 39.4 c 0,1 0.7,1.8 1.7,1.8 1,0 1.7,-0.8 1.7,-1.8 v -32 c 0,-3.3 2.8,-5.9 6.1,-5.9 3.3,0 6.1,2.7 6.1,5.9 v 32 c 0,1 0.7,1.8 1.7,1.8 1,0 1.7,-0.8 1.7,-1.8 V 2155 c 0.6,-5.1 -3.5,-9.3 -8.6,-9.3 z"
                         id="path163" />
                    </g>
                  </g>
                </g>
              </g>
            </g>
          </g>
        </g>
      </g>
    </g>
  </g>
</svg>
