<?xml version="1.0" encoding="UTF-8" standalone="no"?>
<!-- Generator: Adobe Illustrator 16.0.0, SVG Export Plug-In . SVG Version: 6.00 Build 0)  -->

<svg
   xmlns:dc="http://purl.org/dc/elements/1.1/"
   xmlns:cc="http://creativecommons.org/ns#"
   xmlns:rdf="http://www.w3.org/1999/02/22-rdf-syntax-ns#"
   xmlns:svg="http://www.w3.org/2000/svg"
   xmlns="http://www.w3.org/2000/svg"
   xmlns:sodipodi="http://sodipodi.sourceforge.net/DTD/sodipodi-0.dtd"
   xmlns:inkscape="http://www.inkscape.org/namespaces/inkscape"
   version="1.1"
   id="Layer_1"
   x="0px"
   y="0px"
   width="136.833px"
   height="136.833px"
   viewBox="0 0 136.833 136.833"
   style="enable-background:new 0 0 136.833 136.833;"
   xml:space="preserve"
   inkscape:version="0.48.5 r"
   sodipodi:docname="confluencia.svg"><metadata
     id="metadata645"><rdf:RDF><cc:Work
         rdf:about=""><dc:format>image/svg+xml</dc:format><dc:type
           rdf:resource="http://purl.org/dc/dcmitype/StillImage" /></cc:Work></rdf:RDF></metadata><defs
     id="defs643" /><sodipodi:namedview
     pagecolor="#ffffff"
     bordercolor="#666666"
     borderopacity="1"
     objecttolerance="10"
     gridtolerance="10"
     guidetolerance="10"
     inkscape:pageopacity="0"
     inkscape:pageshadow="2"
     inkscape:window-width="640"
     inkscape:window-height="480"
     id="namedview641"
     showgrid="false"
     inkscape:zoom="2.4391369"
     inkscape:cx="73.649445"
     inkscape:cy="161.39885"
     inkscape:window-x="39"
     inkscape:window-y="101"
     inkscape:window-maximized="0"
     inkscape:current-layer="g7" /><style
     type="text/css"
     id="style3">
	.st0{fill:#47A4A9;}
	.st1{fill:#49A0AE;}
	.st2{fill:#E0E1D4;}
	.st3{fill:#E1B623;}
	.st4{fill:#1467A8;}
	.st5{fill-rule:evenodd;clip-rule:evenodd;fill:#757575;}
	.st6{fill:#E4C025;}
	.st7{fill:#E4DEDF;}
	.st8{fill:#4A4A4A;}
	.st9{fill:#4ABC96;}
	.st10{fill:#E5DBC5;}
	.st11{fill:#19241E;}
	.st12{fill:#E7E7E7;}
	.st13{fill:#E8E1D3;}
	.st14{fill:#E96238;}
	.st15{fill:#E9C29C;}
	.st16{fill:#E9E9EA;}
	.st17{fill-rule:evenodd;clip-rule:evenodd;fill:#DDDDDC;}
	.st18{fill:#4FAFB9;}
	.st19{fill:#B1D4D7;}
	.st20{fill:#B3E0DF;}
	.st21{fill:#B8E3EB;}
	.st22{fill:#ECE9E9;}
	.st23{fill:#ECECEC;}
	.st24{fill:#ED7B3A;}
	.st25{fill:#EDC92C;}
	.st26{fill:#EEB488;}
	.st27{fill:#525252;}
	.st28{fill-rule:evenodd;clip-rule:evenodd;fill:#E4E4E4;}
	.st29{fill-rule:evenodd;clip-rule:evenodd;fill:#4B4A4B;}
	.st30{fill:#BDD2CE;}
	.st31{fill:#BFC1A9;}
	.st32{fill:#F16D53;}
	.st33{fill:#5A5A5A;}
	.st34{fill-rule:evenodd;clip-rule:evenodd;fill:#B5B2B3;}
	.st35{fill:#5C5C5C;}
	.st36{fill:#F7C192;}
	.st37{fill:#959595;}
	.st38{fill:#C4E2E7;}
	.st39{fill:#C6CBC8;}
	.st40{fill:#989897;}
	.st41{fill:#99999A;}
	.st42{opacity:0.2;}
	.st43{opacity:0.6;}
	.st44{opacity:0.8;}
	.st45{opacity:0.9;}
	.st46{fill:#606060;}
	.st47{fill-rule:evenodd;clip-rule:evenodd;fill:#BFC1A9;}
	.st48{fill:#FFFFFF;}
	.st49{fill:none;}
	.st50{fill-rule:evenodd;clip-rule:evenodd;fill:#5A5A5A;}
	.st51{fill:#676767;}
	.st52{fill:#67C3C8;}
	.st53{fill:#CAD8D4;}
	.st54{fill-rule:evenodd;clip-rule:evenodd;fill:#C0BEBF;}
	.st55{fill:#343433;}
	.st56{fill:#343A36;}
	.st57{fill:#353535;}
	.st58{fill:#357180;}
	.st59{fill:#377EC0;}
	.st60{fill:#6B491E;}
	.st61{fill:#6D6D6D;}
	.st62{fill-rule:evenodd;clip-rule:evenodd;fill:#616161;}
	.st63{fill:#D4DFDC;}
	.st64{fill:#D62127;}
	.st65{fill:#D6B429;}
	.st66{fill:#D7D0BC;}
	.st67{fill:#D7DABA;}
	.st68{fill:#3D929A;}
	.st69{fill:#D8E4E1;}
	.st70{fill:#D96527;}
	.st71{fill-rule:evenodd;clip-rule:evenodd;fill:#CDCCCB;}
	.st72{fill:#717171;}
	.st73{fill:#A19F9F;}
	.st74{fill:#A2D4DE;}
	.st75{fill:#DA1F26;}
	.st76{fill:#0C808B;}
	.st77{fill:#A7CACB;}
	.st78{fill:#DBDBDA;}
	.st79{fill:#DD5231;}
	.st80{fill:#409FA4;}
	.st81{fill:#DFBB26;}
	.st82{fill:#444445;}
	.st83{fill:#444545;}
</style><g
     id="g5"><g
       id="g7" /><g
       id="g11" /><g
       id="g15"
       transform="matrix(1.3707952,0,0,1.3707952,-25.452478,-45.621956)"><g
         id="g17"><g
           id="g19"><g
             id="g21"><path
               class="st15"
               d="m 82.044,49.304 c 0,7.545 -6.113,13.656 -13.654,13.656 -7.541,0 -13.654,-6.111 -13.654,-13.656 0,-7.539 6.113,-13.654 13.654,-13.654 7.541,0 13.654,6.115 13.654,13.654 z"
               id="path23"
               inkscape:connector-curvature="0"
               style="fill:#e9c29c" /></g><g
             id="g25"><g
               id="g27"><path
                 class="st49"
                 d="m 76.308,60.427 c 2.816,0.201 6.244,0.041 8.215,-1.516 1.07,-0.848 1.592,-2.008 1.592,-3.545 0,-2.293 -0.432,-3.801 -1.324,-4.611 -0.672,-0.613 -1.611,-0.85 -2.76,-0.898 -0.174,4.361 -2.391,8.193 -5.723,10.57 z"
                 id="path29"
                 inkscape:connector-curvature="0"
                 style="fill:none" /></g><g
               id="g31"><path
                 class="st15"
                 d="m 71.097,60.121 c 0.063,-0.262 0.326,-0.42 0.586,-0.359 0.041,0.01 2.088,0.482 4.625,0.666 3.332,-2.377 5.549,-6.209 5.723,-10.57 -1.076,-0.047 -2.336,0.072 -3.74,0.205 -1.365,0.129 -2.914,0.273 -4.51,0.273 -0.268,0 -0.486,-0.217 -0.486,-0.486 0,-0.268 0.219,-0.486 0.486,-0.486 1.551,0 3.008,-0.137 4.416,-0.271 1.385,-0.129 2.682,-0.25 3.838,-0.203 -0.221,-7.348 -6.243,-13.24 -13.645,-13.24 -7.541,0 -13.654,6.115 -13.654,13.654 0,7.545 6.113,13.656 13.654,13.656 2.375,0 4.607,-0.607 6.553,-1.674 -1.922,-0.217 -3.338,-0.545 -3.486,-0.578 -0.262,-0.064 -0.422,-0.326 -0.36,-0.587 z"
                 id="path33"
                 inkscape:connector-curvature="0"
                 style="fill:#e9c29c" /></g><g
               id="g35"><path
                 class="st15"
                 d="m 71.683,59.761 c -0.26,-0.061 -0.523,0.098 -0.586,0.359 -0.063,0.261 0.098,0.523 0.359,0.588 0.148,0.033 1.564,0.361 3.486,0.578 0.473,-0.26 0.93,-0.549 1.365,-0.859 -2.536,-0.183 -4.583,-0.656 -4.624,-0.666 z"
                 id="path37"
                 inkscape:connector-curvature="0"
                 style="fill:#e9c29c" /></g></g><g
             id="g39"><g
               id="g41"><ellipse
                 class="st55"
                 cx="73.541"
                 cy="50.481998"
                 rx="1.8710001"
                 ry="1.977"
                 id="ellipse43"
                 d="m 75.412,50.481998 c 0,1.091867 -0.837675,1.977 -1.871,1.977 -1.033324,0 -1.871,-0.885133 -1.871,-1.977 0,-1.091867 0.837676,-1.977 1.871,-1.977 1.033325,0 1.871,0.885133 1.871,1.977 z"
                 sodipodi:cx="73.541"
                 sodipodi:cy="50.481998"
                 sodipodi:rx="1.8710001"
                 sodipodi:ry="1.977"
                 style="fill:#343433" /></g><g
               id="g45"><path
                 class="st48"
                 d="m 74.873,49.734 c 0,0.434 -0.334,0.789 -0.748,0.789 -0.41,0 -0.746,-0.355 -0.746,-0.789 0,-0.439 0.336,-0.791 0.746,-0.791 0.414,0 0.748,0.351 0.748,0.791 z"
                 id="path47"
                 inkscape:connector-curvature="0"
                 style="fill:#ffffff" /></g></g><g
             id="g49"><g
               id="g51"><ellipse
                 class="st55"
                 cx="63.324001"
                 cy="50.481998"
                 rx="1.8710001"
                 ry="1.977"
                 id="ellipse53"
                 d="m 65.195001,50.481998 c 0,1.091867 -0.837675,1.977 -1.871,1.977 -1.033324,0 -1.871,-0.885133 -1.871,-1.977 0,-1.091867 0.837676,-1.977 1.871,-1.977 1.033325,0 1.871,0.885133 1.871,1.977 z"
                 sodipodi:cx="63.324001"
                 sodipodi:cy="50.481998"
                 sodipodi:rx="1.8710001"
                 sodipodi:ry="1.977"
                 style="fill:#343433" /></g><g
               id="g55"><path
                 class="st48"
                 d="m 64.636,49.734 c 0,0.434 -0.334,0.789 -0.748,0.789 -0.412,0 -0.748,-0.355 -0.748,-0.789 0,-0.439 0.336,-0.791 0.748,-0.791 0.414,0 0.748,0.351 0.748,0.791 z"
                 id="path57"
                 inkscape:connector-curvature="0"
                 style="fill:#ffffff" /></g></g><g
             id="g59"><path
               class="st60"
               d="m 82.044,49.304 -9.311,-8.377 c 0,0 -4.377,0.203 -9.664,2.592 -5.098,2.307 -8.334,5.785 -8.334,5.785 0,-7.539 6.113,-13.654 13.654,-13.654 7.541,0 13.655,6.115 13.655,13.654 z"
               id="path61"
               inkscape:connector-curvature="0"
               style="fill:#6b491e" /></g></g></g></g><g
       id="g189"
       transform="matrix(1.3707952,0,0,1.3707952,-25.452478,-45.621956)"><g
         id="g191"><g
           id="g193"><g
             id="g195"><path
               class="st15"
               d="m 116.806,55.46 c 0,7.545 -6.115,13.656 -13.656,13.656 -7.541,0 -13.652,-6.111 -13.652,-13.656 0,-7.539 6.111,-13.652 13.652,-13.652 7.541,0 13.656,6.113 13.656,13.652 z"
               id="path197"
               inkscape:connector-curvature="0"
               style="fill:#e9c29c" /></g><g
             id="g199"><g
               id="g201"><path
                 class="st49"
                 d="m 111.07,66.583 c 2.816,0.203 6.242,0.043 8.213,-1.516 1.072,-0.846 1.592,-2.006 1.592,-3.543 0,-2.293 -0.432,-3.803 -1.322,-4.613 -0.672,-0.611 -1.611,-0.848 -2.762,-0.898 -0.174,4.362 -2.391,8.195 -5.721,10.57 z"
                 id="path203"
                 inkscape:connector-curvature="0"
                 style="fill:none" /></g><g
               id="g205"><path
                 class="st15"
                 d="m 105.857,66.279 c 0.063,-0.262 0.328,-0.42 0.588,-0.361 0.041,0.01 2.086,0.484 4.625,0.666 3.33,-2.375 5.547,-6.209 5.721,-10.57 -1.074,-0.045 -2.336,0.072 -3.74,0.205 -1.365,0.129 -2.912,0.275 -4.508,0.275 -0.27,0 -0.486,-0.219 -0.486,-0.486 0,-0.27 0.217,-0.488 0.486,-0.488 1.551,0 3.006,-0.137 4.416,-0.27 1.383,-0.131 2.68,-0.25 3.836,-0.203 -0.221,-7.348 -6.242,-13.238 -13.645,-13.238 -7.541,0 -13.652,6.113 -13.652,13.652 0,7.545 6.111,13.656 13.652,13.656 2.375,0 4.609,-0.605 6.555,-1.672 -1.922,-0.217 -3.338,-0.545 -3.486,-0.58 -0.262,-0.063 -0.423,-0.324 -0.362,-0.586 z"
                 id="path207"
                 inkscape:connector-curvature="0"
                 style="fill:#e9c29c" /></g><g
               id="g209"><path
                 class="st15"
                 d="m 106.445,65.917 c -0.26,-0.059 -0.525,0.1 -0.588,0.361 -0.061,0.262 0.1,0.523 0.361,0.586 0.148,0.035 1.564,0.363 3.486,0.58 0.473,-0.26 0.928,-0.549 1.365,-0.861 -2.538,-0.181 -4.583,-0.656 -4.624,-0.666 z"
                 id="path211"
                 inkscape:connector-curvature="0"
                 style="fill:#e9c29c" /></g></g><g
             id="g213"><g
               id="g215"><path
                 class="st55"
                 d="m 110.171,56.64 c 0,1.092 -0.838,1.975 -1.871,1.975 -1.033,0 -1.869,-0.883 -1.869,-1.975 0,-1.094 0.836,-1.979 1.869,-1.979 1.033,0 1.871,0.885 1.871,1.979 z"
                 id="path217"
                 inkscape:connector-curvature="0"
                 style="fill:#343433" /></g><g
               id="g219"><path
                 class="st48"
                 d="m 109.632,55.89 c 0,0.434 -0.332,0.791 -0.748,0.791 -0.41,0 -0.746,-0.357 -0.746,-0.791 0,-0.438 0.336,-0.791 0.746,-0.791 0.416,0 0.748,0.354 0.748,0.791 z"
                 id="path221"
                 inkscape:connector-curvature="0"
                 style="fill:#ffffff" /></g></g><g
             id="g223"><g
               id="g225"><path
                 class="st55"
                 d="m 99.955,56.64 c 0,1.092 -0.836,1.975 -1.869,1.975 -1.033,0 -1.871,-0.883 -1.871,-1.975 0,-1.094 0.838,-1.979 1.871,-1.979 1.033,0 1.869,0.885 1.869,1.979 z"
                 id="path227"
                 inkscape:connector-curvature="0"
                 style="fill:#343433" /></g><g
               id="g229"><path
                 class="st48"
                 d="m 99.398,55.89 c 0,0.434 -0.336,0.791 -0.75,0.791 -0.412,0 -0.746,-0.357 -0.746,-0.791 0,-0.438 0.334,-0.791 0.746,-0.791 0.414,0 0.75,0.354 0.75,0.791 z"
                 id="path231"
                 inkscape:connector-curvature="0"
                 style="fill:#ffffff" /></g></g><g
             id="g233"><path
               class="st60"
               d="m 116.806,55.46 -9.311,-8.375 c 0,0 -4.377,0.201 -9.664,2.592 -5.098,2.307 -8.334,5.783 -8.334,5.783 0,-7.539 6.111,-13.652 13.652,-13.652 7.541,0 13.657,6.113 13.657,13.652 z"
               id="path235"
               inkscape:connector-curvature="0"
               style="fill:#6b491e" /></g></g></g></g><g
       id="g363"
       transform="matrix(1.3707952,0,0,1.3707952,-25.452478,-45.621956)"><g
         id="g365"><g
           id="g367"><g
             id="g369"><path
               class="st15"
               d="m 47.302,55.46 c 0,7.545 -6.115,13.656 -13.656,13.656 -7.541,0 -13.652,-6.111 -13.652,-13.656 0,-7.539 6.111,-13.652 13.652,-13.652 7.541,0 13.656,6.113 13.656,13.652 z"
               id="path371"
               inkscape:connector-curvature="0"
               style="fill:#e9c29c" /></g><g
             id="g373"><g
               id="g375"><path
                 class="st49"
                 d="m 41.566,66.583 c 2.816,0.203 6.242,0.043 8.213,-1.516 1.072,-0.846 1.592,-2.006 1.592,-3.543 0,-2.293 -0.432,-3.803 -1.322,-4.613 -0.672,-0.611 -1.611,-0.848 -2.762,-0.898 -0.174,4.362 -2.391,8.195 -5.721,10.57 z"
                 id="path377"
                 inkscape:connector-curvature="0"
                 style="fill:none" /></g><g
               id="g379"><path
                 class="st15"
                 d="m 36.353,66.279 c 0.063,-0.262 0.328,-0.42 0.588,-0.361 0.041,0.01 2.086,0.484 4.625,0.666 3.33,-2.375 5.547,-6.209 5.721,-10.57 -1.074,-0.045 -2.336,0.072 -3.74,0.205 -1.365,0.129 -2.912,0.275 -4.508,0.275 -0.27,0 -0.486,-0.219 -0.486,-0.486 0,-0.27 0.217,-0.488 0.486,-0.488 1.551,0 3.006,-0.137 4.416,-0.27 1.383,-0.131 2.68,-0.25 3.836,-0.203 -0.221,-7.348 -6.242,-13.238 -13.645,-13.238 -7.541,0 -13.652,6.113 -13.652,13.652 0,7.545 6.111,13.656 13.652,13.656 2.375,0 4.609,-0.605 6.555,-1.672 -1.922,-0.217 -3.338,-0.545 -3.486,-0.58 -0.262,-0.063 -0.423,-0.324 -0.362,-0.586 z"
                 id="path381"
                 inkscape:connector-curvature="0"
                 style="fill:#e9c29c" /></g><g
               id="g383"><path
                 class="st15"
                 d="m 36.941,65.917 c -0.26,-0.059 -0.525,0.1 -0.588,0.361 -0.061,0.262 0.1,0.523 0.361,0.586 0.148,0.035 1.564,0.363 3.486,0.58 0.473,-0.26 0.928,-0.549 1.365,-0.861 -2.538,-0.181 -4.583,-0.656 -4.624,-0.666 z"
                 id="path385"
                 inkscape:connector-curvature="0"
                 style="fill:#e9c29c" /></g></g><g
             id="g387"><g
               id="g389"><path
                 class="st55"
                 d="m 40.667,56.64 c 0,1.092 -0.838,1.975 -1.871,1.975 -1.033,0 -1.869,-0.883 -1.869,-1.975 0,-1.094 0.836,-1.979 1.869,-1.979 1.033,0 1.871,0.885 1.871,1.979 z"
                 id="path391"
                 inkscape:connector-curvature="0"
                 style="fill:#343433" /></g><g
               id="g393"><path
                 class="st48"
                 d="m 40.128,55.89 c 0,0.434 -0.332,0.791 -0.748,0.791 -0.41,0 -0.746,-0.357 -0.746,-0.791 0,-0.438 0.336,-0.791 0.746,-0.791 0.416,0 0.748,0.354 0.748,0.791 z"
                 id="path395"
                 inkscape:connector-curvature="0"
                 style="fill:#ffffff" /></g></g><g
             id="g397"><g
               id="g399"><path
                 class="st55"
                 d="m 30.451,56.64 c 0,1.092 -0.836,1.975 -1.869,1.975 -1.033,0 -1.871,-0.883 -1.871,-1.975 0,-1.094 0.838,-1.979 1.871,-1.979 1.033,0 1.869,0.885 1.869,1.979 z"
                 id="path401"
                 inkscape:connector-curvature="0"
                 style="fill:#343433" /></g><g
               id="g403"><path
                 class="st48"
                 d="m 29.894,55.89 c 0,0.434 -0.336,0.791 -0.75,0.791 -0.412,0 -0.746,-0.357 -0.746,-0.791 0,-0.438 0.334,-0.791 0.746,-0.791 0.414,0 0.75,0.354 0.75,0.791 z"
                 id="path405"
                 inkscape:connector-curvature="0"
                 style="fill:#ffffff" /></g></g><g
             id="g407"><path
               class="st60"
               d="m 47.302,55.46 -9.311,-8.375 c 0,0 -4.377,0.201 -9.664,2.592 -5.098,2.307 -8.334,5.783 -8.334,5.783 0,-7.539 6.111,-13.652 13.652,-13.652 7.541,0 13.657,6.113 13.657,13.652 z"
               id="path409"
               inkscape:connector-curvature="0"
               style="fill:#6b491e" /></g></g></g></g><g
       id="g537"
       transform="matrix(1.3707952,0,0,1.3707952,-25.452478,-45.621956)"><g
         id="g539"><g
           id="g541"><g
             id="g543"><path
               class="st35"
               d="m 87.294,111.367 c 0,0 -8.922,-1.344 -8.922,-4.703 H 59.921 c 0,3.359 -8.904,4.703 -8.904,4.703 -5.711,0.334 -8.398,5.037 -8.398,5.037 l -3.908,7.945 c 8.861,4.715 18.967,7.4 29.705,7.4 11.213,0 21.74,-2.918 30.877,-8.029 l -3.6,-7.316 c 0,0 -2.688,-4.703 -8.399,-5.037 z"
               id="path545"
               inkscape:connector-curvature="0"
               style="fill:#5c5c5c" /></g></g><g
           id="g603"><path
             class="st15"
             d="m 53.847,88.033 c 0,9.33 7.018,16.889 15.674,16.889 8.654,0 15.67,-7.559 15.67,-16.889 0,-9.324 -7.016,-16.887 -15.67,-16.887 -8.656,0 -15.674,7.562 -15.674,16.887 z"
             id="path605"
             inkscape:connector-curvature="0"
             style="fill:#e9c29c" /></g><g
           id="g607"><rect
             x="60.141998"
             y="101.335"
             class="st15"
             width="18.082001"
             height="5.3280001"
             id="rect609"
             style="fill:#e9c29c" /></g><g
           id="g611"><path
             class="st60"
             d="m 53.224,88.576 c 0,0 2.695,14.467 16.482,14.467 13.785,0 16.109,-14.467 16.109,-14.467 0,-9.957 -7.297,-18.035 -16.295,-18.035 -8.999,0 -16.296,8.078 -16.296,18.035 z"
             id="path613"
             inkscape:connector-curvature="0"
             style="fill:#6b491e" /></g></g></g></g></svg>