<?xml version="1.0" encoding="UTF-8" standalone="no"?>
<!-- Created with Inkscape (http://www.inkscape.org/) -->

<svg
   xmlns:dc="http://purl.org/dc/elements/1.1/"
   xmlns:cc="http://creativecommons.org/ns#"
   xmlns:rdf="http://www.w3.org/1999/02/22-rdf-syntax-ns#"
   xmlns:svg="http://www.w3.org/2000/svg"
   xmlns="http://www.w3.org/2000/svg"
   xmlns:sodipodi="http://sodipodi.sourceforge.net/DTD/sodipodi-0.dtd"
   xmlns:inkscape="http://www.inkscape.org/namespaces/inkscape"
   width="100"
   height="100"
   id="svg38565"
   version="1.1"
   inkscape:version="0.48.5 r"
   sodipodi:docname="participacio.svg">
  <defs
     id="defs38567">
    <clipPath
       clipPathUnits="userSpaceOnUse"
       id="clipPath252">
      <path
         inkscape:connector-curvature="0"
         d="m 0,1132 950,0 L 950,0 0,0 0,1132 z"
         id="path254" />
    </clipPath>
    <clipPath
       clipPathUnits="userSpaceOnUse"
       id="clipPath5640">
      <path
         inkscape:connector-curvature="0"
         d="m 985.992,1195.608 c 0,-112.228 90.98,-203.206 203.208,-203.206 l 0,0 c 112.228,0 203.206,90.978 203.206,203.206 l 0,0 c 0,112.228 -90.978,203.207 -203.206,203.207 l 0,0 c -112.228,0 -203.208,-90.979 -203.208,-203.207"
         id="path5642" />
    </clipPath>
  </defs>
  <sodipodi:namedview
     id="base"
     pagecolor="#ffffff"
     bordercolor="#666666"
     borderopacity="1.0"
     inkscape:pageopacity="0.0"
     inkscape:pageshadow="2"
     inkscape:zoom="5.6"
     inkscape:cx="17.879331"
     inkscape:cy="53.502377"
     inkscape:document-units="px"
     inkscape:current-layer="g250"
     showgrid="false"
     inkscape:window-width="1920"
     inkscape:window-height="1056"
     inkscape:window-x="1920"
     inkscape:window-y="24"
     inkscape:window-maximized="1"
     showguides="true"
     inkscape:guide-bbox="true">
    <sodipodi:guide
       orientation="0,1"
       position="43.436559,106.31856"
       id="guide4055" />
  </sodipodi:namedview>
  <metadata
     id="metadata38570">
    <rdf:RDF>
      <cc:Work
         rdf:about="">
        <dc:format>image/svg+xml</dc:format>
        <dc:type
           rdf:resource="http://purl.org/dc/dcmitype/StillImage" />
        <dc:title />
      </cc:Work>
    </rdf:RDF>
  </metadata>
  <g
     inkscape:label="Capa 1"
     inkscape:groupmode="layer"
     id="layer1"
     transform="translate(0,-952.36218)">
    <g
       transform="translate(-370.00714,-1639.745)"
       id="g26767">
      <g
         id="g26773"
         transform="matrix(1.0966067,0,0,1.0966067,-291.56507,344.26331)">
        <g
           id="g26881">
          <g
             transform="matrix(0.94256422,0,0,0.94256422,-1242.9868,118.85764)"
             id="g29043">
            <g
               transform="matrix(0.59838373,0,0,0.59838373,490.17884,376.10907)"
               id="g28877">
              <g
                 id="g28883"
                 transform="matrix(1.6880611,0,0,1.6880611,-1742.308,-1960.6717)">
                <g
                   transform="matrix(1.1972373,0,0,-1.1972373,1983.8005,3160.6222)"
                   id="g248">
                  <g
                     id="g250"
                     clip-path="url(#clipPath252)"
                     transform="translate(18.990867,-12.929952)">
                    <g
                       id="g260"
                       transform="translate(423.3276,208.042)" />
                    <g
                       id="g268"
                       transform="matrix(1.0036585,0,0,1.0036585,404.05942,246.09128)" />
                    <g
                       transform="matrix(0.13389995,0,0,0.13389995,302.30945,73.762034)"
                       id="g5636">
                      <g
                         id="g5638"
                         clip-path="url(#clipPath5640)">
                        <g
                           id="g5646">
                          <g
                             id="g5648" />
                        </g>
                        <g
                           id="g5662"
                           transform="translate(1263.0229,1093.9727)">
                          <path
                             inkscape:connector-curvature="0"
                             d="m 0,0 c -55.715,4.644 -85.508,53.008 -85.508,53.008 -41.787,-2.323 -91.311,8.122 -91.311,8.122 -27.465,11.221 -25.148,38.305 -25.148,38.305 -6.189,61.907 8.512,79.316 8.512,79.316 97.114,37.918 223.632,8.127 223.632,8.127 25.537,-0.772 23.989,-44.884 23.989,-44.884 0,0 11.607,-79.317 -26.309,-80.864 0,0 -25.54,-6.962 -44.11,-8.122 0,0 -20.506,-3.481 -8.897,-23.601 L 0,0 z"
                             style="fill:#8d4084;fill-opacity:1;fill-rule:nonzero;stroke:none"
                             id="path5664" />
                        </g>
                        <g
                           id="g5666"
                           transform="translate(1263.0229,1093.9727)">
                          <path
                             inkscape:connector-curvature="0"
                             d="m 0,0 c -55.715,4.644 -85.508,53.008 -85.508,53.008 -41.787,-2.323 -91.311,8.122 -91.311,8.122 -27.465,11.221 -25.148,38.305 -25.148,38.305 -6.189,61.907 8.512,79.316 8.512,79.316 97.114,37.918 223.632,8.127 223.632,8.127 25.537,-0.772 23.989,-44.884 23.989,-44.884 0,0 11.607,-79.317 -26.309,-80.864 0,0 -25.54,-6.962 -44.11,-8.122 0,0 -20.506,-3.481 -8.897,-23.601 L 0,0 z"
                             style="fill:none;stroke:#ffffff;stroke-width:7;stroke-linecap:butt;stroke-linejoin:miter;stroke-miterlimit:10;stroke-opacity:1;stroke-dasharray:none"
                             id="path5668" />
                        </g>
                        <g
                           id="g5670"
                           transform="translate(1143.73,1217.374)">
                          <path
                             inkscape:connector-curvature="0"
                             d="m 0,0 c 0,-4.929 -3.996,-8.924 -8.925,-8.924 -4.929,0 -8.924,3.995 -8.924,8.924 0,4.929 3.995,8.925 8.924,8.925 C -3.996,8.925 0,4.929 0,0"
                             style="fill:#ffffff;fill-opacity:1;fill-rule:nonzero;stroke:none"
                             id="path5672" />
                        </g>
                        <g
                           id="g5674"
                           transform="translate(1143.73,1217.374)">
                          <path
                             inkscape:connector-curvature="0"
                             d="m 0,0 c 0,-4.929 -3.996,-8.924 -8.925,-8.924 -4.929,0 -8.924,3.995 -8.924,8.924 0,4.929 3.995,8.925 8.924,8.925 C -3.996,8.925 0,4.929 0,0 z"
                             style="fill:none;stroke:#ffffff;stroke-width:7;stroke-linecap:butt;stroke-linejoin:miter;stroke-miterlimit:10;stroke-opacity:1;stroke-dasharray:none"
                             id="path5676" />
                        </g>
                        <g
                           id="g5678"
                           transform="translate(1196.23,1217.374)">
                          <path
                             inkscape:connector-curvature="0"
                             d="m 0,0 c 0,-4.929 -3.996,-8.924 -8.925,-8.924 -4.929,0 -8.924,3.995 -8.924,8.924 0,4.929 3.995,8.925 8.924,8.925 C -3.996,8.925 0,4.929 0,0"
                             style="fill:#ffffff;fill-opacity:1;fill-rule:nonzero;stroke:none"
                             id="path5680" />
                        </g>
                        <g
                           id="g5682"
                           transform="translate(1196.23,1217.374)">
                          <path
                             inkscape:connector-curvature="0"
                             d="m 0,0 c 0,-4.929 -3.996,-8.924 -8.925,-8.924 -4.929,0 -8.924,3.995 -8.924,8.924 0,4.929 3.995,8.925 8.924,8.925 C -3.996,8.925 0,4.929 0,0 z"
                             style="fill:none;stroke:#ffffff;stroke-width:7;stroke-linecap:butt;stroke-linejoin:miter;stroke-miterlimit:10;stroke-opacity:1;stroke-dasharray:none"
                             id="path5684" />
                        </g>
                        <g
                           id="g5686"
                           transform="translate(1248.73,1217.374)">
                          <path
                             inkscape:connector-curvature="0"
                             d="m 0,0 c 0,-4.929 -3.996,-8.924 -8.925,-8.924 -4.929,0 -8.924,3.995 -8.924,8.924 0,4.929 3.995,8.925 8.924,8.925 C -3.996,8.925 0,4.929 0,0"
                             style="fill:#ffffff;fill-opacity:1;fill-rule:nonzero;stroke:none"
                             id="path5688" />
                        </g>
                        <g
                           id="g5690"
                           transform="translate(1248.73,1217.374)">
                          <path
                             inkscape:connector-curvature="0"
                             d="m 0,0 c 0,-4.929 -3.996,-8.924 -8.925,-8.924 -4.929,0 -8.924,3.995 -8.924,8.924 0,4.929 3.995,8.925 8.924,8.925 C -3.996,8.925 0,4.929 0,0 z"
                             style="fill:none;stroke:#ffffff;stroke-width:7;stroke-linecap:butt;stroke-linejoin:miter;stroke-miterlimit:10;stroke-opacity:1;stroke-dasharray:none"
                             id="path5692" />
                        </g>
                      </g>
                    </g>
                    <g
                       id="g4011"
                       transform="translate(-12.123283,-77.156368)">
                      <g
                         transform="matrix(0.21323836,0,0,0.21323836,473.53513,328.53185)"
                         id="g804">
                        <path
                           sodipodi:nodetypes="cccssssssccc"
                           id="path806"
                           style="fill:#97c2b8;fill-opacity:1;fill-rule:nonzero;stroke:#ffffff;stroke-width:7;stroke-linecap:butt;stroke-linejoin:miter;stroke-miterlimit:10;stroke-opacity:1;stroke-dasharray:none"
                           d="m 0,0 c 2.646,-2.686 16.522,-18.671 11.512,-54.088 27.28,26.176 45.645,78.126 45.645,78.126 14.881,11.123 23.667,24.834 23.667,39.668 0,37.159 -55.131,67.283 -123.141,67.283 -14.252791,0 -27.940011,-1.32318 -40.672683,-3.75698 -0.04033,-0.008 -0.08065,-0.0154 -0.120962,-0.0232 C -131.06772,118.01118 -165.453,93.052498 -165.453,63.706 c 0,-37.16 55.13,-67.285 123.136,-67.285 14.707,0 28.813,1.409 41.889,3.993 0,0 0.155,-0.136 0.428,-0.414 l -0.428,0.414"
                           inkscape:connector-curvature="0" />
                      </g>
                      <path
                         id="path808"
                         style="fill:#ffffff;fill-opacity:1;fill-rule:nonzero;stroke:none"
                         d="m 475.30815,345.37093 -22.08403,0 0,2.53925 22.08403,0 0,-2.53925 z"
                         inkscape:connector-curvature="0" />
                      <path
                         id="path810"
                         style="fill:#ffffff;fill-opacity:1;fill-rule:nonzero;stroke:none"
                         d="m 475.30815,340.89293 -22.08403,0 0,2.53924 22.08403,0 0,-2.53924 z"
                         inkscape:connector-curvature="0" />
                      <path
                         id="path812"
                         style="fill:#ffffff;fill-opacity:1;fill-rule:nonzero;stroke:none"
                         d="m 475.30815,336.41493 -22.08403,0 0,2.53924 22.08403,0 0,-2.53924 z"
                         inkscape:connector-curvature="0" />
                    </g>
                    <g
                       id="g4018"
                       transform="matrix(0.34779147,0,0,0.34779147,285.88302,171.4206)">
                      <g
                         transform="matrix(0.41930129,0,0,0.41930129,401.68493,166.81471)"
                         id="g5912">
                        <path
                           id="path5914"
                           style="fill:#1c3533;fill-opacity:1;fill-rule:nonzero;stroke:#ffffff;stroke-width:7;stroke-linecap:butt;stroke-linejoin:miter;stroke-miterlimit:10;stroke-opacity:1;stroke-dasharray:none"
                           d="m 0,0 c 2.647,-2.687 16.523,-18.671 11.512,-54.089 27.281,26.177 45.646,78.127 45.646,78.127 14.88,11.123 23.667,24.833 23.667,39.668 0,37.158 -55.131,67.283 -123.141,67.283 -68.006,0 -123.137,-30.125 -123.137,-67.283 0,-37.16 55.131,-67.285 123.137,-67.285 14.707,0 28.813,1.409 41.888,3.993 0,0 0.156,-0.136 0.428,-0.414 l -0.428,0.414"
                           inkscape:connector-curvature="0" />
                      </g>
                    </g>
                    <g
                       id="g4352"
                       transform="translate(-13.428571,1.4285714)">
                      <g
                         transform="matrix(0.65648715,0,0,0.65648715,87.404328,156.0205)"
                         id="g4034">
                        <g
                           id="g1058"
                           transform="matrix(0.27088269,0,0,0.27088269,537.01992,153.78133)">
                          <path
                             inkscape:connector-curvature="0"
                             d="m 0,0 38.45,32.539 -5.988,29.509 c 71.933,4.657 127.853,39.994 127.853,82.891 0,46.07 -64.493,83.414 -144.046,83.414 -79.56,0 -144.052,-37.344 -144.052,-83.414 0,-41.104 51.34,-75.262 118.914,-82.149 L 8.872,32.539 -26.031,-2.366 13.013,-41.41 -14.201,-81.637 32.462,-37.86 0,0 z"
                             style="fill:#612d62;fill-opacity:1;fill-rule:nonzero;stroke:none"
                             id="path1060" />
                        </g>
                        <g
                           id="g1062"
                           transform="matrix(0.27088269,0,0,0.27088269,537.01992,153.78133)">
                          <path
                             inkscape:connector-curvature="0"
                             d="m 0,0 38.45,32.539 -5.988,29.509 c 71.933,4.657 127.853,39.994 127.853,82.891 0,46.07 -64.493,83.414 -144.046,83.414 -79.56,0 -144.052,-37.344 -144.052,-83.414 0,-41.104 51.34,-75.262 118.914,-82.149 L 8.872,32.539 -26.031,-2.366 13.013,-41.41 -14.201,-81.637 32.462,-37.86 0,0 z"
                             style="fill:none;stroke:#ffffff;stroke-width:7;stroke-linecap:butt;stroke-linejoin:miter;stroke-miterlimit:10;stroke-opacity:1;stroke-dasharray:none"
                             id="path1064" />
                        </g>
                      </g>
                      <g
                         id="g5916"
                         transform="matrix(0.14582941,0,0,0.14582941,435.79739,282.92992)">
                        <path
                           inkscape:connector-curvature="0"
                           d="m 0,0 c 0,-4.929 -3.995,-8.924 -8.924,-8.924 -4.929,0 -8.925,3.995 -8.925,8.924 0,4.929 3.996,8.925 8.925,8.925 C -3.995,8.925 0,4.929 0,0"
                           style="fill:#ffffff;fill-opacity:1;fill-rule:nonzero;stroke:none"
                           id="path5918" />
                      </g>
                      <g
                         id="g5920"
                         transform="matrix(0.14582941,0,0,0.14582941,435.79739,282.92992)">
                        <path
                           inkscape:connector-curvature="0"
                           d="m 0,0 c 0,-4.929 -3.995,-8.924 -8.924,-8.924 -4.929,0 -8.925,3.995 -8.925,8.924 0,4.929 3.996,8.925 8.925,8.925 C -3.995,8.925 0,4.929 0,0 z"
                           style="fill:none;stroke:#ffffff;stroke-width:7;stroke-linecap:butt;stroke-linejoin:miter;stroke-miterlimit:10;stroke-opacity:1;stroke-dasharray:none"
                           id="path5922" />
                      </g>
                      <g
                         id="g5924"
                         transform="matrix(0.14582941,0,0,0.14582941,443.45343,282.92992)">
                        <path
                           inkscape:connector-curvature="0"
                           d="m 0,0 c 0,-4.929 -3.995,-8.924 -8.924,-8.924 -4.929,0 -8.925,3.995 -8.925,8.924 0,4.929 3.996,8.925 8.925,8.925 C -3.995,8.925 0,4.929 0,0"
                           style="fill:#ffffff;fill-opacity:1;fill-rule:nonzero;stroke:none"
                           id="path5926" />
                      </g>
                      <g
                         id="g5928"
                         transform="matrix(0.14582941,0,0,0.14582941,443.45343,282.92992)">
                        <path
                           inkscape:connector-curvature="0"
                           d="m 0,0 c 0,-4.929 -3.995,-8.924 -8.924,-8.924 -4.929,0 -8.925,3.995 -8.925,8.924 0,4.929 3.996,8.925 8.925,8.925 C -3.995,8.925 0,4.929 0,0 z"
                           style="fill:none;stroke:#ffffff;stroke-width:7;stroke-linecap:butt;stroke-linejoin:miter;stroke-miterlimit:10;stroke-opacity:1;stroke-dasharray:none"
                           id="path5930" />
                      </g>
                      <g
                         id="g5932"
                         transform="matrix(0.14582941,0,0,0.14582941,451.10947,282.92992)">
                        <path
                           inkscape:connector-curvature="0"
                           d="m 0,0 c 0,-4.929 -3.995,-8.924 -8.924,-8.924 -4.929,0 -8.925,3.995 -8.925,8.924 0,4.929 3.996,8.925 8.925,8.925 C -3.995,8.925 0,4.929 0,0"
                           style="fill:#ffffff;fill-opacity:1;fill-rule:nonzero;stroke:none"
                           id="path5934" />
                      </g>
                      <g
                         id="g5936"
                         transform="matrix(0.14582941,0,0,0.14582941,451.10947,282.92992)">
                        <path
                           inkscape:connector-curvature="0"
                           d="m 0,0 c 0,-4.929 -3.995,-8.924 -8.924,-8.924 -4.929,0 -8.925,3.995 -8.925,8.924 0,4.929 3.996,8.925 8.925,8.925 C -3.995,8.925 0,4.929 0,0 z"
                           style="fill:none;stroke:#ffffff;stroke-width:7;stroke-linecap:butt;stroke-linejoin:miter;stroke-miterlimit:10;stroke-opacity:1;stroke-dasharray:none"
                           id="path5938" />
                      </g>
                    </g>
                  </g>
                </g>
              </g>
            </g>
          </g>
        </g>
      </g>
    </g>
  </g>
</svg>
