<?xml version="1.0" encoding="UTF-8" standalone="no"?>
<!-- Generator: Adobe Illustrator 16.0.0, SVG Export Plug-In . SVG Version: 6.00 Build 0)  -->

<svg
   xmlns:dc="http://purl.org/dc/elements/1.1/"
   xmlns:cc="http://creativecommons.org/ns#"
   xmlns:rdf="http://www.w3.org/1999/02/22-rdf-syntax-ns#"
   xmlns:svg="http://www.w3.org/2000/svg"
   xmlns="http://www.w3.org/2000/svg"
   xmlns:sodipodi="http://sodipodi.sourceforge.net/DTD/sodipodi-0.dtd"
   xmlns:inkscape="http://www.inkscape.org/namespaces/inkscape"
   version="1.1"
   id="Layer_1"
   x="0px"
   y="0px"
   width="136.913px"
   height="136.913px"
   viewBox="0 0 136.913 136.913"
   enable-background="new 0 0 136.913 136.913"
   xml:space="preserve"
   inkscape:version="0.48.5 r"
   sodipodi:docname="planol.svg"><metadata
     id="metadata83"><rdf:RDF><cc:Work
         rdf:about=""><dc:format>image/svg+xml</dc:format><dc:type
           rdf:resource="http://purl.org/dc/dcmitype/StillImage" /></cc:Work></rdf:RDF></metadata><defs
     id="defs81" /><sodipodi:namedview
     pagecolor="#ffffff"
     bordercolor="#666666"
     borderopacity="1"
     objecttolerance="10"
     gridtolerance="10"
     guidetolerance="10"
     inkscape:pageopacity="0"
     inkscape:pageshadow="2"
     inkscape:window-width="740"
     inkscape:window-height="480"
     id="namedview79"
     showgrid="false"
     inkscape:zoom="1.7237224"
     inkscape:cx="68.456496"
     inkscape:cy="64.655162"
     inkscape:window-x="0"
     inkscape:window-y="24"
     inkscape:window-maximized="0"
     inkscape:current-layer="g69" /><g
     id="g3"><g
       id="g11"
       transform="matrix(1.589623,0,0,1.589623,-40.477909,-40.400079)"><g
         id="g13"><g
           id="g15"><g
             id="g17"><polygon
               points="56.379,106.461 27.326,98.949 27.326,34.334 55.377,41.846 91.441,30.576 109.975,34.334 109.975,98.949 91.441,95.191 "
               id="polygon19"
               style="fill:#85c88e" /></g><g
             id="g21"><polygon
               points="89.637,34.334 106.701,37.793 106.701,95.035 89.637,91.576 "
               id="polygon23"
               style="fill:#71c176" /></g><g
             id="g25"><polygon
               points="56.428,44.711 89.637,34.334 89.637,91.576 57.352,101.953 "
               id="polygon27"
               style="fill:#57ba68" /></g><g
             id="g29"><polygon
               points="30.6,37.793 56.428,44.711 57.352,101.953 30.6,95.035 "
               id="polygon31"
               style="fill:#6cc077" /></g><g
             id="g33"><path
               d="M 53.498,100.92 30.6,94.707 V 72.111 c 0,0 8.436,-5.596 18.295,-5.998 9.859,-0.402 23.482,1.066 22.072,11.328 -1.408,10.26 -17.469,23.479 -17.469,23.479 z"
               id="path35"
               inkscape:connector-curvature="0"
               style="fill:#f3f2f2" /></g><g
             id="g37"><path
               d="M 51.162,100.264 30.6,94.945 V 74.047 c 0,0 8.072,-5.354 17.504,-5.738 9.434,-0.385 21.176,-0.193 19.828,9.625 -1.348,9.818 -16.77,22.33 -16.77,22.33 z"
               id="path39"
               inkscape:connector-curvature="0"
               style="fill:#67b8cb" /></g><g
             id="g41"><path
               d="m 57.006,68.395 c 6.621,0.539 11.871,2.652 10.926,9.539 -0.777,5.666 -6.096,12.23 -10.58,16.768 L 57.006,68.395 z"
               id="path43"
               inkscape:connector-curvature="0"
               style="fill:#5fadb5" /></g></g></g><g
         id="g45"><g
           id="g47"><path
             d="M 92.543,72.375 C 89.291,49 103.961,41.045 106.701,39.773 v -1.98 l -0.838,-0.17 C 102.381,39.418 89.416,47.437 89.853,67.006 88.478,64.461 86.691,61.545 84.064,58.184 71.512,42.113 34.217,58.143 30.6,59.75 v 2.602 c 5.205,-2.25 40.674,-16.879 51.689,-2.779 4.057,5.189 5.969,9.135 7.656,12.615 2.936,6.057 5.816,11.055 16.756,16.609 V 86.029 C 97.359,81.24 95.09,77.559 92.543,72.375 z"
             id="path49"
             inkscape:connector-curvature="0"
             style="fill:#ffffff" /></g></g><g
         id="g51"><g
           id="g53"><path
             d="m 106.701,39.773 v -1.98 l -0.838,-0.17 c -3.482,1.795 -16.447,9.814 -16.01,29.383 -1.375,-2.545 -3.162,-5.461 -5.789,-8.822 -5.807,-7.434 -16.908,-7.996 -27.52,-6.297 l 0.039,2.516 c 10.188,-1.729 20.586,-1.381 25.705,5.17 4.057,5.189 5.969,9.135 7.656,12.615 2.936,6.057 5.816,11.055 16.756,16.609 V 86.029 C 97.358,81.24 95.089,77.558 92.542,72.375 89.291,49 103.961,41.045 106.701,39.773 z"
             id="path55"
             inkscape:connector-curvature="0"
             style="fill:#dddddc" /></g><g
           id="g57"><path
             d="m 30.6,59.75 v 2.602 c 2.787,-1.203 14.246,-5.955 25.984,-7.949 l -0.039,-2.516 c -12.33,1.972 -24,7 -25.945,7.863 z"
             id="path59"
             inkscape:connector-curvature="0"
             style="fill:#f3f2f2" /></g></g><g
         id="g61"><g
           id="g63"><path
             d="m 105.863,37.623 c -3.482,1.795 -16.447,9.814 -16.01,29.383 -0.07,-0.129 -0.145,-0.262 -0.217,-0.393 v 4.939 c 0.104,0.213 0.205,0.424 0.309,0.635 2.936,6.057 5.816,11.055 16.756,16.609 V 86.028 C 97.359,81.239 95.09,77.557 92.543,72.374 89.291,49 103.961,41.045 106.701,39.773 v -1.98 l -0.838,-0.17 z"
             id="path65"
             inkscape:connector-curvature="0"
             style="fill:#f3f2f2" /></g></g><g
         id="g67"><g
           id="g69"><g
             id="g71"
             style="fill:#c361b0;fill-opacity:1"><path
               d="m 76.873,53.902 c -4.76,0 -8.619,3.859 -8.619,8.619 0,6.27 8.135,14.652 8.867,14.652 0.73,0 8.371,-9.121 8.371,-14.652 0,-4.759 -3.857,-8.619 -8.619,-8.619 z m -0.041,11.5 c -1.867,0 -3.381,-1.473 -3.381,-3.291 0,-1.818 1.514,-3.293 3.381,-3.293 1.869,0 3.383,1.475 3.383,3.293 0,1.818 -1.514,3.291 -3.383,3.291 z"
               id="path73"
               inkscape:connector-curvature="0"
               style="fill:#8d4084;fill-opacity:1" /></g><g
             id="g75"><path
               d="m 77.121,77.674 c -1.096,0 -9.367,-8.725 -9.367,-15.152 0,-5.029 4.092,-9.119 9.119,-9.119 5.029,0 9.119,4.09 9.119,9.119 0,5.332 -7.512,15.152 -8.871,15.152 z M 76.873,54.402 c -4.477,0 -8.119,3.643 -8.119,8.119 0,5.666 7.004,13.213 8.352,14.1 1.229,-0.949 7.887,-9.047 7.887,-14.1 -10e-4,-4.476 -3.641,-8.119 -8.12,-8.119 z m -0.041,11.5 c -2.141,0 -3.881,-1.701 -3.881,-3.791 0,-2.092 1.74,-3.793 3.881,-3.793 2.141,0 3.883,1.701 3.883,3.793 0,2.09 -1.742,3.791 -3.883,3.791 z m 0,-6.584 c -1.588,0 -2.881,1.252 -2.881,2.793 0,1.539 1.293,2.791 2.881,2.791 1.59,0 2.883,-1.252 2.883,-2.791 0,-1.541 -1.293,-2.793 -2.883,-2.793 z"
               id="path77"
               inkscape:connector-curvature="0"
               style="fill:#c361b0;fill-opacity:1" /></g></g></g></g></g></svg>