<?xml version="1.0" encoding="UTF-8" standalone="no"?>
<!-- Generator: Adobe Illustrator 16.0.0, SVG Export Plug-In . SVG Version: 6.00 Build 0)  -->

<svg
   xmlns:dc="http://purl.org/dc/elements/1.1/"
   xmlns:cc="http://creativecommons.org/ns#"
   xmlns:rdf="http://www.w3.org/1999/02/22-rdf-syntax-ns#"
   xmlns:svg="http://www.w3.org/2000/svg"
   xmlns="http://www.w3.org/2000/svg"
   xmlns:sodipodi="http://sodipodi.sourceforge.net/DTD/sodipodi-0.dtd"
   xmlns:inkscape="http://www.inkscape.org/namespaces/inkscape"
   version="1.1"
   id="Layer_1"
   x="0px"
   y="0px"
   width="136.833px"
   height="136.834px"
   viewBox="0 0 136.833 136.834"
   style="enable-background:new 0 0 136.833 136.834;"
   xml:space="preserve"
   inkscape:version="0.48.5 r"
   sodipodi:docname="plural.svg"><metadata
     id="metadata59"><rdf:RDF><cc:Work
         rdf:about=""><dc:format>image/svg+xml</dc:format><dc:type
           rdf:resource="http://purl.org/dc/dcmitype/StillImage" /></cc:Work></rdf:RDF></metadata><defs
     id="defs57" /><sodipodi:namedview
     pagecolor="#ffffff"
     bordercolor="#666666"
     borderopacity="1"
     objecttolerance="10"
     gridtolerance="10"
     guidetolerance="10"
     inkscape:pageopacity="0"
     inkscape:pageshadow="2"
     inkscape:window-width="640"
     inkscape:window-height="480"
     id="namedview55"
     showgrid="false"
     inkscape:zoom="1.7247175"
     inkscape:cx="68.416496"
     inkscape:cy="68.417"
     inkscape:window-x="0"
     inkscape:window-y="24"
     inkscape:window-maximized="0"
     inkscape:current-layer="g5" /><style
     type="text/css"
     id="style3">
	.st0{fill:#E59C31;}
	.st1{fill:#E5CE27;}
	.st2{fill:#E84849;}
	.st3{fill:#E8F5F4;}
	.st4{opacity:0.15;}
	.st5{fill:#857856;}
	.st6{fill:#EDB04E;}
	.st7{fill:#EFDE0E;}
	.st8{fill-rule:evenodd;clip-rule:evenodd;fill:#4B4A4B;}
	.st9{fill-rule:evenodd;clip-rule:evenodd;fill:#4C4D4D;}
	.st10{fill:#8CC3CC;}
	.st11{fill-rule:evenodd;clip-rule:evenodd;fill:#E84849;}
	.st12{fill:#F06668;}
	.st13{fill:#F1EB75;}
	.st14{fill:#F2BE3E;}
	.st15{fill:#F3ED73;}
	.st16{fill:#F4E028;}
	.st17{fill:#F59C9E;}
	.st18{fill:#F6A2A3;}
	.st19{clip-path:url(#SVGID_9_);}
	.st20{fill:#C0D5D7;}
	.st21{fill:url(#SVGID_1_);}
	.st22{fill:url(#SVGID_2_);}
	.st23{fill:url(#SVGID_3_);}
	.st24{fill:url(#SVGID_4_);}
	.st25{fill:url(#SVGID_5_);}
	.st26{fill:url(#SVGID_6_);}
	.st27{fill:url(#SVGID_7_);}
	.st28{fill:#C7E3E7;}
	.st29{fill:#2F8442;}
	.st30{fill-rule:evenodd;clip-rule:evenodd;fill:#F06668;}
	.st31{fill:#FFFFFF;}
	.st32{fill:#664219;}
	.st33{fill:#67B8CB;}
	.st34{fill:#9CBDBF;}
	.st35{fill:#69C6D4;}
	.st36{fill:#9F77AA;}
	.st37{fill:#344E5D;}
	.st38{fill:#357180;}
	.st39{fill:#6CC077;}
	.st40{fill-rule:evenodd;clip-rule:evenodd;fill:#FFFFFF;}
	.st41{fill-rule:evenodd;clip-rule:evenodd;fill:#626463;}
	.st42{fill:#D3E9D0;}
	.st43{fill:#717171;}
	.st44{fill:#A2D4DE;}
	.st45{fill:#A3D4AA;}
	.st46{fill:#DEA027;}
</style><g
     id="g5"><g
       id="g15"
       transform="matrix(1.357419,0,0,1.357419,-24.453536,-24.453536)"><g
         id="g17"><g
           id="g19"><path
             class="st12"
             d="m 68.417,19.751 c -26.879,0 -48.666,21.788 -48.666,48.666 0,26.878 21.787,48.666 48.666,48.666 26.877,0 48.666,-21.788 48.666,-48.666 0,-26.878 -21.789,-48.666 -48.666,-48.666 z m 0,82.914 c -18.914,0 -34.248,-15.333 -34.248,-34.247 0,-18.914 15.334,-34.248 34.248,-34.248 18.914,0 34.246,15.333 34.246,34.247 0,18.914 -15.332,34.248 -34.246,34.248 z"
             id="path21"
             inkscape:connector-curvature="0"
             style="fill:#f06668" /></g><g
           id="g23"><g
             id="g25"><path
               class="st14"
               d="m 68.417,24.708 c -24.141,0 -43.709,19.568 -43.709,43.709 0,24.14 19.568,43.709 43.709,43.709 24.139,0 43.709,-19.569 43.709,-43.709 0,-24.14 -19.57,-43.709 -43.709,-43.709 z"
               id="path27"
               inkscape:connector-curvature="0"
               style="fill:#f2be3e" /></g></g><g
           id="g29"><g
             id="g31"><path
               class="st16"
               d="m 68.417,29.15 c -21.688,0 -39.268,17.58 -39.268,39.268 0,21.687 17.58,39.268 39.268,39.268 21.688,0 39.266,-17.581 39.266,-39.268 0,-21.688 -17.579,-39.268 -39.266,-39.268 z"
               id="path33"
               inkscape:connector-curvature="0"
               style="fill:#f4e028" /></g></g><g
           id="g35"><path
             class="st39"
             d="m 68.417,32.933 c -19.598,0 -35.484,15.887 -35.484,35.484 0,19.597 15.887,35.484 35.484,35.484 19.597,0 35.484,-15.887 35.484,-35.484 0,-19.597 -15.886,-35.484 -35.484,-35.484 z"
             id="path37"
             inkscape:connector-curvature="0"
             style="fill:#6cc077" /></g><g
           id="g39"><path
             class="st33"
             d="m 68.501,36.873 c -17.375,0 -31.461,14.086 -31.461,31.461 0,17.375 14.086,31.461 31.461,31.461 17.375,0 31.461,-14.086 31.461,-31.461 0,-17.375 -14.086,-31.461 -31.461,-31.461 z"
             id="path41"
             inkscape:connector-curvature="0"
             style="fill:#67b8cb" /></g><g
           id="g43"><path
             class="st36"
             d="m 68.417,40.932 c -15.18,0 -27.484,12.306 -27.484,27.485 0,15.179 12.305,27.485 27.484,27.485 15.179,0 27.484,-12.306 27.484,-27.485 0,-15.179 -12.304,-27.485 -27.484,-27.485 z"
             id="path45"
             inkscape:connector-curvature="0"
             style="fill:#9f77aa" /></g><g
           id="g47"><path
             class="st44"
             d="m 68.919,46.333 c -12.752,0 -23.09,10.337 -23.09,23.09 0,12.752 10.338,23.09 23.09,23.09 12.754,0 23.092,-10.338 23.092,-23.09 0,-12.753 -10.338,-23.09 -23.092,-23.09 z"
             id="path49"
             inkscape:connector-curvature="0"
             style="fill:#a2d4de" /></g><g
           id="g51"><path
             class="st31"
             d="m 68.919,46.333 c -12.752,0 -23.09,10.337 -23.09,23.09 0,12.752 10.338,23.09 23.09,23.09 12.754,0 23.092,-10.338 23.092,-23.09 0,-12.753 -10.338,-23.09 -23.092,-23.09 z"
             id="path53"
             inkscape:connector-curvature="0"
             style="fill:#ffffff" /></g></g></g></g></svg>