<?xml version="1.0" encoding="UTF-8" standalone="no"?>
<!-- Generator: Adobe Illustrator 16.0.0, SVG Export Plug-In . SVG Version: 6.00 Build 0)  -->

<svg
   xmlns:dc="http://purl.org/dc/elements/1.1/"
   xmlns:cc="http://creativecommons.org/ns#"
   xmlns:rdf="http://www.w3.org/1999/02/22-rdf-syntax-ns#"
   xmlns:svg="http://www.w3.org/2000/svg"
   xmlns="http://www.w3.org/2000/svg"
   xmlns:xlink="http://www.w3.org/1999/xlink"
   xmlns:sodipodi="http://sodipodi.sourceforge.net/DTD/sodipodi-0.dtd"
   xmlns:inkscape="http://www.inkscape.org/namespaces/inkscape"
   version="1.1"
   id="Layer_1"
   x="0px"
   y="0px"
   width="136.833px"
   height="136.833px"
   viewBox="0 0 136.833 136.833"
   style="enable-background:new 0 0 136.833 136.833;"
   xml:space="preserve"
   inkscape:version="0.48.5 r"
   sodipodi:docname="propostes.svg"><metadata
     id="metadata383"><rdf:RDF><cc:Work
         rdf:about=""><dc:format>image/svg+xml</dc:format><dc:type
           rdf:resource="http://purl.org/dc/dcmitype/StillImage" /></cc:Work></rdf:RDF></metadata><defs
     id="defs381" /><sodipodi:namedview
     pagecolor="#ffffff"
     bordercolor="#666666"
     borderopacity="1"
     objecttolerance="10"
     gridtolerance="10"
     guidetolerance="10"
     inkscape:pageopacity="0"
     inkscape:pageshadow="2"
     inkscape:window-width="640"
     inkscape:window-height="480"
     id="namedview379"
     showgrid="false"
     inkscape:zoom="1.7247302"
     inkscape:cx="68.416496"
     inkscape:cy="45.849058"
     inkscape:window-x="10"
     inkscape:window-y="34"
     inkscape:window-maximized="0"
     inkscape:current-layer="g9" /><style
     type="text/css"
     id="style3">
	.st0{fill:#AAB6B3;}
	.st1{fill:#49A0AE;}
	.st2{fill:#ADBAB5;}
	.st3{clip-path:url(#SVGID_6_);fill:#9A989D;}
	.st4{clip-path:url(#SVGID_6_);fill:#9B999E;}
	.st5{clip-path:url(#SVGID_6_);fill:#9B9A9E;}
	.st6{fill:#E1E1E1;}
	.st7{clip-path:url(#SVGID_6_);fill:#9D9B9F;}
	.st8{clip-path:url(#SVGID_6_);fill:#9E9CA1;}
	.st9{clip-path:url(#SVGID_6_);fill:#9F9CA2;}
	.st10{clip-path:url(#SVGID_6_);fill:#9F9DA3;}
	.st11{fill:#4ABC96;}
	.st12{fill:#E5E5E5;}
	.st13{clip-path:url(#SVGID_4_);fill:#A09EA4;}
	.st14{clip-path:url(#SVGID_4_);fill:#A29FA4;}
	.st15{clip-path:url(#SVGID_4_);fill:#A3A1A6;}
	.st16{clip-path:url(#SVGID_4_);fill:#A4A2A8;}
	.st17{fill:#1A1919;}
	.st18{clip-path:url(#SVGID_4_);fill:#A5A3A9;}
	.st19{clip-path:url(#SVGID_4_);fill:#A6A4A9;}
	.st20{clip-path:url(#SVGID_4_);fill:#A6A4AA;}
	.st21{fill:#EB9682;}
	.st22{fill:#B7CAC4;}
	.st23{clip-path:url(#SVGID_4_);fill:#A8A5AB;}
	.st24{clip-path:url(#SVGID_4_);fill:#A9A6AC;}
	.st25{fill:#EDEDED;}
	.st26{fill:#505252;}
	.st27{clip-path:url(#SVGID_6_);fill:#A09EA4;}
	.st28{clip-path:url(#SVGID_4_);fill:#AAA7AD;}
	.st29{clip-path:url(#SVGID_4_);fill:#AAA8AE;}
	.st30{clip-path:url(#SVGID_6_);fill:#A29FA4;}
	.st31{clip-path:url(#SVGID_4_);fill:#ABA9AF;}
	.st32{clip-path:url(#SVGID_4_);fill:#ACA9B0;}
	.st33{fill:#BCD0CA;}
	.st34{clip-path:url(#SVGID_6_);fill:#A3A1A6;}
	.st35{clip-path:url(#SVGID_4_);fill:#ADAAB1;}
	.st36{clip-path:url(#SVGID_6_);fill:#A4A2A8;}
	.st37{fill:#202121;}
	.st38{clip-path:url(#SVGID_4_);fill:#AEACB2;}
	.st39{clip-path:url(#SVGID_6_);fill:#A5A3A9;}
	.st40{clip-path:url(#SVGID_4_);fill:#AFACB3;}
	.st41{clip-path:url(#SVGID_6_);fill:#A6A4A9;}
	.st42{clip-path:url(#SVGID_6_);fill:#A6A4AA;}
	.st43{clip-path:url(#SVGID_6_);fill:#A8A5AB;}
	.st44{clip-path:url(#SVGID_6_);fill:#A9A6AC;}
	.st45{clip-path:url(#SVGID_2_);}
	.st46{clip-path:url(#SVGID_4_);fill:#B0ADB4;}
	.st47{clip-path:url(#SVGID_6_);fill:#AAA7AD;}
	.st48{clip-path:url(#SVGID_6_);fill:#AAA8AE;}
	.st49{clip-path:url(#SVGID_6_);fill:#ABA9AF;}
	.st50{clip-path:url(#SVGID_4_);fill:#B2AFB6;}
	.st51{clip-path:url(#SVGID_6_);fill:#ACA9B0;}
	.st52{clip-path:url(#SVGID_4_);fill:#B3B0B7;}
	.st53{clip-path:url(#SVGID_4_);fill:#B3B1B8;}
	.st54{clip-path:url(#SVGID_6_);fill:#ADAAB1;}
	.st55{clip-path:url(#SVGID_4_);fill:#B4B1B9;}
	.st56{clip-path:url(#SVGID_6_);fill:#AEACB2;}
	.st57{clip-path:url(#SVGID_4_);fill:#B5B2BA;}
	.st58{clip-path:url(#SVGID_6_);fill:#AFACB3;}
	.st59{clip-path:url(#SVGID_4_);fill:#B6B3BB;}
	.st60{clip-path:url(#SVGID_4_);fill:#B7B4BC;}
	.st61{clip-path:url(#SVGID_4_);fill:#B8B5BD;}
	.st62{clip-path:url(#SVGID_4_);fill:#B8B6BE;}
	.st63{clip-path:url(#SVGID_4_);fill:#B9B7BF;}
	.st64{opacity:0.3;}
	.st65{fill:#61A5B1;}
	.st66{fill:#FFFFFF;}
	.st67{clip-path:url(#SVGID_6_);fill:#B0ADB4;}
	.st68{fill:#676768;}
	.st69{clip-path:url(#SVGID_4_);fill:#BAB8C0;}
	.st70{fill:#67B8CB;}
	.st71{clip-path:url(#SVGID_4_);fill:#BBB8C1;}
	.st72{clip-path:url(#SVGID_6_);fill:#B2AFB6;}
	.st73{clip-path:url(#SVGID_4_);fill:#BCB9C2;}
	.st74{clip-path:url(#SVGID_6_);fill:#B3B0B7;}
	.st75{clip-path:url(#SVGID_6_);fill:#B3B1B8;}
	.st76{clip-path:url(#SVGID_4_);fill:#BDBAC3;}
	.st77{clip-path:url(#SVGID_4_);fill:#BDBBC4;}
	.st78{clip-path:url(#SVGID_6_);fill:#B4B1B9;}
	.st79{clip-path:url(#SVGID_4_);fill:#BEBCC5;}
	.st80{clip-path:url(#SVGID_6_);fill:#B5B2BA;}
	.st81{clip-path:url(#SVGID_4_);fill:#BFBDC6;}
	.st82{clip-path:url(#SVGID_6_);fill:#B6B3BB;}
	.st83{clip-path:url(#SVGID_6_);fill:#B7B4BC;}
	.st84{clip-path:url(#SVGID_6_);fill:#B8B5BD;}
	.st85{clip-path:url(#SVGID_6_);fill:#B8B6BE;}
	.st86{clip-path:url(#SVGID_6_);fill:#B9B7BF;}
	.st87{fill:#357180;}
	.st88{fill:#36858D;}
	.st89{clip-path:url(#SVGID_6_);fill:#BAB8C0;}
	.st90{clip-path:url(#SVGID_4_);fill:#C1BFC8;}
	.st91{clip-path:url(#SVGID_6_);fill:#BBB8C1;}
	.st92{clip-path:url(#SVGID_4_);fill:#C2C0C9;}
	.st93{clip-path:url(#SVGID_6_);fill:#BCB9C2;}
	.st94{clip-path:url(#SVGID_4_);fill:#949295;}
	.st95{clip-path:url(#SVGID_4_);fill:#C3C1C9;}
	.st96{clip-path:url(#SVGID_6_);fill:#BDBAC3;}
	.st97{clip-path:url(#SVGID_6_);fill:#BDBBC4;}
	.st98{clip-path:url(#SVGID_4_);fill:#959498;}
	.st99{clip-path:url(#SVGID_4_);fill:#C4C2CA;}
	.st100{clip-path:url(#SVGID_6_);fill:#BEBCC5;}
	.st101{clip-path:url(#SVGID_4_);fill:#969499;}
	.st102{clip-path:url(#SVGID_4_);fill:#C5C2CB;}
	.st103{clip-path:url(#SVGID_4_);fill:#C5C3CC;}
	.st104{clip-path:url(#SVGID_6_);fill:#BFBDC6;}
	.st105{clip-path:url(#SVGID_4_);fill:#97959A;}
	.st106{clip-path:url(#SVGID_4_);fill:#C6C4CD;}
	.st107{fill:#3CB881;}
	.st108{clip-path:url(#SVGID_4_);fill:#98969A;}
	.st109{clip-path:url(#SVGID_4_);fill:#C7C5CE;}
	.st110{clip-path:url(#SVGID_4_);fill:#99979C;}
	.st111{clip-path:url(#SVGID_4_);fill:#C8C5CF;}
	.st112{fill:#D8D8D8;}
	.st113{fill:#3E4141;}
	.st114{clip-path:url(#SVGID_4_);fill:#C9C6D0;}
	.st115{clip-path:url(#SVGID_4_);fill:#C9C7D1;}
	.st116{clip-path:url(#SVGID_4_);fill:#9A989D;}
	.st117{clip-path:url(#SVGID_4_);fill:#9B999E;}
	.st118{clip-path:url(#SVGID_4_);fill:#9B9A9E;}
	.st119{clip-path:url(#SVGID_4_);fill:#CAC7D1;}
	.st120{clip-path:url(#SVGID_6_);fill:#C1BFC8;}
	.st121{fill:#DBDBDA;}
	.st122{fill:#DBF0F4;}
	.st123{clip-path:url(#SVGID_6_);fill:#C2C0C9;}
	.st124{clip-path:url(#SVGID_4_);fill:#9D9B9F;}
	.st125{clip-path:url(#SVGID_6_);fill:#949295;}
	.st126{clip-path:url(#SVGID_6_);fill:#C3C1C9;}
	.st127{clip-path:url(#SVGID_4_);fill:#9E9CA1;}
	.st128{clip-path:url(#SVGID_6_);fill:#959498;}
	.st129{clip-path:url(#SVGID_4_);fill:#9F9CA2;}
	.st130{clip-path:url(#SVGID_4_);fill:#9F9DA3;}
	.st131{clip-path:url(#SVGID_6_);fill:#969499;}
	.st132{clip-path:url(#SVGID_6_);fill:#97959A;}
	.st133{fill:#DFF1ED;}
	.st134{clip-path:url(#SVGID_6_);fill:#98969A;}
	.st135{fill:#43B29B;}
	.st136{clip-path:url(#SVGID_6_);fill:#99979C;}
</style><g
     id="g5"><g
       id="g7"><g
         id="g9" /><g
         id="g19"
         transform="matrix(1.4391129,0,0,1.4391129,-29.173305,-31.940575)"><g
           id="g21"><path
             class="st26"
             d="m 75.059,105.133 c -2.003,-5.826 -3.136,-7.342 -6.94,-7.342 -3.754,0 -5.057,1.926 -6.937,7.342 -6.409,0.621 -10.907,2.076 -10.907,3.773 0,2.262 7.99,4.096 17.844,4.096 9.855,0 17.844,-1.834 17.844,-4.096 -10e-4,-1.697 -4.497,-3.15 -10.904,-3.773 z"
             id="path23"
             inkscape:connector-curvature="0"
             style="fill:#505252" /></g><g
           id="g25"><circle
             class="st17"
             cx="67.827003"
             cy="99.865997"
             r="1.169"
             id="circle27"
             d="m 68.996004,99.865997 c 0,0.645623 -0.52338,1.169003 -1.169001,1.169003 -0.64562,0 -1.169,-0.52338 -1.169,-1.169003 0,-0.645621 0.52338,-1.169 1.169,-1.169 0.645621,0 1.169001,0.523379 1.169001,1.169 z"
             sodipodi:cx="67.827003"
             sodipodi:cy="99.865997"
             sodipodi:rx="1.169"
             sodipodi:ry="1.169"
             style="fill:#1a1919" /></g><g
           id="g29"><path
             class="st113"
             d="m 113.971,59.325 c 0,0.605 -0.491,1.098 -1.097,1.098 l 0,0 c -0.605,0 -1.098,-0.492 -1.098,-1.098 V 47.698 c 0,-0.605 0.492,-1.098 1.098,-1.098 l 0,0 c 0.605,0 1.097,0.492 1.097,1.098 v 11.627 z"
             id="path31"
             inkscape:connector-curvature="0"
             style="fill:#3e4141" /></g><g
           id="g33"><defs
             id="defs35"><path
               id="SVGID_1_"
               d="m 113.275,94.53 c 0,2.982 -2.416,5.398 -5.396,5.398 0,0 -22.209,3.129 -40.93,3.129 -14.332,0 -38.688,-3.129 -38.688,-3.129 -2.981,0 -5.397,-2.416 -5.397,-5.398 V 41.227 c 0,-2.98 2.416,-5.396 5.397,-5.396 h 79.618 c 2.98,0 5.396,2.416 5.396,5.396 V 94.53 z"
               inkscape:connector-curvature="0" /></defs><clipPath
             id="SVGID_2_"><use
               xlink:href="#SVGID_1_"
               style="overflow:visible"
               id="use39"
               x="0"
               y="0"
               width="136.83299"
               height="136.83299" /></clipPath><g
             class="st45"
             id="g41"
             clip-path="url(#SVGID_2_)"><g
               id="g43"><path
                 class="st113"
                 d="m 26.509,95.817 v -56.09 h 71.486 l 2.723,-3.896 H 28.26 c -2.981,0 -5.397,2.416 -5.397,5.396 V 94.53 c 0,2.982 2.416,5.398 5.397,5.398 0,0 13.181,1.692 25.856,2.588 l 4.681,-6.699 H 26.509 z"
                 id="path45"
                 inkscape:connector-curvature="0"
                 style="fill:#3e4141" /></g><g
               id="g47"><polygon
                 class="st68"
                 points="26.509,39.727 26.509,95.817 58.797,95.817 97.996,39.727 "
                 id="polygon49"
                 style="fill:#676768" /></g><g
               id="g51"><path
                 class="st113"
                 d="m 107.878,99.928 c 2.98,0 5.396,-2.416 5.396,-5.398 V 41.227 c 0,-2.98 -2.416,-5.396 -5.396,-5.396 h -7.16 l -2.723,3.896 h 11.441 v 56.09 h -50.64 l -4.681,6.699 c 4.554,0.321 9.044,0.541 12.832,0.541 18.722,0 40.931,-3.129 40.931,-3.129 z"
                 id="path53"
                 inkscape:connector-curvature="0"
                 style="fill:#3e4141" /></g><g
               class="st64"
               id="g55"
               style="opacity:0.3"><g
                 id="g57"><defs
                   id="defs59"><path
                     id="SVGID_3_"
                     d="m 107.878,99.928 c 2.98,0 5.396,-2.416 5.396,-5.398 V 41.227 c 0,-2.98 -2.416,-5.396 -5.396,-5.396 h -7.16 l -2.723,3.896 h 11.441 v 56.09 h -50.64 l -4.681,6.699 c 4.554,0.321 9.044,0.541 12.832,0.541 18.722,0 40.931,-3.129 40.931,-3.129 z"
                     inkscape:connector-curvature="0" /></defs><clipPath
                   id="SVGID_4_"><use
                     xlink:href="#SVGID_3_"
                     style="overflow:visible"
                     id="use63"
                     x="0"
                     y="0"
                     width="136.83299"
                     height="136.83299" /></clipPath><polygon
                   class="st94"
                   points="100.717,35.831 54.117,102.511 54.117,35.831 "
                   id="polygon65"
                   clip-path="url(#SVGID_4_)"
                   style="fill:#949295" /><polygon
                   class="st94"
                   points="54.117,102.511 100.718,35.831 101.731,35.831 54.75,103.057 54.117,103.057 "
                   id="polygon67"
                   clip-path="url(#SVGID_4_)"
                   style="fill:#949295" /><polygon
                   class="st98"
                   points="101.731,35.831 102.745,35.831 55.763,103.057 54.75,103.057 "
                   id="polygon69"
                   clip-path="url(#SVGID_4_)"
                   style="fill:#959498" /><polygon
                   class="st101"
                   points="102.745,35.831 103.758,35.831 56.776,103.057 55.763,103.057 "
                   id="polygon71"
                   clip-path="url(#SVGID_4_)"
                   style="fill:#969499" /><polygon
                   class="st105"
                   points="103.758,35.831 104.772,35.831 57.79,103.057 56.776,103.057 "
                   id="polygon73"
                   clip-path="url(#SVGID_4_)"
                   style="fill:#97959a" /><polygon
                   class="st108"
                   points="104.772,35.831 105.785,35.831 58.804,103.057 57.79,103.057 "
                   id="polygon75"
                   clip-path="url(#SVGID_4_)"
                   style="fill:#98969a" /><polygon
                   class="st110"
                   points="105.785,35.831 106.799,35.831 59.817,103.057 58.804,103.057 "
                   id="polygon77"
                   clip-path="url(#SVGID_4_)"
                   style="fill:#99979c" /><polygon
                   class="st116"
                   points="106.799,35.831 107.813,35.831 60.831,103.057 59.817,103.057 "
                   id="polygon79"
                   clip-path="url(#SVGID_4_)"
                   style="fill:#9a989d" /><polygon
                   class="st117"
                   points="107.813,35.831 108.826,35.831 61.845,103.057 60.831,103.057 "
                   id="polygon81"
                   clip-path="url(#SVGID_4_)"
                   style="fill:#9b999e" /><polygon
                   class="st118"
                   points="108.826,35.831 109.84,35.831 62.857,103.057 61.845,103.057 "
                   id="polygon83"
                   clip-path="url(#SVGID_4_)"
                   style="fill:#9b9a9e" /><polygon
                   class="st124"
                   points="109.84,35.831 110.854,35.831 63.872,103.057 62.857,103.057 "
                   id="polygon85"
                   clip-path="url(#SVGID_4_)"
                   style="fill:#9d9b9f" /><polygon
                   class="st127"
                   points="110.854,35.831 111.867,35.831 64.885,103.057 63.872,103.057 "
                   id="polygon87"
                   clip-path="url(#SVGID_4_)"
                   style="fill:#9e9ca1" /><polygon
                   class="st129"
                   points="111.867,35.831 112.881,35.831 65.898,103.057 64.885,103.057 "
                   id="polygon89"
                   clip-path="url(#SVGID_4_)"
                   style="fill:#9f9ca2" /><polygon
                   class="st130"
                   points="112.881,35.831 113.275,35.831 113.275,36.716 66.912,103.057 65.898,103.057 "
                   id="polygon91"
                   clip-path="url(#SVGID_4_)"
                   style="fill:#9f9da3" /><polygon
                   class="st13"
                   points="113.275,36.716 113.275,38.167 67.926,103.057 66.912,103.057 "
                   id="polygon93"
                   clip-path="url(#SVGID_4_)"
                   style="fill:#a09ea4" /><polygon
                   class="st14"
                   points="113.275,38.167 113.275,39.617 68.939,103.057 67.926,103.057 "
                   id="polygon95"
                   clip-path="url(#SVGID_4_)"
                   style="fill:#a29fa4" /><polygon
                   class="st15"
                   points="113.275,39.617 113.275,41.067 69.953,103.057 68.939,103.057 "
                   id="polygon97"
                   clip-path="url(#SVGID_4_)"
                   style="fill:#a3a1a6" /><polygon
                   class="st16"
                   points="113.275,41.067 113.275,42.518 70.966,103.057 69.953,103.057 "
                   id="polygon99"
                   clip-path="url(#SVGID_4_)"
                   style="fill:#a4a2a8" /><polygon
                   class="st18"
                   points="113.275,42.518 113.275,43.968 71.98,103.057 70.966,103.057 "
                   id="polygon101"
                   clip-path="url(#SVGID_4_)"
                   style="fill:#a5a3a9" /><polygon
                   class="st19"
                   points="113.275,43.968 113.275,45.418 72.993,103.057 71.98,103.057 "
                   id="polygon103"
                   clip-path="url(#SVGID_4_)"
                   style="fill:#a6a4a9" /><polygon
                   class="st20"
                   points="113.275,45.418 113.275,46.869 74.007,103.057 72.993,103.057 "
                   id="polygon105"
                   clip-path="url(#SVGID_4_)"
                   style="fill:#a6a4aa" /><polygon
                   class="st23"
                   points="113.275,46.869 113.275,48.319 75.021,103.057 74.007,103.057 "
                   id="polygon107"
                   clip-path="url(#SVGID_4_)"
                   style="fill:#a8a5ab" /><polygon
                   class="st24"
                   points="113.275,48.319 113.275,49.77 76.034,103.057 75.021,103.057 "
                   id="polygon109"
                   clip-path="url(#SVGID_4_)"
                   style="fill:#a9a6ac" /><polygon
                   class="st28"
                   points="113.275,49.77 113.275,51.22 77.048,103.057 76.034,103.057 "
                   id="polygon111"
                   clip-path="url(#SVGID_4_)"
                   style="fill:#aaa7ad" /><polygon
                   class="st29"
                   points="113.275,51.22 113.275,52.67 78.062,103.057 77.048,103.057 "
                   id="polygon113"
                   clip-path="url(#SVGID_4_)"
                   style="fill:#aaa8ae" /><polygon
                   class="st31"
                   points="113.275,52.67 113.275,54.121 79.075,103.057 78.062,103.057 "
                   id="polygon115"
                   clip-path="url(#SVGID_4_)"
                   style="fill:#aba9af" /><polygon
                   class="st32"
                   points="113.275,54.121 113.275,55.571 80.088,103.057 79.075,103.057 "
                   id="polygon117"
                   clip-path="url(#SVGID_4_)"
                   style="fill:#aca9b0" /><polygon
                   class="st35"
                   points="113.275,55.571 113.275,57.021 81.102,103.057 80.088,103.057 "
                   id="polygon119"
                   clip-path="url(#SVGID_4_)"
                   style="fill:#adaab1" /><polygon
                   class="st38"
                   points="113.275,57.021 113.275,58.472 82.116,103.057 81.102,103.057 "
                   id="polygon121"
                   clip-path="url(#SVGID_4_)"
                   style="fill:#aeacb2" /><polygon
                   class="st40"
                   points="113.275,58.472 113.275,59.922 83.129,103.057 82.116,103.057 "
                   id="polygon123"
                   clip-path="url(#SVGID_4_)"
                   style="fill:#afacb3" /><polygon
                   class="st46"
                   points="113.275,59.922 113.275,61.372 84.143,103.057 83.129,103.057 "
                   id="polygon125"
                   clip-path="url(#SVGID_4_)"
                   style="fill:#b0adb4" /><polygon
                   class="st50"
                   points="113.275,61.372 113.275,62.822 85.156,103.057 84.143,103.057 "
                   id="polygon127"
                   clip-path="url(#SVGID_4_)"
                   style="fill:#b2afb6" /><polygon
                   class="st52"
                   points="113.275,62.822 113.275,64.273 86.17,103.057 85.156,103.057 "
                   id="polygon129"
                   clip-path="url(#SVGID_4_)"
                   style="fill:#b3b0b7" /><polygon
                   class="st53"
                   points="113.275,64.273 113.275,65.723 87.184,103.057 86.17,103.057 "
                   id="polygon131"
                   clip-path="url(#SVGID_4_)"
                   style="fill:#b3b1b8" /><polygon
                   class="st55"
                   points="113.275,65.723 113.275,67.173 88.197,103.057 87.184,103.057 "
                   id="polygon133"
                   clip-path="url(#SVGID_4_)"
                   style="fill:#b4b1b9" /><polygon
                   class="st57"
                   points="113.275,67.173 113.275,68.624 89.211,103.057 88.197,103.057 "
                   id="polygon135"
                   clip-path="url(#SVGID_4_)"
                   style="fill:#b5b2ba" /><polygon
                   class="st59"
                   points="113.275,68.624 113.275,70.074 90.224,103.057 89.211,103.057 "
                   id="polygon137"
                   clip-path="url(#SVGID_4_)"
                   style="fill:#b6b3bb" /><polygon
                   class="st60"
                   points="113.275,70.074 113.275,71.524 91.237,103.057 90.224,103.057 "
                   id="polygon139"
                   clip-path="url(#SVGID_4_)"
                   style="fill:#b7b4bc" /><polygon
                   class="st61"
                   points="113.275,71.524 113.275,72.975 92.251,103.057 91.237,103.057 "
                   id="polygon141"
                   clip-path="url(#SVGID_4_)"
                   style="fill:#b8b5bd" /><polygon
                   class="st62"
                   points="113.275,72.975 113.275,74.425 93.265,103.057 92.251,103.057 "
                   id="polygon143"
                   clip-path="url(#SVGID_4_)"
                   style="fill:#b8b6be" /><polygon
                   class="st63"
                   points="113.275,74.425 113.275,75.875 94.278,103.057 93.265,103.057 "
                   id="polygon145"
                   clip-path="url(#SVGID_4_)"
                   style="fill:#b9b7bf" /><polygon
                   class="st69"
                   points="113.275,75.875 113.275,77.326 95.292,103.057 94.278,103.057 "
                   id="polygon147"
                   clip-path="url(#SVGID_4_)"
                   style="fill:#bab8c0" /><polygon
                   class="st71"
                   points="113.275,77.326 113.275,78.776 96.306,103.057 95.292,103.057 "
                   id="polygon149"
                   clip-path="url(#SVGID_4_)"
                   style="fill:#bbb8c1" /><polygon
                   class="st73"
                   points="113.275,78.776 113.275,80.226 97.319,103.057 96.306,103.057 "
                   id="polygon151"
                   clip-path="url(#SVGID_4_)"
                   style="fill:#bcb9c2" /><polygon
                   class="st76"
                   points="113.275,80.226 113.275,81.677 98.333,103.057 97.319,103.057 "
                   id="polygon153"
                   clip-path="url(#SVGID_4_)"
                   style="fill:#bdbac3" /><polygon
                   class="st77"
                   points="113.275,81.677 113.275,83.127 99.347,103.057 98.333,103.057 "
                   id="polygon155"
                   clip-path="url(#SVGID_4_)"
                   style="fill:#bdbbc4" /><polygon
                   class="st79"
                   points="113.275,83.127 113.275,84.577 100.36,103.057 99.347,103.057 "
                   id="polygon157"
                   clip-path="url(#SVGID_4_)"
                   style="fill:#bebcc5" /><polygon
                   class="st81"
                   points="113.275,84.577 113.275,86.028 101.374,103.057 100.36,103.057 "
                   id="polygon159"
                   clip-path="url(#SVGID_4_)"
                   style="fill:#bfbdc6" /><polygon
                   class="st90"
                   points="113.275,86.028 113.275,87.478 102.387,103.057 101.374,103.057 "
                   id="polygon161"
                   clip-path="url(#SVGID_4_)"
                   style="fill:#c1bfc8" /><polygon
                   class="st92"
                   points="113.275,87.478 113.275,88.928 103.4,103.057 102.387,103.057 "
                   id="polygon163"
                   clip-path="url(#SVGID_4_)"
                   style="fill:#c2c0c9" /><polygon
                   class="st95"
                   points="113.275,88.928 113.275,90.378 104.415,103.057 103.4,103.057 "
                   id="polygon165"
                   clip-path="url(#SVGID_4_)"
                   style="fill:#c3c1c9" /><polygon
                   class="st99"
                   points="113.275,90.378 113.275,91.829 105.428,103.057 104.415,103.057 "
                   id="polygon167"
                   clip-path="url(#SVGID_4_)"
                   style="fill:#c4c2ca" /><polygon
                   class="st102"
                   points="113.275,91.829 113.275,93.279 106.441,103.057 105.428,103.057 "
                   id="polygon169"
                   clip-path="url(#SVGID_4_)"
                   style="fill:#c5c2cb" /><polygon
                   class="st103"
                   points="113.275,93.279 113.275,94.73 107.455,103.057 106.441,103.057 "
                   id="polygon171"
                   clip-path="url(#SVGID_4_)"
                   style="fill:#c5c3cc" /><polygon
                   class="st106"
                   points="113.275,94.73 113.275,96.18 108.469,103.057 107.455,103.057 "
                   id="polygon173"
                   clip-path="url(#SVGID_4_)"
                   style="fill:#c6c4cd" /><polygon
                   class="st109"
                   points="113.275,96.18 113.275,97.63 109.482,103.057 108.469,103.057 "
                   id="polygon175"
                   clip-path="url(#SVGID_4_)"
                   style="fill:#c7c5ce" /><polygon
                   class="st111"
                   points="113.275,97.63 113.275,99.081 110.496,103.057 109.482,103.057 "
                   id="polygon177"
                   clip-path="url(#SVGID_4_)"
                   style="fill:#c8c5cf" /><polygon
                   class="st114"
                   points="113.275,99.081 113.275,100.531 111.509,103.057 110.496,103.057 "
                   id="polygon179"
                   clip-path="url(#SVGID_4_)"
                   style="fill:#c9c6d0" /><polygon
                   class="st115"
                   points="113.275,100.531 113.275,101.981 112.523,103.057 111.509,103.057 "
                   id="polygon181"
                   clip-path="url(#SVGID_4_)"
                   style="fill:#c9c7d1" /><polygon
                   class="st119"
                   points="112.523,103.057 113.275,101.981 113.275,103.057 "
                   id="polygon183"
                   clip-path="url(#SVGID_4_)"
                   style="fill:#cac7d1" /></g></g><g
               id="g185"><polygon
                 class="st68"
                 points="58.797,95.817 109.437,95.817 109.437,39.727 97.996,39.727 "
                 id="polygon187"
                 style="fill:#676768" /></g><g
               class="st64"
               id="g189"
               style="opacity:0.3"><g
                 id="g191"><defs
                   id="defs193"><polygon
                     id="SVGID_5_"
                     points="58.797,95.817 109.437,95.817 109.437,39.727 97.996,39.727 " /></defs><clipPath
                   id="SVGID_6_"><use
                     xlink:href="#SVGID_5_"
                     style="overflow:visible"
                     id="use197"
                     x="0"
                     y="0"
                     width="136.83299"
                     height="136.83299" /></clipPath><polygon
                   class="st125"
                   points="97.995,39.727 58.797,95.816 58.797,39.727 "
                   id="polygon199"
                   clip-path="url(#SVGID_6_)"
                   style="fill:#949295" /><polygon
                   class="st125"
                   points="58.797,95.815 97.995,39.727 99.009,39.727 59.81,95.817 58.797,95.817 "
                   id="polygon201"
                   clip-path="url(#SVGID_6_)"
                   style="fill:#949295" /><polygon
                   class="st128"
                   points="99.009,39.727 100.022,39.727 60.823,95.817 59.81,95.817 "
                   id="polygon203"
                   clip-path="url(#SVGID_6_)"
                   style="fill:#959498" /><polygon
                   class="st131"
                   points="100.022,39.727 101.036,39.727 61.836,95.817 60.823,95.817 "
                   id="polygon205"
                   clip-path="url(#SVGID_6_)"
                   style="fill:#969499" /><polygon
                   class="st132"
                   points="101.036,39.727 102.05,39.727 62.851,95.817 61.836,95.817 "
                   id="polygon207"
                   clip-path="url(#SVGID_6_)"
                   style="fill:#97959a" /><polygon
                   class="st134"
                   points="102.05,39.727 103.063,39.727 63.864,95.817 62.851,95.817 "
                   id="polygon209"
                   clip-path="url(#SVGID_6_)"
                   style="fill:#98969a" /><polygon
                   class="st136"
                   points="103.063,39.727 104.077,39.727 64.877,95.817 63.864,95.817 "
                   id="polygon211"
                   clip-path="url(#SVGID_6_)"
                   style="fill:#99979c" /><polygon
                   class="st3"
                   points="104.077,39.727 105.09,39.727 65.892,95.817 64.877,95.817 "
                   id="polygon213"
                   clip-path="url(#SVGID_6_)"
                   style="fill:#9a989d" /><polygon
                   class="st4"
                   points="105.09,39.727 106.104,39.727 66.904,95.817 65.892,95.817 "
                   id="polygon215"
                   clip-path="url(#SVGID_6_)"
                   style="fill:#9b999e" /><polygon
                   class="st5"
                   points="106.104,39.727 107.117,39.727 67.918,95.817 66.904,95.817 "
                   id="polygon217"
                   clip-path="url(#SVGID_6_)"
                   style="fill:#9b9a9e" /><polygon
                   class="st7"
                   points="107.117,39.727 108.13,39.727 68.932,95.817 67.918,95.817 "
                   id="polygon219"
                   clip-path="url(#SVGID_6_)"
                   style="fill:#9d9b9f" /><polygon
                   class="st8"
                   points="108.13,39.727 109.145,39.727 69.945,95.817 68.932,95.817 "
                   id="polygon221"
                   clip-path="url(#SVGID_6_)"
                   style="fill:#9e9ca1" /><polygon
                   class="st9"
                   points="109.145,39.727 109.437,39.727 109.437,40.759 70.959,95.817 69.945,95.817 "
                   id="polygon223"
                   clip-path="url(#SVGID_6_)"
                   style="fill:#9f9ca2" /><polygon
                   class="st10"
                   points="109.437,40.759 109.437,42.208 71.973,95.817 70.959,95.817 "
                   id="polygon225"
                   clip-path="url(#SVGID_6_)"
                   style="fill:#9f9da3" /><polygon
                   class="st27"
                   points="109.437,42.208 109.437,43.659 72.986,95.817 71.973,95.817 "
                   id="polygon227"
                   clip-path="url(#SVGID_6_)"
                   style="fill:#a09ea4" /><polygon
                   class="st30"
                   points="109.437,43.659 109.437,45.109 74,95.817 72.986,95.817 "
                   id="polygon229"
                   clip-path="url(#SVGID_6_)"
                   style="fill:#a29fa4" /><polygon
                   class="st34"
                   points="109.437,45.109 109.437,46.56 75.013,95.817 74,95.817 "
                   id="polygon231"
                   clip-path="url(#SVGID_6_)"
                   style="fill:#a3a1a6" /><polygon
                   class="st36"
                   points="109.437,46.56 109.437,48.01 76.027,95.817 75.013,95.817 "
                   id="polygon233"
                   clip-path="url(#SVGID_6_)"
                   style="fill:#a4a2a8" /><polygon
                   class="st39"
                   points="109.437,48.01 109.437,49.46 77.04,95.817 76.027,95.817 "
                   id="polygon235"
                   clip-path="url(#SVGID_6_)"
                   style="fill:#a5a3a9" /><polygon
                   class="st41"
                   points="109.437,49.46 109.437,50.911 78.054,95.817 77.04,95.817 "
                   id="polygon237"
                   clip-path="url(#SVGID_6_)"
                   style="fill:#a6a4a9" /><polygon
                   class="st42"
                   points="109.437,50.911 109.437,52.361 79.067,95.817 78.054,95.817 "
                   id="polygon239"
                   clip-path="url(#SVGID_6_)"
                   style="fill:#a6a4aa" /><polygon
                   class="st43"
                   points="109.437,52.361 109.437,53.812 80.081,95.817 79.067,95.817 "
                   id="polygon241"
                   clip-path="url(#SVGID_6_)"
                   style="fill:#a8a5ab" /><polygon
                   class="st44"
                   points="109.437,53.812 109.437,55.261 81.094,95.817 80.081,95.817 "
                   id="polygon243"
                   clip-path="url(#SVGID_6_)"
                   style="fill:#a9a6ac" /><polygon
                   class="st47"
                   points="109.437,55.261 109.437,56.712 82.108,95.817 81.094,95.817 "
                   id="polygon245"
                   clip-path="url(#SVGID_6_)"
                   style="fill:#aaa7ad" /><polygon
                   class="st48"
                   points="109.437,56.712 109.437,58.162 83.121,95.817 82.108,95.817 "
                   id="polygon247"
                   clip-path="url(#SVGID_6_)"
                   style="fill:#aaa8ae" /><polygon
                   class="st49"
                   points="109.437,58.162 109.437,59.612 84.135,95.817 83.121,95.817 "
                   id="polygon249"
                   clip-path="url(#SVGID_6_)"
                   style="fill:#aba9af" /><polygon
                   class="st51"
                   points="109.437,59.612 109.437,61.063 85.149,95.817 84.135,95.817 "
                   id="polygon251"
                   clip-path="url(#SVGID_6_)"
                   style="fill:#aca9b0" /><polygon
                   class="st54"
                   points="109.437,61.063 109.437,62.513 86.162,95.817 85.149,95.817 "
                   id="polygon253"
                   clip-path="url(#SVGID_6_)"
                   style="fill:#adaab1" /><polygon
                   class="st56"
                   points="109.437,62.513 109.437,63.963 87.176,95.817 86.162,95.817 "
                   id="polygon255"
                   clip-path="url(#SVGID_6_)"
                   style="fill:#aeacb2" /><polygon
                   class="st58"
                   points="109.437,63.963 109.437,65.414 88.189,95.817 87.176,95.817 "
                   id="polygon257"
                   clip-path="url(#SVGID_6_)"
                   style="fill:#afacb3" /><polygon
                   class="st67"
                   points="109.437,65.414 109.437,66.864 89.203,95.817 88.189,95.817 "
                   id="polygon259"
                   clip-path="url(#SVGID_6_)"
                   style="fill:#b0adb4" /><polygon
                   class="st72"
                   points="109.437,66.864 109.437,68.314 90.216,95.817 89.203,95.817 "
                   id="polygon261"
                   clip-path="url(#SVGID_6_)"
                   style="fill:#b2afb6" /><polygon
                   class="st74"
                   points="109.437,68.314 109.437,69.764 91.23,95.817 90.216,95.817 "
                   id="polygon263"
                   clip-path="url(#SVGID_6_)"
                   style="fill:#b3b0b7" /><polygon
                   class="st75"
                   points="109.437,69.764 109.437,71.215 92.244,95.817 91.23,95.817 "
                   id="polygon265"
                   clip-path="url(#SVGID_6_)"
                   style="fill:#b3b1b8" /><polygon
                   class="st78"
                   points="109.437,71.215 109.437,72.665 93.257,95.817 92.244,95.817 "
                   id="polygon267"
                   clip-path="url(#SVGID_6_)"
                   style="fill:#b4b1b9" /><polygon
                   class="st80"
                   points="109.437,72.665 109.437,74.116 94.271,95.817 93.257,95.817 "
                   id="polygon269"
                   clip-path="url(#SVGID_6_)"
                   style="fill:#b5b2ba" /><polygon
                   class="st82"
                   points="109.437,74.116 109.437,75.566 95.284,95.817 94.271,95.817 "
                   id="polygon271"
                   clip-path="url(#SVGID_6_)"
                   style="fill:#b6b3bb" /><polygon
                   class="st83"
                   points="109.437,75.566 109.437,77.016 96.298,95.817 95.284,95.817 "
                   id="polygon273"
                   clip-path="url(#SVGID_6_)"
                   style="fill:#b7b4bc" /><polygon
                   class="st84"
                   points="109.437,77.016 109.437,78.466 97.312,95.817 96.298,95.817 "
                   id="polygon275"
                   clip-path="url(#SVGID_6_)"
                   style="fill:#b8b5bd" /><polygon
                   class="st85"
                   points="109.437,78.466 109.437,79.917 98.325,95.817 97.312,95.817 "
                   id="polygon277"
                   clip-path="url(#SVGID_6_)"
                   style="fill:#b8b6be" /><polygon
                   class="st86"
                   points="109.437,79.917 109.437,81.367 99.338,95.817 98.325,95.817 "
                   id="polygon279"
                   clip-path="url(#SVGID_6_)"
                   style="fill:#b9b7bf" /><polygon
                   class="st89"
                   points="109.437,81.367 109.437,82.818 100.352,95.817 99.338,95.817 "
                   id="polygon281"
                   clip-path="url(#SVGID_6_)"
                   style="fill:#bab8c0" /><polygon
                   class="st91"
                   points="109.437,82.818 109.437,84.267 101.366,95.817 100.352,95.817 "
                   id="polygon283"
                   clip-path="url(#SVGID_6_)"
                   style="fill:#bbb8c1" /><polygon
                   class="st93"
                   points="109.437,84.267 109.437,85.717 102.379,95.817 101.366,95.817 "
                   id="polygon285"
                   clip-path="url(#SVGID_6_)"
                   style="fill:#bcb9c2" /><polygon
                   class="st96"
                   points="109.437,85.717 109.437,87.168 103.393,95.817 102.379,95.817 "
                   id="polygon287"
                   clip-path="url(#SVGID_6_)"
                   style="fill:#bdbac3" /><polygon
                   class="st97"
                   points="109.437,87.168 109.437,88.619 104.406,95.817 103.393,95.817 "
                   id="polygon289"
                   clip-path="url(#SVGID_6_)"
                   style="fill:#bdbbc4" /><polygon
                   class="st100"
                   points="109.437,88.619 109.437,90.069 105.42,95.817 104.406,95.817 "
                   id="polygon291"
                   clip-path="url(#SVGID_6_)"
                   style="fill:#bebcc5" /><polygon
                   class="st104"
                   points="109.437,90.069 109.437,91.519 106.434,95.817 105.42,95.817 "
                   id="polygon293"
                   clip-path="url(#SVGID_6_)"
                   style="fill:#bfbdc6" /><polygon
                   class="st120"
                   points="109.437,91.519 109.437,92.969 107.447,95.817 106.434,95.817 "
                   id="polygon295"
                   clip-path="url(#SVGID_6_)"
                   style="fill:#c1bfc8" /><polygon
                   class="st123"
                   points="109.437,92.969 109.437,94.419 108.46,95.817 107.447,95.817 "
                   id="polygon297"
                   clip-path="url(#SVGID_6_)"
                   style="fill:#c2c0c9" /><polygon
                   class="st126"
                   points="108.46,95.817 109.437,94.419 109.437,95.817 "
                   id="polygon299"
                   clip-path="url(#SVGID_6_)"
                   style="fill:#c3c1c9" /></g></g></g></g></g></g><g
       id="g301"
       transform="matrix(1.4391129,0,0,1.4391129,-29.173305,-31.940575)"><g
         id="g303"><g
           id="g305"><path
             class="st133"
             d="m 58.98,67.278 c 0,1.435 -1.162,2.598 -2.597,2.598 H 36.681 c -1.436,0 -2.599,-1.163 -2.599,-2.598 V 55.804 c 0,-1.436 1.163,-2.599 2.599,-2.599 h 19.702 c 1.435,0 2.597,1.163 2.597,2.599 v 11.474 z"
             id="path307"
             inkscape:connector-curvature="0"
             style="fill:#dff1ed" /></g><g
           id="g309"><path
             class="st133"
             d="m 52.972,73.372 c -0.207,0.205 -0.535,0.205 -0.74,0 l -2.488,-3.516 c -0.203,-0.203 -0.203,-0.533 0,-0.738 h 5.717 c 0.203,0.205 0.203,0.535 0,0.738 l -2.489,3.516 z"
             id="path311"
             inkscape:connector-curvature="0"
             style="fill:#dff1ed" /></g></g><g
         id="g313"><g
           id="g315"><path
             class="st22"
             d="m 55.188,57.621 c 0,0.521 -0.423,0.944 -0.944,0.944 H 38.761 c -0.521,0 -0.943,-0.424 -0.943,-0.944 l 0,0 c 0,-0.521 0.423,-0.944 0.943,-0.944 h 15.482 c 0.522,-10e-4 0.945,0.422 0.945,0.944 l 0,0 z"
             id="path317"
             inkscape:connector-curvature="0"
             style="fill:#b7cac4" /></g><g
           id="g319"><path
             class="st22"
             d="m 55.188,61.397 c 0,0.521 -0.423,0.943 -0.944,0.943 H 38.761 c -0.521,0 -0.943,-0.422 -0.943,-0.943 l 0,0 c 0,-0.522 0.423,-0.944 0.943,-0.944 h 15.482 c 0.522,0 0.945,0.422 0.945,0.944 l 0,0 z"
             id="path321"
             inkscape:connector-curvature="0"
             style="fill:#b7cac4" /></g><g
           id="g323"><path
             class="st22"
             d="m 55.188,65.172 c 0,0.521 -0.423,0.944 -0.944,0.944 H 38.761 c -0.521,0 -0.943,-0.423 -0.943,-0.944 l 0,0 c 0,-0.521 0.423,-0.943 0.943,-0.943 h 15.482 c 0.522,0 0.945,0.422 0.945,0.943 l 0,0 z"
             id="path325"
             inkscape:connector-curvature="0"
             style="fill:#b7cac4" /></g></g></g><g
       id="g327"
       transform="matrix(1.4391129,0,0,1.4391129,-29.173305,-31.940575)"><g
         id="g329"><g
           id="g331"><path
             class="st133"
             d="m 102.9,62.339 c 0,1.436 -1.164,2.599 -2.598,2.599 H 80.601 c -1.435,0 -2.598,-1.163 -2.598,-2.599 V 50.866 c 0,-1.435 1.163,-2.598 2.598,-2.598 h 19.701 c 1.434,0 2.598,1.163 2.598,2.598 v 11.473 z"
             id="path333"
             inkscape:connector-curvature="0"
             style="fill:#dff1ed" /></g><g
           id="g335"><path
             class="st133"
             d="m 96.89,68.434 c -0.204,0.204 -0.534,0.204 -0.738,0 l -2.488,-3.516 c -0.203,-0.204 -0.203,-0.534 0,-0.738 h 5.717 c 0.203,0.204 0.203,0.534 0,0.738 l -2.491,3.516 z"
             id="path337"
             inkscape:connector-curvature="0"
             style="fill:#dff1ed" /></g></g><g
         id="g339"><g
           id="g341"><path
             class="st22"
             d="m 99.107,52.683 c 0,0.521 -0.422,0.944 -0.943,0.944 H 82.68 c -0.521,0 -0.942,-0.424 -0.942,-0.944 l 0,0 c 0,-0.522 0.422,-0.944 0.942,-0.944 h 15.483 c 0.522,0 0.944,0.422 0.944,0.944 l 0,0 z"
             id="path343"
             inkscape:connector-curvature="0"
             style="fill:#b7cac4" /></g><g
           id="g345"><path
             class="st22"
             d="m 99.107,56.459 c 0,0.521 -0.422,0.943 -0.943,0.943 H 82.68 c -0.521,0 -0.942,-0.422 -0.942,-0.943 l 0,0 c 0,-0.522 0.422,-0.944 0.942,-0.944 h 15.483 c 0.522,0 0.944,0.422 0.944,0.944 l 0,0 z"
             id="path347"
             inkscape:connector-curvature="0"
             style="fill:#b7cac4" /></g><g
           id="g349"><path
             class="st22"
             d="m 99.107,60.235 c 0,0.521 -0.422,0.944 -0.943,0.944 H 82.68 c -0.521,0 -0.942,-0.423 -0.942,-0.944 l 0,0 c 0,-0.521 0.422,-0.944 0.942,-0.944 h 15.483 c 0.522,0 0.944,0.422 0.944,0.944 l 0,0 z"
             id="path351"
             inkscape:connector-curvature="0"
             style="fill:#b7cac4" /></g></g></g><g
       id="g353"
       transform="matrix(1.4391129,0,0,1.4391129,-29.173305,-31.940575)"><g
         id="g355"><g
           id="g357"><path
             class="st133"
             d="m 87.463,85.434 c 0,1.436 -1.164,2.599 -2.598,2.599 h -19.7 c -1.435,0 -2.598,-1.163 -2.598,-2.599 V 73.96 c 0,-1.435 1.163,-2.599 2.598,-2.599 h 19.701 c 1.434,0 2.598,1.164 2.598,2.599 v 11.474 z"
             id="path359"
             inkscape:connector-curvature="0"
             style="fill:#dff1ed" /></g><g
           id="g361"><path
             class="st133"
             d="m 81.454,91.529 c -0.204,0.204 -0.534,0.204 -0.738,0 l -2.489,-3.517 c -0.202,-0.203 -0.202,-0.533 0,-0.737 h 5.718 c 0.202,0.204 0.202,0.534 0,0.737 l -2.491,3.517 z"
             id="path363"
             inkscape:connector-curvature="0"
             style="fill:#dff1ed" /></g></g><g
         id="g365"><g
           id="g367"><path
             class="st22"
             d="m 83.67,75.778 c 0,0.521 -0.422,0.943 -0.943,0.943 H 67.244 c -0.521,0 -0.942,-0.423 -0.942,-0.943 l 0,0 c 0,-0.521 0.422,-0.944 0.942,-0.944 h 15.483 c 0.522,-0.001 0.943,0.422 0.943,0.944 l 0,0 z"
             id="path369"
             inkscape:connector-curvature="0"
             style="fill:#b7cac4" /></g><g
           id="g371"><path
             class="st22"
             d="m 83.67,79.554 c 0,0.521 -0.422,0.943 -0.943,0.943 H 67.244 c -0.521,0 -0.942,-0.422 -0.942,-0.943 l 0,0 c 0,-0.522 0.422,-0.944 0.942,-0.944 h 15.483 c 0.522,0 0.943,0.422 0.943,0.944 l 0,0 z"
             id="path373"
             inkscape:connector-curvature="0"
             style="fill:#b7cac4" /></g><g
           id="g375"><path
             class="st22"
             d="m 83.67,83.33 c 0,0.521 -0.422,0.944 -0.943,0.944 H 67.244 c -0.521,0 -0.942,-0.423 -0.942,-0.944 l 0,0 c 0,-0.521 0.422,-0.944 0.942,-0.944 h 15.483 c 0.522,-10e-4 0.943,0.422 0.943,0.944 l 0,0 z"
             id="path377"
             inkscape:connector-curvature="0"
             style="fill:#b7cac4" /></g></g></g></g></svg>