<?xml version="1.0" encoding="UTF-8" standalone="no"?>
<!-- Created with Inkscape (http://www.inkscape.org/) -->

<svg
   xmlns:dc="http://purl.org/dc/elements/1.1/"
   xmlns:cc="http://creativecommons.org/ns#"
   xmlns:rdf="http://www.w3.org/1999/02/22-rdf-syntax-ns#"
   xmlns:svg="http://www.w3.org/2000/svg"
   xmlns="http://www.w3.org/2000/svg"
   xmlns:xlink="http://www.w3.org/1999/xlink"
   xmlns:sodipodi="http://sodipodi.sourceforge.net/DTD/sodipodi-0.dtd"
   xmlns:inkscape="http://www.inkscape.org/namespaces/inkscape"
   width="100"
   height="100"
   id="svg38565"
   version="1.1"
   inkscape:version="0.48.5 r"
   sodipodi:docname="Documento nuevo 2">
  <defs
     id="defs38567" />
  <sodipodi:namedview
     id="base"
     pagecolor="#ffffff"
     bordercolor="#666666"
     borderopacity="1.0"
     inkscape:pageopacity="0.0"
     inkscape:pageshadow="2"
     inkscape:zoom="2.8"
     inkscape:cx="19.011413"
     inkscape:cy="40.885269"
     inkscape:document-units="px"
     inkscape:current-layer="g26881"
     showgrid="false"
     inkscape:window-width="754"
     inkscape:window-height="674"
     inkscape:window-x="415"
     inkscape:window-y="142"
     inkscape:window-maximized="0" />
  <metadata
     id="metadata38570">
    <rdf:RDF>
      <cc:Work
         rdf:about="">
        <dc:format>image/svg+xml</dc:format>
        <dc:type
           rdf:resource="http://purl.org/dc/dcmitype/StillImage" />
        <dc:title></dc:title>
      </cc:Work>
    </rdf:RDF>
  </metadata>
  <g
     inkscape:label="Capa 1"
     inkscape:groupmode="layer"
     id="layer1"
     transform="translate(0,-952.36218)">
    <g
       transform="translate(-370.00714,-1639.745)"
       id="g26767">
      <g
         id="g26773"
         transform="matrix(1.0966067,0,0,1.0966067,-290.1365,350.33474)">
        <g
           id="g26775">
          <g
             id="g26777">
            <circle
               d="m 660.50001,2074.5 c 0,15.3535 -12.44648,27.8 -27.8,27.8 -15.35351,0 -27.8,-12.4465 -27.8,-27.8 0,-15.3535 12.44649,-27.8 27.8,-27.8 15.35352,0 27.8,12.4465 27.8,27.8 z"
               style="fill:#ffffff"
               sodipodi:ry="27.799999"
               sodipodi:rx="27.799999"
               sodipodi:cy="2074.5"
               sodipodi:cx="632.70001"
               cx="632.70001"
               cy="2074.5"
               r="27.799999"
               id="circle26779" />
            <g
               style="opacity:0.6"
               id="g26781">
              <path
                 style="fill:#becbcc"
                 inkscape:connector-curvature="0"
                 d="m 651.4,2064.1 c 3.8,3.8 6.3,8.5 7.3,13.4 0.9,-7.8 -1.6,-15.9 -7.6,-21.8 -10.4,-10.4 -27.2,-10.4 -37.5,0 -5.9,5.9 -8.4,13.8 -7.6,21.5 1.1,-4.8 3.5,-9.3 7.2,-13.1 10.5,-10.5 27.6,-10.5 38.2,0 z"
                 id="path26783" />
            </g>
            <g
               id="g26785">
              <rect
                 style="fill:#ffffff"
                 x="653.79999"
                 y="2089.7"
                 transform="matrix(0.7066,-0.7076,0.7076,0.7066,-1292.1654,1081.3483)"
                 width="8.1999998"
                 height="18.5"
                 id="rect26787" />
            </g>
            <g
               id="g26789">
              <polygon
                 style="fill:#d1dee5"
                 points="654.1,2089.3 656,2091.2 657.6,2104.4 648.3,2095.1 "
                 id="polygon26791" />
            </g>
            <g
               id="g26793">
              <path
                 style="fill:#ffffff"
                 inkscape:connector-curvature="0"
                 d="m 650.3,2092.6 c -1.2,1.2 -2.5,2.3 -4,3.2 -1.4,0.9 -2.9,1.7 -4.4,2.3 -1.5,0.6 -3.1,1.1 -4.7,1.4 -1.6,0.3 -3.2,0.5 -4.8,0.5 -1.6,0 -3.2,-0.2 -4.8,-0.5 -1.6,-0.3 -3.2,-0.8 -4.7,-1.4 -1.5,-0.6 -3,-1.4 -4.4,-2.3 -1.4,-0.9 -2.8,-2 -4,-3.2 -1.2,-1.2 -2.3,-2.5 -3.2,-4 -0.9,-1.4 -1.7,-2.9 -2.3,-4.4 -0.6,-1.5 -1.1,-3.1 -1.4,-4.7 -0.3,-1.6 -0.5,-3.2 -0.5,-4.8 0,-1.6 0.2,-3.2 0.5,-4.8 0.3,-1.6 0.8,-3.2 1.4,-4.7 0.6,-1.5 1.4,-3 2.3,-4.4 0.9,-1.4 2,-2.8 3.2,-4 1.2,-1.2 2.5,-2.3 4,-3.2 1.4,-0.9 2.9,-1.7 4.4,-2.3 1.5,-0.6 3.1,-1.1 4.7,-1.4 1.6,-0.3 3.2,-0.5 4.8,-0.5 1.6,0 3.2,0.2 4.8,0.5 1.6,0.3 3.2,0.8 4.7,1.4 1.5,0.6 3,1.4 4.4,2.3 1.4,0.9 2.8,2 4,3.2 1.2,1.2 2.3,2.5 3.2,4 0.9,1.4 1.7,2.9 2.3,4.4 0.6,1.5 1.1,3.1 1.4,4.7 0.3,1.6 0.5,3.2 0.5,4.8 0,1.6 -0.2,3.2 -0.5,4.8 -0.3,1.6 -0.8,3.2 -1.4,4.7 -0.6,1.5 -1.4,3 -2.3,4.4 -0.9,1.4 -2,2.8 -3.2,4 z M 616,2058.3 c -1.1,1.1 -2.1,2.3 -3,3.6 -0.8,1.3 -1.6,2.6 -2.1,4 -0.6,1.4 -1,2.8 -1.3,4.3 -0.3,1.5 -0.4,3 -0.4,4.4 0,1.5 0.1,3 0.4,4.4 0.3,1.5 0.7,2.9 1.3,4.3 0.6,1.4 1.3,2.8 2.1,4 0.9,1.3 1.9,2.5 3,3.6 1.1,1.1 2.3,2.1 3.6,3 1.3,0.8 2.6,1.6 4,2.1 1.4,0.6 2.8,1 4.3,1.3 1.5,0.3 3,0.4 4.4,0.4 1.5,0 3,-0.1 4.4,-0.4 1.5,-0.3 2.9,-0.7 4.3,-1.3 1.4,-0.6 2.8,-1.3 4,-2.1 1.3,-0.9 2.5,-1.9 3.6,-3 1.1,-1.1 2.1,-2.3 3,-3.6 0.8,-1.3 1.6,-2.6 2.1,-4 0.6,-1.4 1,-2.8 1.3,-4.3 0.3,-1.5 0.4,-3 0.4,-4.4 0,-1.5 -0.1,-3 -0.4,-4.4 -0.3,-1.5 -0.7,-2.9 -1.3,-4.3 -0.6,-1.4 -1.3,-2.8 -2.1,-4 -0.9,-1.3 -1.9,-2.5 -3,-3.6 -1.1,-1.1 -2.3,-2.1 -3.6,-3 -1.3,-0.8 -2.6,-1.6 -4,-2.1 -1.4,-0.6 -2.8,-1 -4.3,-1.3 -1.5,-0.3 -3,-0.4 -4.4,-0.4 -1.5,0 -3,0.1 -4.4,0.4 -1.5,0.3 -2.9,0.7 -4.3,1.3 -1.4,0.6 -2.8,1.3 -4,2.1 -1.3,0.9 -2.5,1.9 -3.6,3 z"
                 id="path26795" />
            </g>
            <path
               style="fill:#45525b"
               inkscape:connector-curvature="0"
               d="m 648,2050.6 c -1.6,-1 -3.3,-1.9 -5,-2.6 -1.7,-0.7 -3.5,-1.2 -5.3,-1.6 -1.8,-0.3 -3.6,-0.5 -5.5,-0.5 -1.8,0 -3.7,0.2 -5.5,0.5 -1.8,0.4 -3.6,0.9 -5.3,1.6 -1.7,0.7 -3.4,1.6 -5,2.6 -1.6,1.1 -3.1,2.3 -4.5,3.7 l 0,0 c -1.4,1.4 -2.6,2.9 -3.7,4.5 -1,1.6 -1.9,3.3 -2.6,5 -0.7,1.7 -1.2,3.5 -1.6,5.3 -0.3,1.8 -0.5,3.6 -0.5,5.5 0,1.8 0.2,3.7 0.5,5.5 0.4,1.8 0.9,3.6 1.6,5.3 0.7,1.7 1.6,3.4 2.6,5 1.1,1.6 2.3,3.1 3.7,4.5 1.4,1.4 2.9,2.6 4.5,3.7 1.6,1 3.3,1.9 5,2.6 1.7,0.7 3.5,1.2 5.3,1.6 1.8,0.3 3.6,0.5 5.5,0.5 1.8,0 3.7,-0.2 5.5,-0.5 1.8,-0.4 3.6,-0.9 5.3,-1.6 1.7,-0.7 3.4,-1.6 5,-2.6 1.6,-1.1 3.1,-2.3 4.5,-3.7 l 0,0 c 1.4,-1.4 2.6,-2.9 3.7,-4.5 1,-1.6 1.9,-3.3 2.6,-5 0.7,-1.7 1.2,-3.5 1.6,-5.3 0.3,-1.8 0.5,-3.6 0.5,-5.5 0,-1.8 -0.2,-3.7 -0.5,-5.5 -0.4,-1.8 -0.9,-3.6 -1.6,-5.3 -0.7,-1.7 -1.6,-3.4 -2.6,-5 -1.1,-1.6 -2.3,-3.1 -3.7,-4.5 -1.4,-1.4 -2.9,-2.7 -4.5,-3.7 z m 8.5,22.3 c 0,0.3 0,0.6 0.1,0.9 0,0.2 0,0.3 0,0.5 0,1.7 -0.1,3.3 -0.4,4.9 -1.7,8.9 -8.4,16.6 -17.8,19 -7.2,1.8 -14.5,0.2 -20.1,-3.8 -2.6,-1.8 -4.8,-4.2 -6.5,-6.9 -0.2,-0.3 -0.3,-0.5 -0.5,-0.8 -0.4,-0.6 -0.7,-1.3 -1,-2 -0.1,-0.1 -0.1,-0.3 -0.2,-0.4 -0.5,-1.1 -0.9,-2.3 -1.2,-3.6 -1.7,-6.5 -0.5,-13.1 2.7,-18.4 0.1,-0.2 0.2,-0.4 0.3,-0.6 3.2,-5 8.2,-8.9 14.4,-10.4 13,-3.3 26.1,4.5 29.4,17.5 0.3,1.2 0.5,2.5 0.6,3.7 0.2,0.1 0.2,0.3 0.2,0.4 z"
               id="path26797" />
            <g
               id="g26799">
              <path
                 style="fill:#ffd55c"
                 inkscape:connector-curvature="0"
                 d="m 666.2,2097.9 -4.7,4.7 27.5,27.4 2.1,-2.1 c 1.5,-1.5 1.5,-3.8 0,-5.3 l -24.9,-24.7 z"
                 id="path26801" />
              <path
                 style="fill:#ffb733"
                 inkscape:connector-curvature="0"
                 d="m 657,2107.2 24.8,24.8 c 1.5,1.5 3.8,1.5 5.3,0 l 1.9,-1.9 -27.4,-27.4 -4.6,4.5 z"
                 id="path26803" />
            </g>
          </g>
          <g
             id="g26805">
            <defs
               id="defs26807">
              <path
                 inkscape:connector-curvature="0"
                 id="SVGID_75_"
                 d="m 632.9,2054.8 c -12.6,0 -23.7,6.7 -29.9,16.6 6.2,10 17.3,16.6 29.9,16.6 12.6,0 23.7,-6.7 29.9,-16.6 -6.2,-9.9 -17.3,-16.6 -29.9,-16.6 l 0,0 z" />
            </defs>
            <clipPath
               id="SVGID_76_">
              <use
                 height="1052.3622"
                 width="744.09448"
                 y="0"
                 x="0"
                 style="overflow:visible"
                 xlink:href="#SVGID_75_"
                 overflow="visible"
                 id="use26811" />
            </clipPath>
          </g>
          <g
             id="g26813">
            <path
               style="fill:#fcb504"
               inkscape:connector-curvature="0"
               d="m 628.2,2062.6 c 0.3,-0.1 0.6,-0.2 0.9,-0.3 -0.3,0.1 -0.6,0.2 -0.9,0.3 z"
               id="path26815" />
            <path
               style="fill:#fcb504"
               inkscape:connector-curvature="0"
               d="m 626.8,2063.1 c 0.3,-0.1 0.6,-0.3 0.9,-0.4 -0.3,0.2 -0.6,0.3 -0.9,0.4 z"
               id="path26817" />
            <path
               style="fill:#fcb504"
               inkscape:connector-curvature="0"
               d="m 637.2,2062.7 c 0.3,0.1 0.6,0.3 0.9,0.4 -0.3,-0.1 -0.6,-0.2 -0.9,-0.4 z"
               id="path26819" />
            <path
               style="fill:#fcb504"
               inkscape:connector-curvature="0"
               d="m 638.4,2063.3 c 0.4,0.2 0.8,0.5 1.2,0.7 -0.4,-0.2 -0.8,-0.5 -1.2,-0.7 z"
               id="path26821" />
            <path
               style="fill:#fcb504"
               inkscape:connector-curvature="0"
               d="m 631,2061.9 c 0.5,-0.1 1,-0.1 1.5,-0.1 -0.5,0 -1,0.1 -1.5,0.1 z"
               id="path26823" />
            <path
               style="fill:#fcb504"
               inkscape:connector-curvature="0"
               d="m 629.6,2062.2 c 0.3,-0.1 0.6,-0.1 1,-0.2 -0.4,0 -0.7,0.1 -1,0.2 z"
               id="path26825" />
            <path
               style="fill:#fcb504"
               inkscape:connector-curvature="0"
               d="m 639.9,2064.2 c 0.3,0.2 0.6,0.4 0.8,0.6 -0.3,-0.2 -0.6,-0.4 -0.8,-0.6 z"
               id="path26827" />
            <path
               style="fill:#fcb504"
               inkscape:connector-curvature="0"
               d="m 634.4,2062 c 0.3,0.1 0.6,0.1 1,0.2 -0.4,-0.1 -0.7,-0.2 -1,-0.2 z"
               id="path26829" />
            <path
               style="fill:#fcb504"
               inkscape:connector-curvature="0"
               d="m 635.8,2062.3 c 0.3,0.1 0.6,0.2 0.9,0.3 -0.3,-0.1 -0.6,-0.2 -0.9,-0.3 z"
               id="path26831" />
            <path
               style="fill:#fcb504"
               inkscape:connector-curvature="0"
               d="m 622.3,2066.9 c 0.2,-0.2 0.4,-0.5 0.6,-0.7 -0.2,0.2 -0.4,0.4 -0.6,0.7 z"
               id="path26833" />
            <path
               style="fill:#fcb504"
               inkscape:connector-curvature="0"
               d="m 632.5,2061.8 c 0.5,0 1,0 1.5,0.1 -0.6,0 -1.1,-0.1 -1.5,-0.1 z"
               id="path26835" />
            <path
               style="fill:#fcb504"
               inkscape:connector-curvature="0"
               d="m 623.2,2065.8 c 0.2,-0.2 0.4,-0.4 0.6,-0.6 -0.1,0.2 -0.4,0.4 -0.6,0.6 z"
               id="path26837" />
            <path
               style="fill:#fcb504"
               inkscape:connector-curvature="0"
               d="m 642,2066.2 c 0.2,0.2 0.4,0.4 0.6,0.7 -0.2,-0.3 -0.4,-0.5 -0.6,-0.7 z"
               id="path26839" />
            <path
               style="fill:#fcb504"
               inkscape:connector-curvature="0"
               d="m 641.1,2065.2 c 0.2,0.2 0.4,0.4 0.6,0.6 -0.2,-0.2 -0.4,-0.4 -0.6,-0.6 z"
               id="path26841" />
            <path
               style="fill:#fcb504"
               inkscape:connector-curvature="0"
               d="m 624.2,2064.8 c 0.3,-0.2 0.6,-0.5 0.9,-0.7 -0.3,0.3 -0.6,0.5 -0.9,0.7 z"
               id="path26843" />
            <path
               style="fill:#fcb504"
               inkscape:connector-curvature="0"
               d="m 625.3,2064 c 0.4,-0.3 0.8,-0.5 1.2,-0.7 -0.4,0.2 -0.8,0.5 -1.2,0.7 z"
               id="path26845" />
            <path
               style="fill:none"
               inkscape:connector-curvature="0"
               d="m 632.5,2067.8 c -0.6,0 -1.1,0.1 -1.6,0.2 1.1,0.6 1.9,1.9 1.9,3.2 0,2.1 -1.7,3.7 -3.7,3.7 -1.3,0 -2.5,-0.7 -3.1,-1.7 -0.1,0.4 -0.1,0.9 -0.1,1.3 0,3.7 3,6.7 6.7,6.7 3.7,0 6.8,-3 6.8,-6.7 0,-3.7 -3.2,-6.7 -6.9,-6.7 z"
               id="path26847" />
            <path
               style="fill:#fc9000"
               inkscape:connector-curvature="0"
               d="m 641.7,2065.8 c 0.1,0.1 0.2,0.3 0.4,0.4 -0.2,-0.1 -0.3,-0.3 -0.4,-0.4 z"
               id="path26849" />
            <path
               style="fill:#fc9000"
               inkscape:connector-curvature="0"
               d="m 640.7,2064.9 c 0.1,0.1 0.2,0.2 0.4,0.3 -0.2,-0.1 -0.3,-0.2 -0.4,-0.3 z"
               id="path26851" />
            <path
               style="fill:#fc9000"
               inkscape:connector-curvature="0"
               d="m 623.9,2065.2 c 0.1,-0.1 0.2,-0.2 0.4,-0.3 -0.2,0.1 -0.3,0.2 -0.4,0.3 z"
               id="path26853" />
            <path
               style="fill:#fc9000"
               inkscape:connector-curvature="0"
               d="m 625.1,2064.2 c 0.1,-0.1 0.1,-0.1 0.2,-0.2 -0.1,0.1 -0.1,0.1 -0.2,0.2 z"
               id="path26855" />
            <path
               style="fill:#fc9000"
               inkscape:connector-curvature="0"
               d="m 622.1,2067.1 c 0,0 0,0 0,0 0.1,-0.1 0.1,-0.2 0.2,-0.2 0,0.1 -0.1,0.1 -0.2,0.2 z"
               id="path26857" />
            <path
               style="fill:#fc9000"
               inkscape:connector-curvature="0"
               d="m 642.8,2067.2 c -0.1,-0.1 -0.1,-0.2 -0.2,-0.3 0.1,0.1 0.1,0.2 0.2,0.3 0,0 0,0 0,0 z"
               id="path26859" />
            <path
               style="fill:#fc9000"
               inkscape:connector-curvature="0"
               d="m 633.9,2061.9 c 0.2,0 0.3,0 0.5,0.1 -0.2,0 -0.3,-0.1 -0.5,-0.1 z"
               id="path26861" />
            <path
               style="fill:#fc9000"
               inkscape:connector-curvature="0"
               d="m 622.9,2066.2 c 0.1,-0.1 0.2,-0.3 0.3,-0.4 -0.1,0.1 -0.2,0.2 -0.3,0.4 z"
               id="path26863" />
            <path
               style="fill:#fc9000"
               inkscape:connector-curvature="0"
               d="m 629.1,2062.3 c 0.2,0 0.3,-0.1 0.5,-0.1 -0.2,0 -0.3,0 -0.5,0.1 z"
               id="path26865" />
            <path
               style="fill:#fc9000"
               inkscape:connector-curvature="0"
               d="m 636.7,2062.6 c 0.2,0.1 0.3,0.1 0.5,0.2 -0.2,-0.1 -0.3,-0.2 -0.5,-0.2 z"
               id="path26867" />
            <path
               style="fill:#fc9000"
               inkscape:connector-curvature="0"
               d="m 630.6,2062 c 0.1,0 0.3,-0.1 0.4,-0.1 -0.1,0 -0.3,0.1 -0.4,0.1 z"
               id="path26869" />
            <path
               style="fill:#fc9000"
               inkscape:connector-curvature="0"
               d="m 635.3,2062.2 c 0.2,0 0.3,0.1 0.5,0.1 -0.1,-0.1 -0.3,-0.1 -0.5,-0.1 z"
               id="path26871" />
            <path
               style="fill:#fc9000"
               inkscape:connector-curvature="0"
               d="m 627.7,2062.7 c 0.2,-0.1 0.3,-0.1 0.5,-0.2 -0.1,0.1 -0.3,0.2 -0.5,0.2 z"
               id="path26873" />
            <path
               style="fill:#fc9000"
               inkscape:connector-curvature="0"
               d="m 639.6,2064 c 0.1,0.1 0.2,0.1 0.3,0.2 -0.1,0 -0.2,-0.1 -0.3,-0.2 z"
               id="path26875" />
            <path
               style="fill:#fc9000"
               inkscape:connector-curvature="0"
               d="m 638.1,2063.1 c 0.1,0.1 0.2,0.1 0.3,0.2 -0.1,0 -0.2,-0.1 -0.3,-0.2 z"
               id="path26877" />
            <path
               style="fill:#fc9000"
               inkscape:connector-curvature="0"
               d="m 626.5,2063.3 c 0.1,-0.1 0.2,-0.1 0.4,-0.2 -0.2,0.1 -0.3,0.2 -0.4,0.2 z"
               id="path26879" />
          </g>
        </g>
        <g
           id="g26881">
          <g
             id="g26883"
             style="fill:#87decd">
            <g
               id="g26885"
               style="fill:#87decd">
              <g
                 id="g26887"
                 style="fill:#87decd">
                <circle
                   d="m 645.3,2074.3 c 0,7.0693 -5.73076,12.8 -12.8,12.8 -7.06924,0 -12.8,-5.7307 -12.8,-12.8 0,-7.0692 5.73076,-12.8 12.8,-12.8 7.06924,0 12.8,5.7308 12.8,12.8 z"
                   style="fill:#87decd"
                   sodipodi:ry="12.8"
                   sodipodi:rx="12.8"
                   sodipodi:cy="2074.3"
                   sodipodi:cx="632.5"
                   cx="632.5"
                   cy="2074.3"
                   r="12.8"
                   id="circle26889" />
              </g>
            </g>
          </g>
          <path
             style="fill:#45525b"
             inkscape:connector-curvature="0"
             d="m 632.6,2069.2 c -0.7,0 -1.3,0.1 -1.9,0.3 0.8,0.4 1.4,1.3 1.4,2.3 0,1.5 -1.2,2.6 -2.6,2.6 -1,0 -1.9,-0.6 -2.3,-1.4 -0.2,0.6 -0.3,1.2 -0.3,1.9 0,3.2 2.6,5.8 5.8,5.8 3.2,0 5.8,-2.6 5.8,-5.8 -0.1,-3.1 -2.7,-5.7 -5.9,-5.7 z"
             id="path26891" />
          <circle
             d="m 632.3,2071.7 c 0,1.8225 -1.47746,3.3 -3.3,3.3 -1.82254,0 -3.3,-1.4775 -3.3,-3.3 0,-1.8226 1.47746,-3.3 3.3,-3.3 1.82254,0 3.3,1.4774 3.3,3.3 z"
             style="fill:#ffffff"
             sodipodi:ry="3.3"
             sodipodi:rx="3.3"
             sodipodi:cy="2071.7"
             sodipodi:cx="629"
             cx="629"
             cy="2071.7"
             r="3.3"
             id="circle26893" />
          <ellipse
             d="m 637.49998,2077.7 c 0,0.6075 -0.85066,1.1 -1.9,1.1 -1.04935,0 -1.9,-0.4925 -1.9,-1.1 0,-0.6076 0.85065,-1.1 1.9,-1.1 1.04934,0 1.9,0.4924 1.9,1.1 z"
             style="fill:#ffffff"
             sodipodi:ry="1.1"
             sodipodi:rx="1.9"
             sodipodi:cy="2077.7"
             sodipodi:cx="635.59998"
             transform="matrix(0.7326,-0.6807,0.6807,0.7326,-1244.3516,988.3678)"
             cx="635.59998"
             cy="2077.7"
             rx="1.9"
             ry="1.1"
             id="ellipse26895" />
        </g>
      </g>
    </g>
  </g>
</svg>
